<svg width="42" height="58" viewBox="0 0 42 58" fill="none" xmlns="http://www.w3.org/2000/svg">
<mask id="path-1-outside-1_199_184" maskUnits="userSpaceOnUse" x="0" y="0" width="42" height="58" fill="black">
<rect fill="white" width="42" height="58"/>
<path fill-rule="evenodd" clip-rule="evenodd" d="M30.8868 43.9956H11.2609V44.9961C11.2614 45.8599 11.6082 46.6882 12.2252 47.299C12.8422 47.9099 13.6789 48.2534 14.5516 48.254H27.5948C28.4678 48.254 29.305 47.9108 29.9223 47.2999C30.5397 46.6889 30.8866 45.8602 30.8868 44.9961V43.9956ZM28.3906 49.72C28.1273 49.7607 27.8613 49.7815 27.5948 49.7822H14.5516C14.2855 49.7815 14.0199 49.7607 13.757 49.72C14.001 51.3137 14.8127 52.7685 16.0455 53.8217C17.2782 54.8749 18.8508 55.4571 20.4792 55.4631H21.6685C23.2969 55.4571 24.8694 54.8749 26.1022 53.8217C27.3349 52.7685 28.1466 51.3137 28.3906 49.72ZM21.8445 21.6516H27.2969C27.4206 21.6519 27.5425 21.6817 27.6522 21.7384C27.7619 21.7951 27.8563 21.8771 27.9274 21.9774C27.9985 22.0777 28.0442 22.1934 28.0607 22.3148C28.0772 22.4362 28.064 22.5598 28.0223 22.6751C27.9656 22.8354 27.922 23 27.8921 23.1673C27.8622 23.3349 27.8474 23.5048 27.8481 23.675C27.8814 24.4278 28.207 25.1387 28.7568 25.6597C29.3067 26.1807 30.0385 26.4715 30.7997 26.4715C31.5609 26.4715 32.2927 26.1807 32.8425 25.6597C33.3924 25.1387 33.7179 24.4278 33.7512 23.675C33.7521 23.5048 33.7376 23.3349 33.7079 23.1673C33.6821 23.0193 33.6443 22.8736 33.5947 22.7317C33.5522 22.6333 33.5298 22.5276 33.5287 22.4206C33.5289 22.2176 33.6105 22.0229 33.7556 21.8794C33.9007 21.7359 34.0974 21.6553 34.3025 21.6553H39.589C39.5997 21.3971 39.6053 21.1395 39.6053 20.8738C39.6071 16.1408 37.7599 11.5905 34.4501 8.17487C31.1403 4.7592 26.6243 2.74278 21.847 2.54747V8.36836C22.012 8.34615 22.1783 8.33575 22.3448 8.33724C22.9401 8.33028 23.5309 8.44033 24.083 8.66102C24.635 8.8817 25.1373 9.20864 25.5607 9.62288C25.9842 10.0371 26.3204 10.5304 26.5499 11.0742C26.7793 11.618 26.8975 12.2015 26.8975 12.7908C26.8975 13.3801 26.7793 13.9636 26.5499 14.5074C26.3204 15.0512 25.9842 15.5445 25.5607 15.9587C25.1373 16.373 24.635 16.6999 24.083 16.9206C23.5309 17.1413 22.9401 17.2513 22.3448 17.2444C22.177 17.2444 22.0098 17.2369 21.842 17.2213V21.6516H21.8445ZM2.56118 21.6516C2.55112 21.3933 2.54484 21.1357 2.54484 20.87C2.54335 16.1381 4.39038 11.5888 7.69955 8.1739C11.0087 4.75898 15.5237 2.74293 20.3 2.54747V9.3216C20.3004 9.52464 20.382 9.71928 20.527 9.86285C20.6721 10.0064 20.8687 10.0872 21.0738 10.0876C21.1819 10.0866 21.2887 10.0644 21.3881 10.0222C21.5327 9.97283 21.6814 9.93618 21.8325 9.91271C22.0019 9.8812 22.1738 9.86557 22.3461 9.86605C22.7434 9.85086 23.1396 9.9152 23.5112 10.0552C23.8828 10.1952 24.2219 10.408 24.5084 10.6809C24.7949 10.9538 25.0229 11.281 25.1785 11.6432C25.3342 12.0053 25.4145 12.3948 25.4145 12.7883C25.4145 13.1819 25.3342 13.5713 25.1785 13.9335C25.0229 14.2956 24.7949 14.6229 24.5084 14.8957C24.2219 15.1686 23.8828 15.3814 23.5112 15.5214C23.1396 15.6614 22.7434 15.7258 22.3461 15.7106C22.1742 15.7098 22.0025 15.6967 21.8325 15.6714C21.6641 15.6411 21.4986 15.5968 21.3378 15.5388C21.1451 15.4707 20.9329 15.4809 20.7478 15.5673C20.5627 15.6538 20.4197 15.8093 20.3503 15.9999C20.3143 16.0946 20.2987 16.1957 20.3044 16.2967V21.6478H15.8219C15.8402 21.4844 15.8495 21.3201 15.8496 21.1556C15.8566 20.5664 15.7455 19.9816 15.5225 19.4351C15.2996 18.8887 14.9693 18.3915 14.5508 17.9723C14.1323 17.5531 13.634 17.2204 13.0846 16.9932C12.5352 16.7661 11.9458 16.6491 11.3505 16.6491C10.7551 16.6491 10.1657 16.7661 9.61631 16.9932C9.06695 17.2204 8.5686 17.5531 8.15011 17.9723C7.73163 18.3915 7.40135 18.8887 7.1784 19.4351C6.95545 19.9816 6.84428 20.5664 6.85132 21.1556C6.85146 21.3201 6.86069 21.4844 6.87897 21.6478L2.56118 21.6516ZM20.3032 23.1828H14.8508C14.7218 23.1826 14.5949 23.1506 14.4816 23.0895C14.3683 23.0285 14.2722 22.9405 14.202 22.8334C14.1318 22.7263 14.0896 22.6036 14.0794 22.4763C14.0692 22.349 14.0913 22.2212 14.1436 22.1045C14.193 21.9626 14.2306 21.8169 14.2561 21.669C14.2854 21.5013 14.3002 21.3314 14.3001 21.1612C14.3165 20.7674 14.2524 20.3743 14.1114 20.0056C13.9705 19.6369 13.7557 19.3003 13.48 19.0158C13.2042 18.7314 12.8733 18.5051 12.5069 18.3505C12.1406 18.1959 11.7465 18.1162 11.3483 18.1162C10.95 18.1162 10.5559 18.1959 10.1896 18.3505C9.82324 18.5051 9.49227 18.7314 9.21655 19.0158C8.94082 19.3003 8.72603 19.6369 8.58509 20.0056C8.44415 20.3743 8.37997 20.7674 8.39639 21.1612C8.39646 21.3314 8.41097 21.5012 8.43976 21.669C8.46967 21.8362 8.51318 22.0008 8.56988 22.1612C8.61163 22.2764 8.62481 22.4 8.60833 22.5213C8.59186 22.6427 8.54619 22.7584 8.47519 22.8587C8.40418 22.9589 8.3099 23.0409 8.20026 23.0976C8.09062 23.1544 7.96883 23.1842 7.84512 23.1847H2.69067C2.91682 24.9764 3.41085 26.7249 4.15654 28.3728C5.23051 30.7345 6.79511 32.8457 8.7484 34.5689C9.54891 35.2578 10.1884 36.1108 10.6226 37.0687C11.0568 38.0267 11.2752 39.0667 11.2628 40.1166V42.4686H20.3032V36.4667C20.1378 36.4822 19.9706 36.4978 19.8003 36.4978C18.6163 36.4839 17.4855 36.0086 16.6531 35.1749C15.8208 34.3412 15.354 33.2163 15.354 32.0442C15.354 30.8721 15.8208 29.7472 16.6531 28.9135C17.4855 28.0798 18.6163 27.6045 19.8003 27.5907C19.9679 27.5907 20.1355 27.5983 20.3032 27.6137V23.1828ZM39.4576 23.1828C39.2317 24.9746 38.7377 26.7232 37.9917 28.3709C36.9187 30.7324 35.3552 32.8436 33.403 34.567C32.6027 35.2561 31.9633 36.1091 31.5291 37.067C31.095 38.025 30.8764 39.0649 30.8886 40.1148V42.4668H21.8445V35.5439C21.8507 35.4184 21.8254 35.2933 21.7708 35.1798C21.7162 35.0663 21.634 34.968 21.5316 34.8937C21.4292 34.8194 21.3098 34.7714 21.184 34.754C21.0583 34.7367 20.9301 34.7504 20.8111 34.7941C20.6502 34.8494 20.485 34.891 20.317 34.9186C20.1475 34.9506 19.9753 34.9665 19.8028 34.9659C19.4055 34.9811 19.0093 34.9167 18.6377 34.7767C18.2661 34.6367 17.9269 34.4239 17.6405 34.151C17.354 33.8782 17.126 33.5509 16.9704 33.1888C16.8147 32.8266 16.7344 32.4371 16.7344 32.0436C16.7344 31.6501 16.8147 31.2606 16.9704 30.8984C17.126 30.5363 17.354 30.209 17.6405 29.9362C17.9269 29.6633 18.2661 29.4505 18.6377 29.3105C19.0093 29.1705 19.4055 29.1061 19.8028 29.1213C19.9749 29.1221 20.1468 29.1352 20.317 29.1605C20.4852 29.1907 20.6505 29.235 20.8111 29.2931C20.8952 29.3245 20.9845 29.3404 21.0744 29.3397C21.279 29.3391 21.4748 29.2581 21.6191 29.1146C21.7633 28.9711 21.8442 28.7768 21.8438 28.5744V23.1828H26.3257C26.3074 23.3463 26.2982 23.5106 26.298 23.675C26.291 24.2642 26.4022 24.8489 26.6251 25.3953C26.848 25.9417 27.1782 26.4388 27.5967 26.8579C28.0151 27.277 28.5134 27.6098 29.0627 27.8369C29.6119 28.064 30.2013 28.1809 30.7966 28.1809C31.3918 28.1809 31.9812 28.064 32.5305 27.8369C33.0797 27.6098 33.578 27.277 33.9964 26.8579C34.4149 26.4388 34.7451 25.9417 34.968 25.3953C35.1909 24.8489 35.3021 24.2642 35.2951 23.675C35.2952 23.5106 35.2861 23.3463 35.268 23.1828H39.4576ZM21.0738 1C25.1431 0.999261 29.1165 2.22277 32.4673 4.50833C35.8181 6.79388 38.3881 10.0335 39.8364 13.7978C41.2848 17.5621 41.5432 21.6732 40.5773 25.5862C39.6115 29.4992 37.467 33.0291 34.4282 35.7082C33.7877 36.2513 33.2766 36.9281 32.9317 37.6901C32.5869 38.452 32.4168 39.28 32.4337 40.1148V44.9986C32.4339 45.6273 32.3085 46.2498 32.0649 46.8304C31.8212 47.411 31.4639 47.9381 31.0137 48.3816C30.7135 48.6846 30.3723 48.9448 29.9998 49.155C29.8885 51.2694 28.9628 53.2612 27.413 54.7205C25.8633 56.1797 23.8074 56.9955 21.6685 57H20.4792C18.3402 56.9955 16.2844 56.1797 14.7346 54.7205C13.1849 53.2612 12.2591 51.2694 12.1478 49.155C11.7772 48.9421 11.4363 48.6821 11.1339 48.3816C10.6838 47.9381 10.3267 47.4109 10.0831 46.8303C9.83949 46.2498 9.71424 45.6272 9.71455 44.9986V40.1148C9.73137 39.2801 9.5613 38.4521 9.21657 37.6903C8.87183 36.9284 8.36097 36.2515 7.72066 35.7082C4.68263 33.0289 2.53882 29.4991 1.57334 25.5864C0.607853 21.6738 0.86628 17.5632 2.31437 13.7992C3.76246 10.0353 6.33184 6.79575 9.68201 4.51C13.0322 2.22425 17.0049 1.00018 21.0738 1Z"/>
</mask>
<path fill-rule="evenodd" clip-rule="evenodd" d="M30.8868 43.9956H11.2609V44.9961C11.2614 45.8599 11.6082 46.6882 12.2252 47.299C12.8422 47.9099 13.6789 48.2534 14.5516 48.254H27.5948C28.4678 48.254 29.305 47.9108 29.9223 47.2999C30.5397 46.6889 30.8866 45.8602 30.8868 44.9961V43.9956ZM28.3906 49.72C28.1273 49.7607 27.8613 49.7815 27.5948 49.7822H14.5516C14.2855 49.7815 14.0199 49.7607 13.757 49.72C14.001 51.3137 14.8127 52.7685 16.0455 53.8217C17.2782 54.8749 18.8508 55.4571 20.4792 55.4631H21.6685C23.2969 55.4571 24.8694 54.8749 26.1022 53.8217C27.3349 52.7685 28.1466 51.3137 28.3906 49.72ZM21.8445 21.6516H27.2969C27.4206 21.6519 27.5425 21.6817 27.6522 21.7384C27.7619 21.7951 27.8563 21.8771 27.9274 21.9774C27.9985 22.0777 28.0442 22.1934 28.0607 22.3148C28.0772 22.4362 28.064 22.5598 28.0223 22.6751C27.9656 22.8354 27.922 23 27.8921 23.1673C27.8622 23.3349 27.8474 23.5048 27.8481 23.675C27.8814 24.4278 28.207 25.1387 28.7568 25.6597C29.3067 26.1807 30.0385 26.4715 30.7997 26.4715C31.5609 26.4715 32.2927 26.1807 32.8425 25.6597C33.3924 25.1387 33.7179 24.4278 33.7512 23.675C33.7521 23.5048 33.7376 23.3349 33.7079 23.1673C33.6821 23.0193 33.6443 22.8736 33.5947 22.7317C33.5522 22.6333 33.5298 22.5276 33.5287 22.4206C33.5289 22.2176 33.6105 22.0229 33.7556 21.8794C33.9007 21.7359 34.0974 21.6553 34.3025 21.6553H39.589C39.5997 21.3971 39.6053 21.1395 39.6053 20.8738C39.6071 16.1408 37.7599 11.5905 34.4501 8.17487C31.1403 4.7592 26.6243 2.74278 21.847 2.54747V8.36836C22.012 8.34615 22.1783 8.33575 22.3448 8.33724C22.9401 8.33028 23.5309 8.44033 24.083 8.66102C24.635 8.8817 25.1373 9.20864 25.5607 9.62288C25.9842 10.0371 26.3204 10.5304 26.5499 11.0742C26.7793 11.618 26.8975 12.2015 26.8975 12.7908C26.8975 13.3801 26.7793 13.9636 26.5499 14.5074C26.3204 15.0512 25.9842 15.5445 25.5607 15.9587C25.1373 16.373 24.635 16.6999 24.083 16.9206C23.5309 17.1413 22.9401 17.2513 22.3448 17.2444C22.177 17.2444 22.0098 17.2369 21.842 17.2213V21.6516H21.8445ZM2.56118 21.6516C2.55112 21.3933 2.54484 21.1357 2.54484 20.87C2.54335 16.1381 4.39038 11.5888 7.69955 8.1739C11.0087 4.75898 15.5237 2.74293 20.3 2.54747V9.3216C20.3004 9.52464 20.382 9.71928 20.527 9.86285C20.6721 10.0064 20.8687 10.0872 21.0738 10.0876C21.1819 10.0866 21.2887 10.0644 21.3881 10.0222C21.5327 9.97283 21.6814 9.93618 21.8325 9.91271C22.0019 9.8812 22.1738 9.86557 22.3461 9.86605C22.7434 9.85086 23.1396 9.9152 23.5112 10.0552C23.8828 10.1952 24.2219 10.408 24.5084 10.6809C24.7949 10.9538 25.0229 11.281 25.1785 11.6432C25.3342 12.0053 25.4145 12.3948 25.4145 12.7883C25.4145 13.1819 25.3342 13.5713 25.1785 13.9335C25.0229 14.2956 24.7949 14.6229 24.5084 14.8957C24.2219 15.1686 23.8828 15.3814 23.5112 15.5214C23.1396 15.6614 22.7434 15.7258 22.3461 15.7106C22.1742 15.7098 22.0025 15.6967 21.8325 15.6714C21.6641 15.6411 21.4986 15.5968 21.3378 15.5388C21.1451 15.4707 20.9329 15.4809 20.7478 15.5673C20.5627 15.6538 20.4197 15.8093 20.3503 15.9999C20.3143 16.0946 20.2987 16.1957 20.3044 16.2967V21.6478H15.8219C15.8402 21.4844 15.8495 21.3201 15.8496 21.1556C15.8566 20.5664 15.7455 19.9816 15.5225 19.4351C15.2996 18.8887 14.9693 18.3915 14.5508 17.9723C14.1323 17.5531 13.634 17.2204 13.0846 16.9932C12.5352 16.7661 11.9458 16.6491 11.3505 16.6491C10.7551 16.6491 10.1657 16.7661 9.61631 16.9932C9.06695 17.2204 8.5686 17.5531 8.15011 17.9723C7.73163 18.3915 7.40135 18.8887 7.1784 19.4351C6.95545 19.9816 6.84428 20.5664 6.85132 21.1556C6.85146 21.3201 6.86069 21.4844 6.87897 21.6478L2.56118 21.6516ZM20.3032 23.1828H14.8508C14.7218 23.1826 14.5949 23.1506 14.4816 23.0895C14.3683 23.0285 14.2722 22.9405 14.202 22.8334C14.1318 22.7263 14.0896 22.6036 14.0794 22.4763C14.0692 22.349 14.0913 22.2212 14.1436 22.1045C14.193 21.9626 14.2306 21.8169 14.2561 21.669C14.2854 21.5013 14.3002 21.3314 14.3001 21.1612C14.3165 20.7674 14.2524 20.3743 14.1114 20.0056C13.9705 19.6369 13.7557 19.3003 13.48 19.0158C13.2042 18.7314 12.8733 18.5051 12.5069 18.3505C12.1406 18.1959 11.7465 18.1162 11.3483 18.1162C10.95 18.1162 10.5559 18.1959 10.1896 18.3505C9.82324 18.5051 9.49227 18.7314 9.21655 19.0158C8.94082 19.3003 8.72603 19.6369 8.58509 20.0056C8.44415 20.3743 8.37997 20.7674 8.39639 21.1612C8.39646 21.3314 8.41097 21.5012 8.43976 21.669C8.46967 21.8362 8.51318 22.0008 8.56988 22.1612C8.61163 22.2764 8.62481 22.4 8.60833 22.5213C8.59186 22.6427 8.54619 22.7584 8.47519 22.8587C8.40418 22.9589 8.3099 23.0409 8.20026 23.0976C8.09062 23.1544 7.96883 23.1842 7.84512 23.1847H2.69067C2.91682 24.9764 3.41085 26.7249 4.15654 28.3728C5.23051 30.7345 6.79511 32.8457 8.7484 34.5689C9.54891 35.2578 10.1884 36.1108 10.6226 37.0687C11.0568 38.0267 11.2752 39.0667 11.2628 40.1166V42.4686H20.3032V36.4667C20.1378 36.4822 19.9706 36.4978 19.8003 36.4978C18.6163 36.4839 17.4855 36.0086 16.6531 35.1749C15.8208 34.3412 15.354 33.2163 15.354 32.0442C15.354 30.8721 15.8208 29.7472 16.6531 28.9135C17.4855 28.0798 18.6163 27.6045 19.8003 27.5907C19.9679 27.5907 20.1355 27.5983 20.3032 27.6137V23.1828ZM39.4576 23.1828C39.2317 24.9746 38.7377 26.7232 37.9917 28.3709C36.9187 30.7324 35.3552 32.8436 33.403 34.567C32.6027 35.2561 31.9633 36.1091 31.5291 37.067C31.095 38.025 30.8764 39.0649 30.8886 40.1148V42.4668H21.8445V35.5439C21.8507 35.4184 21.8254 35.2933 21.7708 35.1798C21.7162 35.0663 21.634 34.968 21.5316 34.8937C21.4292 34.8194 21.3098 34.7714 21.184 34.754C21.0583 34.7367 20.9301 34.7504 20.8111 34.7941C20.6502 34.8494 20.485 34.891 20.317 34.9186C20.1475 34.9506 19.9753 34.9665 19.8028 34.9659C19.4055 34.9811 19.0093 34.9167 18.6377 34.7767C18.2661 34.6367 17.9269 34.4239 17.6405 34.151C17.354 33.8782 17.126 33.5509 16.9704 33.1888C16.8147 32.8266 16.7344 32.4371 16.7344 32.0436C16.7344 31.6501 16.8147 31.2606 16.9704 30.8984C17.126 30.5363 17.354 30.209 17.6405 29.9362C17.9269 29.6633 18.2661 29.4505 18.6377 29.3105C19.0093 29.1705 19.4055 29.1061 19.8028 29.1213C19.9749 29.1221 20.1468 29.1352 20.317 29.1605C20.4852 29.1907 20.6505 29.235 20.8111 29.2931C20.8952 29.3245 20.9845 29.3404 21.0744 29.3397C21.279 29.3391 21.4748 29.2581 21.6191 29.1146C21.7633 28.9711 21.8442 28.7768 21.8438 28.5744V23.1828H26.3257C26.3074 23.3463 26.2982 23.5106 26.298 23.675C26.291 24.2642 26.4022 24.8489 26.6251 25.3953C26.848 25.9417 27.1782 26.4388 27.5967 26.8579C28.0151 27.277 28.5134 27.6098 29.0627 27.8369C29.6119 28.064 30.2013 28.1809 30.7966 28.1809C31.3918 28.1809 31.9812 28.064 32.5305 27.8369C33.0797 27.6098 33.578 27.277 33.9964 26.8579C34.4149 26.4388 34.7451 25.9417 34.968 25.3953C35.1909 24.8489 35.3021 24.2642 35.2951 23.675C35.2952 23.5106 35.2861 23.3463 35.268 23.1828H39.4576ZM21.0738 1C25.1431 0.999261 29.1165 2.22277 32.4673 4.50833C35.8181 6.79388 38.3881 10.0335 39.8364 13.7978C41.2848 17.5621 41.5432 21.6732 40.5773 25.5862C39.6115 29.4992 37.467 33.0291 34.4282 35.7082C33.7877 36.2513 33.2766 36.9281 32.9317 37.6901C32.5869 38.452 32.4168 39.28 32.4337 40.1148V44.9986C32.4339 45.6273 32.3085 46.2498 32.0649 46.8304C31.8212 47.411 31.4639 47.9381 31.0137 48.3816C30.7135 48.6846 30.3723 48.9448 29.9998 49.155C29.8885 51.2694 28.9628 53.2612 27.413 54.7205C25.8633 56.1797 23.8074 56.9955 21.6685 57H20.4792C18.3402 56.9955 16.2844 56.1797 14.7346 54.7205C13.1849 53.2612 12.2591 51.2694 12.1478 49.155C11.7772 48.9421 11.4363 48.6821 11.1339 48.3816C10.6838 47.9381 10.3267 47.4109 10.0831 46.8303C9.83949 46.2498 9.71424 45.6272 9.71455 44.9986V40.1148C9.73137 39.2801 9.5613 38.4521 9.21657 37.6903C8.87183 36.9284 8.36097 36.2515 7.72066 35.7082C4.68263 33.0289 2.53882 29.4991 1.57334 25.5864C0.607853 21.6738 0.86628 17.5632 2.31437 13.7992C3.76246 10.0353 6.33184 6.79575 9.68201 4.51C13.0322 2.22425 17.0049 1.00018 21.0738 1Z" fill="#2E74CE"/>
<path fill-rule="evenodd" clip-rule="evenodd" d="M30.8868 43.9956H11.2609V44.9961C11.2614 45.8599 11.6082 46.6882 12.2252 47.299C12.8422 47.9099 13.6789 48.2534 14.5516 48.254H27.5948C28.4678 48.254 29.305 47.9108 29.9223 47.2999C30.5397 46.6889 30.8866 45.8602 30.8868 44.9961V43.9956ZM28.3906 49.72C28.1273 49.7607 27.8613 49.7815 27.5948 49.7822H14.5516C14.2855 49.7815 14.0199 49.7607 13.757 49.72C14.001 51.3137 14.8127 52.7685 16.0455 53.8217C17.2782 54.8749 18.8508 55.4571 20.4792 55.4631H21.6685C23.2969 55.4571 24.8694 54.8749 26.1022 53.8217C27.3349 52.7685 28.1466 51.3137 28.3906 49.72ZM21.8445 21.6516H27.2969C27.4206 21.6519 27.5425 21.6817 27.6522 21.7384C27.7619 21.7951 27.8563 21.8771 27.9274 21.9774C27.9985 22.0777 28.0442 22.1934 28.0607 22.3148C28.0772 22.4362 28.064 22.5598 28.0223 22.6751C27.9656 22.8354 27.922 23 27.8921 23.1673C27.8622 23.3349 27.8474 23.5048 27.8481 23.675C27.8814 24.4278 28.207 25.1387 28.7568 25.6597C29.3067 26.1807 30.0385 26.4715 30.7997 26.4715C31.5609 26.4715 32.2927 26.1807 32.8425 25.6597C33.3924 25.1387 33.7179 24.4278 33.7512 23.675C33.7521 23.5048 33.7376 23.3349 33.7079 23.1673C33.6821 23.0193 33.6443 22.8736 33.5947 22.7317C33.5522 22.6333 33.5298 22.5276 33.5287 22.4206C33.5289 22.2176 33.6105 22.0229 33.7556 21.8794C33.9007 21.7359 34.0974 21.6553 34.3025 21.6553H39.589C39.5997 21.3971 39.6053 21.1395 39.6053 20.8738C39.6071 16.1408 37.7599 11.5905 34.4501 8.17487C31.1403 4.7592 26.6243 2.74278 21.847 2.54747V8.36836C22.012 8.34615 22.1783 8.33575 22.3448 8.33724C22.9401 8.33028 23.5309 8.44033 24.083 8.66102C24.635 8.8817 25.1373 9.20864 25.5607 9.62288C25.9842 10.0371 26.3204 10.5304 26.5499 11.0742C26.7793 11.618 26.8975 12.2015 26.8975 12.7908C26.8975 13.3801 26.7793 13.9636 26.5499 14.5074C26.3204 15.0512 25.9842 15.5445 25.5607 15.9587C25.1373 16.373 24.635 16.6999 24.083 16.9206C23.5309 17.1413 22.9401 17.2513 22.3448 17.2444C22.177 17.2444 22.0098 17.2369 21.842 17.2213V21.6516H21.8445ZM2.56118 21.6516C2.55112 21.3933 2.54484 21.1357 2.54484 20.87C2.54335 16.1381 4.39038 11.5888 7.69955 8.1739C11.0087 4.75898 15.5237 2.74293 20.3 2.54747V9.3216C20.3004 9.52464 20.382 9.71928 20.527 9.86285C20.6721 10.0064 20.8687 10.0872 21.0738 10.0876C21.1819 10.0866 21.2887 10.0644 21.3881 10.0222C21.5327 9.97283 21.6814 9.93618 21.8325 9.91271C22.0019 9.8812 22.1738 9.86557 22.3461 9.86605C22.7434 9.85086 23.1396 9.9152 23.5112 10.0552C23.8828 10.1952 24.2219 10.408 24.5084 10.6809C24.7949 10.9538 25.0229 11.281 25.1785 11.6432C25.3342 12.0053 25.4145 12.3948 25.4145 12.7883C25.4145 13.1819 25.3342 13.5713 25.1785 13.9335C25.0229 14.2956 24.7949 14.6229 24.5084 14.8957C24.2219 15.1686 23.8828 15.3814 23.5112 15.5214C23.1396 15.6614 22.7434 15.7258 22.3461 15.7106C22.1742 15.7098 22.0025 15.6967 21.8325 15.6714C21.6641 15.6411 21.4986 15.5968 21.3378 15.5388C21.1451 15.4707 20.9329 15.4809 20.7478 15.5673C20.5627 15.6538 20.4197 15.8093 20.3503 15.9999C20.3143 16.0946 20.2987 16.1957 20.3044 16.2967V21.6478H15.8219C15.8402 21.4844 15.8495 21.3201 15.8496 21.1556C15.8566 20.5664 15.7455 19.9816 15.5225 19.4351C15.2996 18.8887 14.9693 18.3915 14.5508 17.9723C14.1323 17.5531 13.634 17.2204 13.0846 16.9932C12.5352 16.7661 11.9458 16.6491 11.3505 16.6491C10.7551 16.6491 10.1657 16.7661 9.61631 16.9932C9.06695 17.2204 8.5686 17.5531 8.15011 17.9723C7.73163 18.3915 7.40135 18.8887 7.1784 19.4351C6.95545 19.9816 6.84428 20.5664 6.85132 21.1556C6.85146 21.3201 6.86069 21.4844 6.87897 21.6478L2.56118 21.6516ZM20.3032 23.1828H14.8508C14.7218 23.1826 14.5949 23.1506 14.4816 23.0895C14.3683 23.0285 14.2722 22.9405 14.202 22.8334C14.1318 22.7263 14.0896 22.6036 14.0794 22.4763C14.0692 22.349 14.0913 22.2212 14.1436 22.1045C14.193 21.9626 14.2306 21.8169 14.2561 21.669C14.2854 21.5013 14.3002 21.3314 14.3001 21.1612C14.3165 20.7674 14.2524 20.3743 14.1114 20.0056C13.9705 19.6369 13.7557 19.3003 13.48 19.0158C13.2042 18.7314 12.8733 18.5051 12.5069 18.3505C12.1406 18.1959 11.7465 18.1162 11.3483 18.1162C10.95 18.1162 10.5559 18.1959 10.1896 18.3505C9.82324 18.5051 9.49227 18.7314 9.21655 19.0158C8.94082 19.3003 8.72603 19.6369 8.58509 20.0056C8.44415 20.3743 8.37997 20.7674 8.39639 21.1612C8.39646 21.3314 8.41097 21.5012 8.43976 21.669C8.46967 21.8362 8.51318 22.0008 8.56988 22.1612C8.61163 22.2764 8.62481 22.4 8.60833 22.5213C8.59186 22.6427 8.54619 22.7584 8.47519 22.8587C8.40418 22.9589 8.3099 23.0409 8.20026 23.0976C8.09062 23.1544 7.96883 23.1842 7.84512 23.1847H2.69067C2.91682 24.9764 3.41085 26.7249 4.15654 28.3728C5.23051 30.7345 6.79511 32.8457 8.7484 34.5689C9.54891 35.2578 10.1884 36.1108 10.6226 37.0687C11.0568 38.0267 11.2752 39.0667 11.2628 40.1166V42.4686H20.3032V36.4667C20.1378 36.4822 19.9706 36.4978 19.8003 36.4978C18.6163 36.4839 17.4855 36.0086 16.6531 35.1749C15.8208 34.3412 15.354 33.2163 15.354 32.0442C15.354 30.8721 15.8208 29.7472 16.6531 28.9135C17.4855 28.0798 18.6163 27.6045 19.8003 27.5907C19.9679 27.5907 20.1355 27.5983 20.3032 27.6137V23.1828ZM39.4576 23.1828C39.2317 24.9746 38.7377 26.7232 37.9917 28.3709C36.9187 30.7324 35.3552 32.8436 33.403 34.567C32.6027 35.2561 31.9633 36.1091 31.5291 37.067C31.095 38.025 30.8764 39.0649 30.8886 40.1148V42.4668H21.8445V35.5439C21.8507 35.4184 21.8254 35.2933 21.7708 35.1798C21.7162 35.0663 21.634 34.968 21.5316 34.8937C21.4292 34.8194 21.3098 34.7714 21.184 34.754C21.0583 34.7367 20.9301 34.7504 20.8111 34.7941C20.6502 34.8494 20.485 34.891 20.317 34.9186C20.1475 34.9506 19.9753 34.9665 19.8028 34.9659C19.4055 34.9811 19.0093 34.9167 18.6377 34.7767C18.2661 34.6367 17.9269 34.4239 17.6405 34.151C17.354 33.8782 17.126 33.5509 16.9704 33.1888C16.8147 32.8266 16.7344 32.4371 16.7344 32.0436C16.7344 31.6501 16.8147 31.2606 16.9704 30.8984C17.126 30.5363 17.354 30.209 17.6405 29.9362C17.9269 29.6633 18.2661 29.4505 18.6377 29.3105C19.0093 29.1705 19.4055 29.1061 19.8028 29.1213C19.9749 29.1221 20.1468 29.1352 20.317 29.1605C20.4852 29.1907 20.6505 29.235 20.8111 29.2931C20.8952 29.3245 20.9845 29.3404 21.0744 29.3397C21.279 29.3391 21.4748 29.2581 21.6191 29.1146C21.7633 28.9711 21.8442 28.7768 21.8438 28.5744V23.1828H26.3257C26.3074 23.3463 26.2982 23.5106 26.298 23.675C26.291 24.2642 26.4022 24.8489 26.6251 25.3953C26.848 25.9417 27.1782 26.4388 27.5967 26.8579C28.0151 27.277 28.5134 27.6098 29.0627 27.8369C29.6119 28.064 30.2013 28.1809 30.7966 28.1809C31.3918 28.1809 31.9812 28.064 32.5305 27.8369C33.0797 27.6098 33.578 27.277 33.9964 26.8579C34.4149 26.4388 34.7451 25.9417 34.968 25.3953C35.1909 24.8489 35.3021 24.2642 35.2951 23.675C35.2952 23.5106 35.2861 23.3463 35.268 23.1828H39.4576ZM21.0738 1C25.1431 0.999261 29.1165 2.22277 32.4673 4.50833C35.8181 6.79388 38.3881 10.0335 39.8364 13.7978C41.2848 17.5621 41.5432 21.6732 40.5773 25.5862C39.6115 29.4992 37.467 33.0291 34.4282 35.7082C33.7877 36.2513 33.2766 36.9281 32.9317 37.6901C32.5869 38.452 32.4168 39.28 32.4337 40.1148V44.9986C32.4339 45.6273 32.3085 46.2498 32.0649 46.8304C31.8212 47.411 31.4639 47.9381 31.0137 48.3816C30.7135 48.6846 30.3723 48.9448 29.9998 49.155C29.8885 51.2694 28.9628 53.2612 27.413 54.7205C25.8633 56.1797 23.8074 56.9955 21.6685 57H20.4792C18.3402 56.9955 16.2844 56.1797 14.7346 54.7205C13.1849 53.2612 12.2591 51.2694 12.1478 49.155C11.7772 48.9421 11.4363 48.6821 11.1339 48.3816C10.6838 47.9381 10.3267 47.4109 10.0831 46.8303C9.83949 46.2498 9.71424 45.6272 9.71455 44.9986V40.1148C9.73137 39.2801 9.5613 38.4521 9.21657 37.6903C8.87183 36.9284 8.36097 36.2515 7.72066 35.7082C4.68263 33.0289 2.53882 29.4991 1.57334 25.5864C0.607853 21.6738 0.86628 17.5632 2.31437 13.7992C3.76246 10.0353 6.33184 6.79575 9.68201 4.51C13.0322 2.22425 17.0049 1.00018 21.0738 1Z" stroke="#2E74CE" mask="url(#path-1-outside-1_199_184)"/>
</svg>
