<svg width="80" height="80" viewBox="0 0 80 80" fill="none" xmlns="http://www.w3.org/2000/svg">
<circle cx="40" cy="40" r="40" fill="#FCFAEE"/>
<mask id="path-2-outside-1_199_189" maskUnits="userSpaceOnUse" x="18" y="10" width="44" height="59" fill="black">
<rect fill="white" x="18" y="10" width="44" height="59"/>
<path fill-rule="evenodd" clip-rule="evenodd" d="M23.2225 57.2691C23.4315 56.9845 23.825 56.9177 24.1128 57.1181C24.4005 57.3186 24.4792 57.712 24.2874 58.0088L21.6608 61.8316C21.4592 62.1285 21.0559 62.2003 20.7607 61.9974C20.4681 61.792 20.3943 61.3887 20.5984 61.0918L23.225 57.269L23.2225 57.2691ZM27.5164 56.4427C27.7181 56.1458 28.1214 56.0715 28.414 56.2744C28.7092 56.4798 28.7829 56.8856 28.5788 57.18L25.9547 61.0052C25.8564 61.1487 25.7088 61.2502 25.5367 61.2823C25.367 61.3145 25.1924 61.2774 25.0497 61.1784C24.9071 61.0794 24.8087 60.926 24.7792 60.7553C24.7497 60.5846 24.789 60.4065 24.8899 60.2654L27.5164 56.4427ZM26.6286 63.1581V63.1556C26.8377 62.871 27.2311 62.8042 27.5189 63.0047C27.8066 63.2051 27.8853 63.601 27.6935 63.8954L25.067 67.7181C24.8653 68.015 24.462 68.0892 24.1693 67.8839C23.8742 67.681 23.8004 67.2752 24.0046 66.9808L26.6311 63.158L26.6286 63.1581ZM28.5936 49.7057L27.2017 51.7321L33.0744 55.8048L34.4664 53.7784L28.5985 49.7008L28.5936 49.7057ZM38.8658 51.3709L35.4351 52.8752L29.0952 48.4661L29.2797 44.7053L38.8658 51.3709ZM37.2574 25.8369L44.886 22.7812L44.8885 22.7788C43.5506 22.133 42.1709 21.5837 40.7544 21.1408C39.4559 22.6006 38.2877 24.1718 37.2622 25.837L37.2574 25.8369ZM36.4631 44.5871L41.9891 48.4296L40.3462 50.8222L29.2644 43.1225L30.9072 40.7299L36.4578 44.5897L36.4631 44.5871ZM53.5529 39.3293V39.3268C55.6064 36.8847 57.3132 34.168 58.624 31.2534C61.3858 25.0034 61.7399 18.4072 59.6864 11.4644V11.4669C59.6028 11.1725 59.3249 10.9795 59.0224 11.0017C52.0675 11.509 45.9782 14.0426 40.9932 19.0011V18.9986C38.7503 21.265 36.8271 23.8333 35.2827 26.6293L35.1229 26.6936H35.1253C30.7306 25.8499 26.208 27.2379 23.028 30.4025C19.8506 33.5671 18.4242 38.1022 19.2136 42.531C19.2505 42.8255 19.4792 43.058 19.7719 43.0952C20.0646 43.1347 20.3474 42.969 20.458 42.6943C22.059 38.6712 26.5128 36.6151 30.5879 38.018C30.4404 38.5203 30.2953 39.0275 30.1526 39.5421L27.836 42.9145H27.8384C27.7351 43.0605 27.6982 43.2411 27.7351 43.4168C27.7696 43.59 27.8753 43.7434 28.0253 43.8374L27.7917 48.5806L25.7702 51.5224C25.6743 51.6659 25.6374 51.8416 25.6669 52.0098C25.6989 52.1806 25.7948 52.3315 25.935 52.428L32.8679 57.2479C33.163 57.4507 33.5639 57.3765 33.768 57.0821L35.7895 54.1402L40.1178 52.2425H40.1154C40.258 52.3513 40.4351 52.3959 40.6097 52.3686C40.7843 52.339 40.9417 52.24 41.0425 52.094L43.3567 48.7241C43.7871 48.4099 44.2101 48.0932 44.6233 47.774H44.6208C47.3605 51.1167 47.0235 56.0279 43.856 58.96C43.6396 59.1629 43.5855 59.4845 43.7232 59.7468C43.8634 60.0091 44.1585 60.1427 44.4462 60.0734C48.8434 59.2544 52.5596 56.3076 54.379 52.1951C56.1964 48.0828 55.8866 43.3349 53.5478 39.4971V39.3214L53.5529 39.3293ZM53.7325 28.9648V28.9623C54.8022 29.9966 55.7933 31.11 56.6983 32.2902C55.8032 34.0123 54.7629 35.6527 53.5898 37.1942L53.7324 28.9599L53.7325 28.9648ZM49.6279 14.5966C52.4709 13.3521 55.5007 12.5899 58.5919 12.3401C59.4403 15.2968 59.8043 18.3747 59.6715 21.4504C57.4679 21.6458 55.2669 21.0718 53.4347 19.8223C51.6051 18.5753 50.26 16.7269 49.6279 14.5966ZM48.4647 30.6225C48.6713 31.7532 48.1794 32.8988 47.2178 33.5223C46.2587 34.1458 45.0192 34.126 44.0773 33.4728C43.1378 32.8196 42.6804 31.6591 42.9214 30.5334C43.1624 29.4101 44.0527 28.5416 45.1766 28.3362C45.9144 28.1977 46.6767 28.361 47.294 28.7915C47.9113 29.2195 48.3318 29.8777 48.4647 30.6225ZM48.0245 27.7226C49.6427 28.8459 50.2452 30.9639 49.4656 32.7776C48.6836 34.5937 46.7383 35.6007 44.8176 35.185C42.8944 34.7693 41.5319 33.0473 41.5639 31.0703C41.5934 29.0934 43.0075 27.4109 44.9405 27.0547C46.0152 26.8567 47.1244 27.0966 48.0245 27.7226ZM40.6294 37.3745L33.8293 32.6487C32.9194 34.9028 32.1398 37.2063 31.4955 39.5497L36.6624 43.1448L40.6294 37.3745ZM48.4695 42.8253L41.6915 38.1143L37.7295 43.8819L42.8793 47.4621H42.8768C44.8271 46.027 46.6937 44.4781 48.4668 42.8278L48.4695 42.8253ZM45.6487 46.9747V46.9771C48.1474 45.0051 50.4738 42.8179 52.5986 40.4429C54.4209 43.6099 54.7579 47.4275 53.5134 50.8669C52.269 54.3061 49.5737 57.0154 46.1549 58.2651C47.2862 56.5776 47.8494 54.5686 47.7584 52.5347C47.6649 50.5009 46.9247 48.5536 45.6459 46.9776L45.6487 46.9747ZM34.3434 31.4264C34.8992 30.1546 35.4894 28.9447 36.114 27.7991L36.1878 27.663L46.6671 23.4642H46.6696C46.9057 23.3702 47.068 23.1475 47.0852 22.8927C47.1024 22.6353 46.9696 22.3929 46.7483 22.2691C45.1424 21.4031 43.4652 20.6757 41.7388 20.0918C43.6964 18.0951 45.9613 16.4274 48.4475 15.1581C49.1878 17.4963 50.6855 19.5153 52.7045 20.8934C54.7211 22.2716 57.1411 22.9297 59.5732 22.759C59.2781 25.6069 58.5206 28.3855 57.3279 30.9832C56.1843 29.5654 54.9277 28.2442 53.5676 27.0343C53.3807 26.8537 53.1077 26.7992 52.8667 26.8982C52.6282 26.9972 52.4683 27.2298 52.4634 27.492L52.2667 38.8389L52.1634 38.9601C51.3199 39.9523 50.405 40.9321 49.4212 41.9045L34.3434 31.4264ZM34.5819 27.9203V27.9179C33.126 30.7608 31.916 33.7225 30.9692 36.7729C29.051 36.1271 26.9778 36.1172 25.0546 36.7506C23.1315 37.3841 21.4616 38.6236 20.2935 40.2863C20.2443 36.6245 21.8109 33.1307 24.5677 30.7434C27.327 28.3558 30.9963 27.3215 34.5843 27.9178L34.5819 27.9203Z"/>
</mask>
<path fill-rule="evenodd" clip-rule="evenodd" d="M23.2225 57.2691C23.4315 56.9845 23.825 56.9177 24.1128 57.1181C24.4005 57.3186 24.4792 57.712 24.2874 58.0088L21.6608 61.8316C21.4592 62.1285 21.0559 62.2003 20.7607 61.9974C20.4681 61.792 20.3943 61.3887 20.5984 61.0918L23.225 57.269L23.2225 57.2691ZM27.5164 56.4427C27.7181 56.1458 28.1214 56.0715 28.414 56.2744C28.7092 56.4798 28.7829 56.8856 28.5788 57.18L25.9547 61.0052C25.8564 61.1487 25.7088 61.2502 25.5367 61.2823C25.367 61.3145 25.1924 61.2774 25.0497 61.1784C24.9071 61.0794 24.8087 60.926 24.7792 60.7553C24.7497 60.5846 24.789 60.4065 24.8899 60.2654L27.5164 56.4427ZM26.6286 63.1581V63.1556C26.8377 62.871 27.2311 62.8042 27.5189 63.0047C27.8066 63.2051 27.8853 63.601 27.6935 63.8954L25.067 67.7181C24.8653 68.015 24.462 68.0892 24.1693 67.8839C23.8742 67.681 23.8004 67.2752 24.0046 66.9808L26.6311 63.158L26.6286 63.1581ZM28.5936 49.7057L27.2017 51.7321L33.0744 55.8048L34.4664 53.7784L28.5985 49.7008L28.5936 49.7057ZM38.8658 51.3709L35.4351 52.8752L29.0952 48.4661L29.2797 44.7053L38.8658 51.3709ZM37.2574 25.8369L44.886 22.7812L44.8885 22.7788C43.5506 22.133 42.1709 21.5837 40.7544 21.1408C39.4559 22.6006 38.2877 24.1718 37.2622 25.837L37.2574 25.8369ZM36.4631 44.5871L41.9891 48.4296L40.3462 50.8222L29.2644 43.1225L30.9072 40.7299L36.4578 44.5897L36.4631 44.5871ZM53.5529 39.3293V39.3268C55.6064 36.8847 57.3132 34.168 58.624 31.2534C61.3858 25.0034 61.7399 18.4072 59.6864 11.4644V11.4669C59.6028 11.1725 59.3249 10.9795 59.0224 11.0017C52.0675 11.509 45.9782 14.0426 40.9932 19.0011V18.9986C38.7503 21.265 36.8271 23.8333 35.2827 26.6293L35.1229 26.6936H35.1253C30.7306 25.8499 26.208 27.2379 23.028 30.4025C19.8506 33.5671 18.4242 38.1022 19.2136 42.531C19.2505 42.8255 19.4792 43.058 19.7719 43.0952C20.0646 43.1347 20.3474 42.969 20.458 42.6943C22.059 38.6712 26.5128 36.6151 30.5879 38.018C30.4404 38.5203 30.2953 39.0275 30.1526 39.5421L27.836 42.9145H27.8384C27.7351 43.0605 27.6982 43.2411 27.7351 43.4168C27.7696 43.59 27.8753 43.7434 28.0253 43.8374L27.7917 48.5806L25.7702 51.5224C25.6743 51.6659 25.6374 51.8416 25.6669 52.0098C25.6989 52.1806 25.7948 52.3315 25.935 52.428L32.8679 57.2479C33.163 57.4507 33.5639 57.3765 33.768 57.0821L35.7895 54.1402L40.1178 52.2425H40.1154C40.258 52.3513 40.4351 52.3959 40.6097 52.3686C40.7843 52.339 40.9417 52.24 41.0425 52.094L43.3567 48.7241C43.7871 48.4099 44.2101 48.0932 44.6233 47.774H44.6208C47.3605 51.1167 47.0235 56.0279 43.856 58.96C43.6396 59.1629 43.5855 59.4845 43.7232 59.7468C43.8634 60.0091 44.1585 60.1427 44.4462 60.0734C48.8434 59.2544 52.5596 56.3076 54.379 52.1951C56.1964 48.0828 55.8866 43.3349 53.5478 39.4971V39.3214L53.5529 39.3293ZM53.7325 28.9648V28.9623C54.8022 29.9966 55.7933 31.11 56.6983 32.2902C55.8032 34.0123 54.7629 35.6527 53.5898 37.1942L53.7324 28.9599L53.7325 28.9648ZM49.6279 14.5966C52.4709 13.3521 55.5007 12.5899 58.5919 12.3401C59.4403 15.2968 59.8043 18.3747 59.6715 21.4504C57.4679 21.6458 55.2669 21.0718 53.4347 19.8223C51.6051 18.5753 50.26 16.7269 49.6279 14.5966ZM48.4647 30.6225C48.6713 31.7532 48.1794 32.8988 47.2178 33.5223C46.2587 34.1458 45.0192 34.126 44.0773 33.4728C43.1378 32.8196 42.6804 31.6591 42.9214 30.5334C43.1624 29.4101 44.0527 28.5416 45.1766 28.3362C45.9144 28.1977 46.6767 28.361 47.294 28.7915C47.9113 29.2195 48.3318 29.8777 48.4647 30.6225ZM48.0245 27.7226C49.6427 28.8459 50.2452 30.9639 49.4656 32.7776C48.6836 34.5937 46.7383 35.6007 44.8176 35.185C42.8944 34.7693 41.5319 33.0473 41.5639 31.0703C41.5934 29.0934 43.0075 27.4109 44.9405 27.0547C46.0152 26.8567 47.1244 27.0966 48.0245 27.7226ZM40.6294 37.3745L33.8293 32.6487C32.9194 34.9028 32.1398 37.2063 31.4955 39.5497L36.6624 43.1448L40.6294 37.3745ZM48.4695 42.8253L41.6915 38.1143L37.7295 43.8819L42.8793 47.4621H42.8768C44.8271 46.027 46.6937 44.4781 48.4668 42.8278L48.4695 42.8253ZM45.6487 46.9747V46.9771C48.1474 45.0051 50.4738 42.8179 52.5986 40.4429C54.4209 43.6099 54.7579 47.4275 53.5134 50.8669C52.269 54.3061 49.5737 57.0154 46.1549 58.2651C47.2862 56.5776 47.8494 54.5686 47.7584 52.5347C47.6649 50.5009 46.9247 48.5536 45.6459 46.9776L45.6487 46.9747ZM34.3434 31.4264C34.8992 30.1546 35.4894 28.9447 36.114 27.7991L36.1878 27.663L46.6671 23.4642H46.6696C46.9057 23.3702 47.068 23.1475 47.0852 22.8927C47.1024 22.6353 46.9696 22.3929 46.7483 22.2691C45.1424 21.4031 43.4652 20.6757 41.7388 20.0918C43.6964 18.0951 45.9613 16.4274 48.4475 15.1581C49.1878 17.4963 50.6855 19.5153 52.7045 20.8934C54.7211 22.2716 57.1411 22.9297 59.5732 22.759C59.2781 25.6069 58.5206 28.3855 57.3279 30.9832C56.1843 29.5654 54.9277 28.2442 53.5676 27.0343C53.3807 26.8537 53.1077 26.7992 52.8667 26.8982C52.6282 26.9972 52.4683 27.2298 52.4634 27.492L52.2667 38.8389L52.1634 38.9601C51.3199 39.9523 50.405 40.9321 49.4212 41.9045L34.3434 31.4264ZM34.5819 27.9203V27.9179C33.126 30.7608 31.916 33.7225 30.9692 36.7729C29.051 36.1271 26.9778 36.1172 25.0546 36.7506C23.1315 37.3841 21.4616 38.6236 20.2935 40.2863C20.2443 36.6245 21.8109 33.1307 24.5677 30.7434C27.327 28.3558 30.9963 27.3215 34.5843 27.9178L34.5819 27.9203Z" fill="#2E74CE"/>
<path d="M27.5139 56.6927H27.5164V56.1927H27.5139V56.6927ZM48.4671 30.3725H48.4647V30.8725H48.4671V30.3725ZM48.0269 27.4726H48.0245V27.9726H48.0269V27.4726ZM23.2225 57.2691L22.8195 56.973L22.2232 57.7847L23.2303 57.769L23.2225 57.2691ZM24.1128 57.1181L24.3985 56.7079L24.3985 56.7078L24.1128 57.1181ZM24.2874 58.0088L24.6995 58.292L24.7035 58.2861L24.7073 58.2802L24.2874 58.0088ZM21.6608 61.8316L21.2487 61.5484L21.2472 61.5507L21.6608 61.8316ZM20.7607 61.9974L20.4735 62.4067L20.4775 62.4094L20.7607 61.9974ZM20.5984 61.0918L21.0104 61.375L21.0105 61.3749L20.5984 61.0918ZM23.225 57.269L23.6371 57.5522L24.1855 56.754L23.2171 56.7691L23.225 57.269ZM27.5164 56.4427L27.9285 56.7258L27.93 56.7236L27.5164 56.4427ZM28.414 56.2744L28.6996 55.864L28.6989 55.8635L28.414 56.2744ZM28.5788 57.18L28.1679 56.8951L28.1665 56.8972L28.5788 57.18ZM25.9547 61.0052L25.5424 60.7224L25.5423 60.7225L25.9547 61.0052ZM25.5367 61.2823L25.4448 60.7908L25.4435 60.7911L25.5367 61.2823ZM25.0497 61.1784L24.7647 61.5892L24.7647 61.5892L25.0497 61.1784ZM24.8899 60.2654L25.2967 60.5563L25.302 60.5486L24.8899 60.2654ZM26.6286 63.1581H26.1286V63.6669L26.6374 63.658L26.6286 63.1581ZM26.6286 63.1556L26.2257 62.8596L26.1286 62.9917V63.1556H26.6286ZM27.5189 63.0047L27.8047 62.5944L27.8047 62.5944L27.5189 63.0047ZM27.6935 63.8954L28.1057 64.1786L28.1124 64.1683L27.6935 63.8954ZM25.067 67.7181L24.6549 67.435L24.6534 67.4372L25.067 67.7181ZM24.1693 67.8839L24.4565 67.4746L24.4526 67.4719L24.1693 67.8839ZM24.0046 66.9808L24.4155 67.2656L24.4167 67.2639L24.0046 66.9808ZM26.6311 63.158L27.0432 63.4412L27.593 62.641L26.6223 62.6581L26.6311 63.158ZM28.5936 49.7057L28.2388 49.3534L28.207 49.3854L28.1815 49.4226L28.5936 49.7057ZM27.2017 51.7321L26.7895 51.449L26.5077 51.8593L26.9167 52.143L27.2017 51.7321ZM33.0744 55.8048L32.7895 56.2156L33.2022 56.5018L33.4866 56.0879L33.0744 55.8048ZM34.4664 53.7784L34.8785 54.0614L35.1601 53.6515L34.7517 53.3678L34.4664 53.7784ZM28.5985 49.7008L28.8838 49.2902L28.5394 49.0508L28.2438 49.3484L28.5985 49.7008ZM38.8658 51.3709L39.0666 51.8288L39.8844 51.4702L39.1512 50.9604L38.8658 51.3709ZM35.4351 52.8752L35.1496 53.2857L35.3795 53.4456L35.6359 53.3332L35.4351 52.8752ZM29.0952 48.4661L28.5958 48.4417L28.5823 48.7184L28.8098 48.8766L29.0952 48.4661ZM29.2797 44.7053L29.5651 44.2948L28.8245 43.7798L28.7803 44.6808L29.2797 44.7053ZM37.2574 25.8369L37.0715 25.3728L37.2512 26.3369L37.2574 25.8369ZM44.886 22.7812L45.0719 23.2454L45.1678 23.207L45.2406 23.1337L44.886 22.7812ZM44.8885 22.7788L45.2431 23.1312L45.7378 22.6335L45.1058 22.3285L44.8885 22.7788ZM40.7544 21.1408L40.9036 20.6636L40.5954 20.5673L40.3808 20.8085L40.7544 21.1408ZM37.2622 25.837L37.256 26.3369L37.5393 26.3404L37.6879 26.0992L37.2622 25.837ZM36.4631 44.5871L36.7485 44.1766L36.5029 44.0058L36.2362 44.1415L36.4631 44.5871ZM41.9891 48.4296L42.4012 48.7126L42.6826 48.3029L42.2745 48.0191L41.9891 48.4296ZM40.3462 50.8222L40.0609 51.2328L40.4738 51.5197L40.7584 51.1052L40.3462 50.8222ZM29.2644 43.1225L28.8522 42.8394L28.5708 43.2493L28.9791 43.5331L29.2644 43.1225ZM30.9072 40.7299L31.1927 40.3194L30.7797 40.0322L30.495 40.4469L30.9072 40.7299ZM36.4578 44.5897L36.1724 45.0003L36.418 45.1711L36.6847 45.0353L36.4578 44.5897ZM53.5529 39.3293L53.1347 39.6033L54.0529 41.005V39.3293H53.5529ZM53.5529 39.3268L53.1703 39.005L53.0529 39.1445V39.3268H53.5529ZM58.624 31.2534L59.08 31.4585L59.0813 31.4555L58.624 31.2534ZM59.6864 11.4644L60.1659 11.3226L59.1864 11.4644H59.6864ZM59.6864 11.4669L59.2054 11.6035L60.1864 11.4669H59.6864ZM59.0224 11.0017L59.0588 11.5004L59.0591 11.5004L59.0224 11.0017ZM40.9932 19.0011H40.4932V20.2036L41.3458 19.3556L40.9932 19.0011ZM40.9932 18.9986H41.4932V17.7825L40.6378 18.6469L40.9932 18.9986ZM35.2827 26.6293L35.4694 27.0931L35.6344 27.0267L35.7204 26.871L35.2827 26.6293ZM35.1229 26.6936L34.9362 26.2297L35.1229 27.1936V26.6936ZM35.1253 26.6936V27.1936L35.2196 26.2026L35.1253 26.6936ZM23.028 30.4025L22.6753 30.0481L22.6752 30.0482L23.028 30.4025ZM19.2136 42.531L19.7098 42.4689L19.7082 42.456L19.7059 42.4433L19.2136 42.531ZM19.7719 43.0952L19.8389 42.5997L19.8348 42.5991L19.7719 43.0952ZM20.458 42.6943L20.9218 42.8812L20.9226 42.8792L20.458 42.6943ZM30.5879 38.018L31.0676 38.1589L31.2023 37.7007L30.7507 37.5452L30.5879 38.018ZM30.1526 39.5421L30.5647 39.8252L30.6121 39.7563L30.6345 39.6757L30.1526 39.5421ZM27.836 42.9145L27.4238 42.6314L26.8859 43.4145H27.836V42.9145ZM27.8384 42.9145L28.2466 43.2033L28.8047 42.4145H27.8384V42.9145ZM27.7351 43.4168L28.2256 43.3193L28.2245 43.314L27.7351 43.4168ZM28.0253 43.8374L28.5247 43.862L28.5391 43.5693L28.2909 43.4137L28.0253 43.8374ZM27.7917 48.5806L28.2038 48.8637L28.2841 48.7468L28.2911 48.6052L27.7917 48.5806ZM25.7702 51.5224L25.3581 51.2392L25.3545 51.2446L25.7702 51.5224ZM25.6669 52.0098L25.1744 52.0962L25.1754 52.1019L25.6669 52.0098ZM25.935 52.428L26.2204 52.0175L26.2185 52.0162L25.935 52.428ZM32.8679 57.2479L32.5825 57.6584L32.5846 57.6599L32.8679 57.2479ZM33.768 57.0821L34.1789 57.3669L34.1801 57.3652L33.768 57.0821ZM35.7895 54.1402L35.5887 53.6823L35.4581 53.7395L35.3774 53.8571L35.7895 54.1402ZM40.1178 52.2425L40.3186 52.7004L40.1178 51.7425V52.2425ZM40.1154 52.2425V51.7425H38.6362L39.812 52.6399L40.1154 52.2425ZM40.6097 52.3686L40.6867 52.8627L40.6935 52.8616L40.6097 52.3686ZM41.0425 52.094L41.4539 52.3782L41.4547 52.3771L41.0425 52.094ZM43.3567 48.7241L43.0619 48.3203L42.9929 48.3706L42.9446 48.441L43.3567 48.7241ZM44.6233 47.774L44.9289 48.1696L46.0882 47.274H44.6233V47.774ZM44.6208 47.774V47.274H43.5645L44.2341 48.0909L44.6208 47.774ZM43.856 58.96L43.5163 58.593L43.514 58.5952L43.856 58.96ZM43.7232 59.7468L43.2805 59.9792L43.2822 59.9825L43.7232 59.7468ZM44.4462 60.0734L44.3546 59.5818L44.3418 59.5842L44.3291 59.5873L44.4462 60.0734ZM54.379 52.1951L54.8363 52.3974L54.8364 52.3972L54.379 52.1951ZM53.5478 39.4971H53.0478V39.6375L53.1208 39.7573L53.5478 39.4971ZM53.5478 39.3214L53.966 39.0474L53.0478 37.6457V39.3214H53.5478ZM53.7325 28.9648L53.2325 28.9673L54.2325 28.9648H53.7325ZM53.7325 28.9623L54.08 28.6029L53.2325 27.7835V28.9623H53.7325ZM56.6983 32.2902L57.142 32.5208L57.2888 32.2385L57.0951 31.986L56.6983 32.2902ZM53.5898 37.1942L53.0899 37.1855L53.0634 38.7115L53.9877 37.497L53.5898 37.1942ZM53.7324 28.9599L54.2324 28.9574L53.2325 28.9512L53.7324 28.9599ZM49.6279 14.5966L49.4274 14.1385L49.023 14.3156L49.1486 14.7388L49.6279 14.5966ZM58.5919 12.3401L59.0725 12.2021L58.9596 11.8087L58.5516 11.8417L58.5919 12.3401ZM59.6715 21.4504L59.7156 21.9484L60.1521 21.9097L60.171 21.472L59.6715 21.4504ZM53.4347 19.8223L53.7165 19.4092L53.7163 19.4092L53.4347 19.8223ZM48.4647 30.6225L47.9724 30.7102L47.9728 30.7123L48.4647 30.6225ZM47.2178 33.5223L46.9458 33.1027L46.9453 33.1031L47.2178 33.5223ZM44.0773 33.4728L43.7918 33.8833L43.7923 33.8836L44.0773 33.4728ZM42.9214 30.5334L42.4326 30.4285L42.4325 30.4287L42.9214 30.5334ZM45.1766 28.3362L45.2665 28.8281L45.2689 28.8276L45.1766 28.3362ZM47.294 28.7915L47.008 29.2016L47.0091 29.2024L47.294 28.7915ZM48.0245 27.7226L47.739 28.1331L47.7393 28.1334L48.0245 27.7226ZM49.4656 32.7776L49.9249 32.9753L49.925 32.975L49.4656 32.7776ZM44.8176 35.185L44.9233 34.6963L44.9232 34.6963L44.8176 35.185ZM41.5639 31.0703L42.0639 31.0784L42.0639 31.0778L41.5639 31.0703ZM44.9405 27.0547L44.85 26.5629L44.8499 26.5629L44.9405 27.0547ZM40.6294 37.3745L41.0414 37.6578L41.3232 37.2478L40.9147 36.9639L40.6294 37.3745ZM33.8293 32.6487L34.1147 32.2381L33.6002 31.8806L33.3657 32.4616L33.8293 32.6487ZM31.4955 39.5497L31.0134 39.4172L30.9196 39.7582L31.2099 39.9601L31.4955 39.5497ZM36.6624 43.1448L36.3768 43.5552L36.7896 43.8424L37.0744 43.4281L36.6624 43.1448ZM48.4695 42.8253L48.8064 43.1948L49.2696 42.7725L48.7549 42.4148L48.4695 42.8253ZM41.6915 38.1143L41.9768 37.7038L41.564 37.4168L41.2793 37.8312L41.6915 38.1143ZM37.7295 43.8819L37.3174 43.5987L37.0359 44.0086L37.4441 44.2924L37.7295 43.8819ZM42.8793 47.4621V47.9621H44.4744L43.1647 47.0515L42.8793 47.4621ZM42.8768 47.4621L42.5805 47.0593L41.3537 47.9621H42.8768V47.4621ZM48.4668 42.8278L48.1299 42.4583L48.1261 42.4618L48.4668 42.8278ZM45.6487 46.9747H46.1487V45.7419L45.29 46.6264L45.6487 46.9747ZM45.6487 46.9771H45.1487V48.0087L45.9584 47.3696L45.6487 46.9771ZM52.5986 40.4429L53.032 40.1935L52.6871 39.5941L52.226 40.1095L52.5986 40.4429ZM53.5134 50.8669L53.9836 51.037L53.9836 51.037L53.5134 50.8669ZM46.1549 58.2651L45.7396 57.9867L44.8848 59.2618L46.3266 58.7347L46.1549 58.2651ZM47.7584 52.5347L48.2579 52.5124L48.2579 52.5118L47.7584 52.5347ZM45.6459 46.9776L45.2871 46.6293L44.9778 46.9478L45.2576 47.2926L45.6459 46.9776ZM34.3434 31.4264L33.8852 31.2261L33.7207 31.6025L34.058 31.837L34.3434 31.4264ZM36.114 27.7991L36.553 28.0385L36.5536 28.0374L36.114 27.7991ZM36.1878 27.663L36.0019 27.1989L35.8343 27.266L35.7483 27.4247L36.1878 27.663ZM46.6671 23.4642V22.9642H46.5707L46.4812 23.0001L46.6671 23.4642ZM46.6696 23.4642V23.9642H46.7655L46.8546 23.9287L46.6696 23.4642ZM47.0852 22.8927L47.5841 22.9264L47.5841 22.926L47.0852 22.8927ZM46.7483 22.2691L46.9923 21.8326L46.9856 21.8291L46.7483 22.2691ZM41.7388 20.0918L41.3817 19.7418L40.8243 20.3103L41.5786 20.5654L41.7388 20.0918ZM48.4475 15.1581L48.9242 15.0072L48.746 14.4443L48.2202 14.7128L48.4475 15.1581ZM52.7045 20.8934L52.9867 20.4806L52.9864 20.4805L52.7045 20.8934ZM59.5732 22.759L60.0706 22.8106L60.1319 22.2186L59.5382 22.2603L59.5732 22.759ZM57.3279 30.9832L56.9387 31.2971L57.4455 31.9254L57.7823 31.1918L57.3279 30.9832ZM53.5676 27.0343L53.2202 27.3938L53.2276 27.401L53.2353 27.4078L53.5676 27.0343ZM52.8667 26.8982L52.6768 26.4357L52.6751 26.4364L52.8667 26.8982ZM52.4634 27.492L51.9635 27.4826L51.9635 27.4834L52.4634 27.492ZM52.2667 38.8389L52.6473 39.1632L52.7635 39.0267L52.7666 38.8476L52.2667 38.8389ZM52.1634 38.9601L51.7828 38.6359L51.7824 38.6363L52.1634 38.9601ZM49.4212 41.9045L49.1359 42.3151L49.4772 42.5522L49.7727 42.2601L49.4212 41.9045ZM34.5819 27.9203H34.0819V29.1699L34.9439 28.2652L34.5819 27.9203ZM34.5819 27.9179H35.0819L34.1369 27.6899L34.5819 27.9179ZM30.9692 36.7729L30.8097 37.2468L31.295 37.4101L31.4467 36.9211L30.9692 36.7729ZM25.0546 36.7506L25.2111 37.2255L25.2111 37.2255L25.0546 36.7506ZM20.2935 40.2863L19.7935 40.293L19.8143 41.8381L20.7026 40.5738L20.2935 40.2863ZM24.5677 30.7434L24.2406 30.3653L24.2404 30.3654L24.5677 30.7434ZM34.5843 27.9178L34.9463 28.2627L35.5974 27.5793L34.6663 27.4246L34.5843 27.9178ZM23.6254 57.5651C23.6759 57.4964 23.7645 57.4849 23.827 57.5284L24.3985 56.7078C23.8855 56.3505 23.1872 56.4726 22.8195 56.973L23.6254 57.5651ZM23.827 57.5284C23.894 57.5751 23.9128 57.6672 23.8674 57.7375L24.7073 58.2802C25.0456 57.7568 24.907 57.062 24.3985 56.7079L23.827 57.5284ZM23.8753 57.7257L21.2487 61.5484L22.0729 62.1147L24.6995 58.292L23.8753 57.7257ZM21.2472 61.5507C21.2043 61.6138 21.1151 61.6342 21.044 61.5853L20.4775 62.4094C20.9966 62.7663 21.714 62.6432 22.0745 62.1125L21.2472 61.5507ZM21.0479 61.5881C20.9797 61.5402 20.9618 61.4458 21.0104 61.375L20.1864 60.8085C19.8268 61.3316 19.9565 62.0438 20.4735 62.4067L21.0479 61.5881ZM21.0105 61.3749L23.6371 57.5522L22.8129 56.9859L20.1863 60.8086L21.0105 61.3749ZM23.2171 56.7691L23.2147 56.7691L23.2303 57.769L23.2328 57.769L23.2171 56.7691ZM27.93 56.7236C27.9756 56.6564 28.0652 56.641 28.1292 56.6853L28.6989 55.8635C28.1776 55.5021 27.4605 55.6351 27.1028 56.1617L27.93 56.7236ZM28.1284 56.6848C28.1984 56.7335 28.214 56.8286 28.1679 56.8951L28.9897 57.4649C29.3518 56.9425 29.2199 56.226 28.6996 55.864L28.1284 56.6848ZM28.1665 56.8972L25.5424 60.7224L26.367 61.2881L28.9911 57.4628L28.1665 56.8972ZM25.5423 60.7225C25.5137 60.7642 25.4779 60.7847 25.4448 60.7908L25.6285 61.7738C25.9397 61.7157 26.199 61.5332 26.3671 61.2879L25.5423 60.7225ZM25.4435 60.7911C25.4059 60.7982 25.3675 60.7903 25.3348 60.7676L24.7647 61.5892C25.0172 61.7645 25.3281 61.8308 25.6298 61.7736L25.4435 60.7911ZM25.3348 60.7676C25.3012 60.7444 25.2784 60.7078 25.2719 60.6701L24.2865 60.8405C24.339 61.1443 24.5129 61.4145 24.7647 61.5892L25.3348 60.7676ZM25.2719 60.6701C25.2647 60.6284 25.2752 60.5862 25.2966 60.5562L24.4831 59.9746C24.3029 60.2267 24.2347 60.5408 24.2865 60.8405L25.2719 60.6701ZM25.302 60.5486L27.9285 56.7258L27.1043 56.1595L24.4778 59.9823L25.302 60.5486ZM27.1286 63.1581V63.1556H26.1286V63.1581H27.1286ZM27.0316 63.4516C27.082 63.383 27.1707 63.3715 27.2331 63.415L27.8047 62.5944C27.2916 62.237 26.5933 62.3591 26.2257 62.8596L27.0316 63.4516ZM27.2331 63.4149C27.3007 63.462 27.318 63.5558 27.2746 63.6224L28.1124 64.1683C28.4527 63.6461 28.3126 62.9482 27.8047 62.5944L27.2331 63.4149ZM27.2814 63.6122L24.6549 67.435L25.4791 68.0013L28.1056 64.1785L27.2814 63.6122ZM24.6534 67.4372C24.6078 67.5042 24.5197 67.5189 24.4565 67.4746L23.8821 68.2932C24.4043 68.6596 25.1228 68.5258 25.4806 67.999L24.6534 67.4372ZM24.4526 67.4719C24.3864 67.4263 24.3686 67.3332 24.4155 67.2656L23.5936 66.6959C23.2322 67.2172 23.3621 67.9357 23.8861 68.2959L24.4526 67.4719ZM24.4167 67.2639L27.0432 63.4412L26.219 62.8749L23.5925 66.6976L24.4167 67.2639ZM26.6223 62.6581L26.6198 62.6581L26.6374 63.658L26.6399 63.6579L26.6223 62.6581ZM28.1815 49.4226L26.7895 51.449L27.6138 52.0152L29.0057 49.9888L28.1815 49.4226ZM26.9167 52.143L32.7895 56.2156L33.3594 55.3939L27.4866 51.3213L26.9167 52.143ZM33.4866 56.0879L34.8785 54.0614L34.0542 53.4953L32.6623 55.5217L33.4866 56.0879ZM34.7517 53.3678L28.8838 49.2902L28.3132 50.1114L34.181 54.1889L34.7517 53.3678ZM28.2438 49.3484L28.2388 49.3534L28.9483 50.0581L28.9533 50.0531L28.2438 49.3484ZM38.665 50.913L35.2343 52.4173L35.6359 53.3332L39.0666 51.8288L38.665 50.913ZM35.7206 52.4648L29.3807 48.0557L28.8098 48.8766L35.1496 53.2857L35.7206 52.4648ZM29.5946 48.4906L29.7791 44.7298L28.7803 44.6808L28.5958 48.4417L29.5946 48.4906ZM28.9942 45.1158L38.5803 51.7814L39.1512 50.9604L29.5651 44.2948L28.9942 45.1158ZM37.4433 26.3011L45.0719 23.2454L44.7001 22.3171L37.0715 25.3728L37.4433 26.3011ZM45.2406 23.1337L45.2431 23.1312L44.5338 22.4263L44.5314 22.4288L45.2406 23.1337ZM45.1058 22.3285C43.7467 21.6725 42.3443 21.114 40.9036 20.6636L40.6052 21.618C41.9976 22.0534 43.3545 22.5935 44.6711 23.229L45.1058 22.3285ZM40.3808 20.8085C39.0629 22.2902 37.8772 23.8848 36.8365 25.5748L37.6879 26.0992C38.6982 24.4588 39.8489 22.9111 41.128 21.4731L40.3808 20.8085ZM37.2684 25.337L37.2636 25.337L37.2512 26.3369L37.256 26.3369L37.2684 25.337ZM36.1776 44.9976L41.7036 48.8401L42.2745 48.0191L36.7485 44.1766L36.1776 44.9976ZM41.5769 48.1466L39.934 50.5392L40.7584 51.1052L42.4012 48.7126L41.5769 48.1466ZM40.6315 50.4116L29.5497 42.7118L28.9791 43.5331L40.0609 51.2328L40.6315 50.4116ZM29.6766 43.4055L31.3194 41.0129L30.495 40.4469L28.8522 42.8394L29.6766 43.4055ZM30.6218 41.1404L36.1724 45.0003L36.7433 44.1792L31.1927 40.3194L30.6218 41.1404ZM36.6847 45.0353L36.6899 45.0327L36.2362 44.1415L36.231 44.1442L36.6847 45.0353ZM54.0529 39.3293V39.3268H53.0529V39.3293H54.0529ZM53.9356 39.6486C56.0189 37.1711 57.7503 34.4152 59.08 31.4585L58.168 31.0483C56.8761 33.9209 55.194 36.5983 53.1703 39.005L53.9356 39.6486ZM59.0813 31.4555C61.894 25.0903 62.2508 18.3717 60.1659 11.3226L59.2069 11.6062C61.229 18.4427 60.8775 24.9165 58.1667 31.0513L59.0813 31.4555ZM59.1864 11.4644V11.4669H60.1864V11.4644H59.1864ZM60.1674 11.3303C60.0189 10.8073 59.5244 10.4634 58.9857 10.5031L59.0591 11.5004C59.1254 11.4955 59.1867 11.5376 59.2054 11.6035L60.1674 11.3303ZM58.986 10.5031C51.9234 11.0181 45.7183 13.5959 40.6406 18.6466L41.3458 19.3556C46.2381 14.4893 52.2115 11.9998 59.0588 11.5004L58.986 10.5031ZM41.4932 19.0011V18.9986H40.4932V19.0011H41.4932ZM40.6378 18.6469C38.3626 20.9459 36.4117 23.5512 34.8451 26.3875L35.7204 26.871C37.2425 24.1153 39.138 21.584 41.3486 19.3503L40.6378 18.6469ZM35.0961 26.1654L34.9362 26.2297L35.3095 27.1574L35.4694 27.0931L35.0961 26.1654ZM35.1229 27.1936H35.1253V26.1936H35.1229V27.1936ZM35.2196 26.2026C30.6617 25.3275 25.972 26.7674 22.6753 30.0481L23.3807 30.7569C26.444 27.7085 30.7994 26.3722 35.0311 27.1846L35.2196 26.2026ZM22.6752 30.0482C19.3812 33.3289 17.9033 38.0293 18.7214 42.6188L19.7059 42.4433C18.9451 38.1752 20.3199 33.8053 23.3808 30.7568L22.6752 30.0482ZM18.7175 42.5932C18.7822 43.1097 19.1853 43.5248 19.709 43.5912L19.8348 42.5991C19.7732 42.5913 19.7188 42.5413 19.7098 42.4689L18.7175 42.5932ZM19.7049 43.5906C20.2263 43.6612 20.7264 43.3661 20.9218 42.8812L19.9942 42.5075C19.9683 42.5719 19.9028 42.6083 19.8389 42.5997L19.7049 43.5906ZM20.9226 42.8792C22.4256 39.1022 26.6044 37.1754 30.4252 38.4908L30.7507 37.5452C26.4212 36.0547 21.6924 38.2402 19.9934 42.5095L20.9226 42.8792ZM30.1082 37.8771C29.96 38.3816 29.8142 38.8914 29.6708 39.4085L30.6345 39.6757C30.7764 39.1637 30.9208 38.6589 31.0676 38.1589L30.1082 37.8771ZM29.7405 39.259L27.4238 42.6314L28.2481 43.1976L30.5647 39.8252L29.7405 39.259ZM27.836 43.4145H27.8384V42.4145H27.836V43.4145ZM27.4303 42.6257C27.2458 42.8864 27.1806 43.2091 27.2458 43.5195L28.2245 43.314C28.2159 43.2731 28.2244 43.2346 28.2466 43.2033L27.4303 42.6257ZM27.2447 43.5143C27.306 43.8227 27.4933 44.094 27.7598 44.2611L28.2909 43.4137C28.2574 43.3927 28.2331 43.3573 28.2255 43.3193L27.2447 43.5143ZM27.5259 43.8128L27.2923 48.556L28.2911 48.6052L28.5247 43.862L27.5259 43.8128ZM27.3796 48.2974L25.3581 51.2393L26.1823 51.8056L28.2038 48.8637L27.3796 48.2974ZM25.3545 51.2446C25.1873 51.4947 25.1226 51.8008 25.1744 52.0962L26.1594 51.9235C26.1522 51.8824 26.1613 51.8371 26.1859 51.8003L25.3545 51.2446ZM25.1754 52.1019C25.2307 52.3971 25.398 52.6654 25.6515 52.8399L26.2185 52.0162C26.1916 51.9976 26.167 51.964 26.1584 51.9178L25.1754 52.1019ZM25.6496 52.8385L32.5825 57.6584L33.1533 56.8373L26.2204 52.0175L25.6496 52.8385ZM32.5846 57.6599C33.1076 58.0194 33.8186 57.8867 34.1789 57.3669L33.3571 56.7972C33.3092 56.8663 33.2184 56.882 33.1511 56.8358L32.5846 57.6599ZM34.1801 57.3652L36.2016 54.4234L35.3774 53.8571L33.3559 56.7989L34.1801 57.3652ZM35.9903 54.5981L40.3186 52.7004L39.9171 51.7845L35.5887 53.6823L35.9903 54.5981ZM40.1178 51.7425H40.1154V52.7425H40.1178V51.7425ZM39.812 52.6399C40.0628 52.8313 40.3772 52.9109 40.6867 52.8627L40.5327 51.8746C40.493 51.8808 40.4532 51.8713 40.4187 51.845L39.812 52.6399ZM40.6935 52.8616C40.9988 52.8097 41.2752 52.6369 41.4539 52.3782L40.6311 51.8098C40.6081 51.8431 40.5698 51.8683 40.5259 51.8757L40.6935 52.8616ZM41.4547 52.3771L43.7689 49.0071L42.9446 48.441L40.6304 51.811L41.4547 52.3771ZM43.6516 49.1279C44.0851 48.8114 44.5118 48.4919 44.9289 48.1696L44.3176 47.3783C43.9085 47.6944 43.4891 48.0084 43.0619 48.3203L43.6516 49.1279ZM44.6233 47.274H44.6208V48.274H44.6233V47.274ZM44.2341 48.0909C46.8063 51.2293 46.4895 55.8409 43.5163 58.593L44.1956 59.3269C47.5575 56.215 47.9146 51.004 45.0075 47.457L44.2341 48.0909ZM43.514 58.5952C43.1335 58.9519 43.0383 59.5179 43.2805 59.9792L44.1659 59.5143C44.1327 59.4511 44.1456 59.3738 44.1979 59.3247L43.514 58.5952ZM43.2822 59.9825C43.5286 60.4435 44.052 60.6826 44.5632 60.5595L44.3291 59.5873C44.265 59.6027 44.1981 59.5746 44.1641 59.5111L43.2822 59.9825ZM44.5377 60.5649C49.0981 59.7156 52.9505 56.6598 54.8363 52.3974L53.9218 51.9928C52.1686 55.9554 48.5887 58.7932 44.3546 59.5818L44.5377 60.5649ZM54.8364 52.3972C56.7199 48.1354 56.3988 43.2147 53.9748 39.2369L53.1208 39.7573C55.3743 43.4551 55.673 48.0303 53.9217 51.9929L54.8364 52.3972ZM54.0478 39.4971V39.3214H53.0478V39.4971H54.0478ZM53.1296 39.5954L53.1347 39.6033L53.9712 39.0553L53.966 39.0474L53.1296 39.5954ZM54.2325 28.9648V28.9623H53.2325V28.9648H54.2325ZM53.3849 29.3218C54.4368 30.3387 55.4114 31.4336 56.3016 32.5945L57.0951 31.986C56.1753 30.7864 55.1677 29.6545 54.08 28.6029L53.3849 29.3218ZM56.2547 32.0596C55.3727 33.7564 54.3478 35.3726 53.1919 36.8914L53.9877 37.497C55.178 35.9328 56.2336 34.2683 57.142 32.5208L56.2547 32.0596ZM54.0897 37.2029L54.2324 28.9685L53.2325 28.9512L53.0899 37.1855L54.0897 37.2029ZM53.2325 28.9623L53.2325 28.9673L54.2325 28.9624L54.2324 28.9574L53.2325 28.9623ZM49.8285 15.0546C52.6205 13.8324 55.5962 13.0839 58.6322 12.8384L58.5516 11.8417C55.4052 12.096 52.3212 12.8718 49.4274 14.1385L49.8285 15.0546ZM58.1113 12.478C58.9448 15.3828 59.3025 18.4068 59.1719 21.4288L60.171 21.472C60.3062 18.3426 59.9359 15.2109 59.0725 12.2021L58.1113 12.478ZM59.6273 20.9523C57.5391 21.1376 55.4532 20.5937 53.7165 19.4092L53.153 20.2354C55.0806 21.55 57.3968 22.1541 59.7156 21.9484L59.6273 20.9523ZM53.7163 19.4092C51.9824 18.2274 50.7068 16.475 50.1073 14.4544L49.1486 14.7388C49.8132 16.9788 51.2277 18.9232 53.1531 20.2355L53.7163 19.4092ZM47.9728 30.7123C48.1433 31.6456 47.737 32.5898 46.9458 33.1027L47.4898 33.9418C48.6218 33.2078 49.1992 31.8608 48.9565 30.5326L47.9728 30.7123ZM46.9453 33.1031C46.157 33.6155 45.1378 33.5998 44.3622 33.0619L43.7923 33.8836C44.9006 34.6522 46.3604 34.6761 47.4903 33.9415L46.9453 33.1031ZM44.3627 33.0622C43.5895 32.5247 43.2113 31.5678 43.4103 30.6381L42.4325 30.4287C42.1495 31.7505 42.6861 33.1145 43.7918 33.8833L44.3627 33.0622ZM43.4103 30.6383C43.6093 29.7109 44.3436 28.9967 45.2665 28.8281L45.0867 27.8444C43.7619 28.0865 42.7156 29.1093 42.4326 30.4285L43.4103 30.6383ZM45.2689 28.8276C45.8748 28.7138 46.5009 28.8479 47.008 29.2016L47.5801 28.3814C46.8526 27.874 45.9539 27.6815 45.0843 27.8448L45.2689 28.8276ZM47.0091 29.2024C47.516 29.5539 47.8627 30.0952 47.9724 30.7102L48.9569 30.5347C48.8009 29.6601 48.3066 28.8852 47.5789 28.3806L47.0091 29.2024ZM47.7393 28.1334C49.1612 29.1204 49.6924 30.9837 49.0063 32.5801L49.925 32.975C50.7979 30.9442 50.1241 28.5715 48.3096 27.3119L47.7393 28.1334ZM49.0064 32.5798C48.3181 34.1782 46.6084 35.061 44.9233 34.6963L44.7118 35.6737C46.8681 36.1403 49.049 35.0092 49.9249 32.9753L49.0064 32.5798ZM44.9232 34.6963C43.2346 34.3313 42.0357 32.8184 42.0639 31.0784L41.064 31.0622C41.0282 33.2761 42.5542 35.2074 44.7119 35.6737L44.9232 34.6963ZM42.0639 31.0778C42.0899 29.337 43.3348 27.859 45.0312 27.5464L44.8499 26.5629C42.6803 26.9628 41.097 28.8499 41.064 31.0629L42.0639 31.0778ZM45.0311 27.5464C45.9743 27.3727 46.9481 27.5831 47.739 28.1331L48.31 27.3122C47.3007 26.6102 46.0561 26.3408 44.85 26.5629L45.0311 27.5464ZM40.9147 36.9639L34.1147 32.2381L33.544 33.0593L40.344 37.7851L40.9147 36.9639ZM33.3657 32.4616C32.4486 34.7333 31.6628 37.0551 31.0134 39.4172L31.9776 39.6823C32.6168 37.3575 33.3902 35.0722 34.293 32.8359L33.3657 32.4616ZM31.2099 39.9601L36.3768 43.5552L36.948 42.7344L31.781 39.1393L31.2099 39.9601ZM37.0744 43.4281L41.0414 37.6578L40.2174 37.0913L36.2504 42.8616L37.0744 43.4281ZM48.7549 42.4148L41.9768 37.7038L41.4061 38.5249L48.1841 43.2359L48.7549 42.4148ZM41.2793 37.8312L37.3174 43.5987L38.1417 44.165L42.1036 38.3975L41.2793 37.8312ZM37.4441 44.2924L42.5939 47.8726L43.1647 47.0515L38.015 43.4713L37.4441 44.2924ZM42.8793 46.9621H42.8768V47.9621H42.8793V46.9621ZM43.1732 47.8648C45.1391 46.4182 47.0204 44.8571 48.8074 43.1938L48.1261 42.4618C46.3669 44.0992 44.5151 45.6358 42.5805 47.0593L43.1732 47.8648ZM48.8036 43.1973L48.8064 43.1948L48.1327 42.4558L48.1299 42.4583L48.8036 43.1973ZM45.1487 46.9747V46.9771H46.1487V46.9747H45.1487ZM45.9584 47.3696C48.4798 45.3798 50.8273 43.1728 52.9712 40.7763L52.226 40.1095C50.1204 42.4631 47.815 44.6305 45.3389 46.5846L45.9584 47.3696ZM52.1652 40.6923C53.9142 43.7318 54.2376 47.3959 53.0433 50.6968L53.9836 51.037C55.2782 47.459 54.9276 43.488 53.032 40.1935L52.1652 40.6923ZM53.0433 50.6968C51.8489 53.9976 49.2624 56.5968 45.9833 57.7955L46.3266 58.7347C49.8849 57.434 52.6891 54.6146 53.9836 51.037L53.0433 50.6968ZM46.5702 58.5435C47.761 56.7674 48.3536 54.6529 48.2579 52.5124L47.2589 52.5571C47.3451 54.4843 46.8115 56.3879 45.7396 57.9867L46.5702 58.5435ZM48.2579 52.5118C48.1595 50.3716 47.3805 48.3218 46.0341 46.6625L45.2576 47.2926C46.4689 48.7854 47.1704 50.6302 47.2589 52.5577L48.2579 52.5118ZM46.0046 47.3259L46.0074 47.323L45.29 46.6264L45.2871 46.6293L46.0046 47.3259ZM34.8015 31.6266C35.3519 30.3672 35.9358 29.1704 36.553 28.0385L35.6751 27.5597C35.043 28.719 34.4464 29.942 33.8852 31.2261L34.8015 31.6266ZM36.5536 28.0374L36.6274 27.9013L35.7483 27.4247L35.6745 27.5608L36.5536 28.0374ZM36.3738 28.1271L46.8531 23.9283L46.4812 23.0001L36.0019 27.1989L36.3738 28.1271ZM46.6671 23.9642H46.6696V22.9642H46.6671V23.9642ZM46.8546 23.9287C47.2699 23.7633 47.5539 23.3728 47.5841 22.9264L46.5864 22.859C46.5821 22.9222 46.5415 22.9771 46.4846 22.9997L46.8546 23.9287ZM47.5841 22.926C47.6142 22.4761 47.3823 22.0507 46.9923 21.8327L46.5044 22.7056C46.557 22.735 46.5907 22.7945 46.5863 22.8593L47.5841 22.926ZM46.9856 21.8291C45.3547 20.9496 43.6516 20.211 41.899 19.6182L41.5786 20.5654C43.2787 21.1405 44.9301 21.8567 46.511 22.7092L46.9856 21.8291ZM42.0958 20.4418C44.0159 18.4834 46.2371 16.848 48.6749 15.6034L48.2202 14.7128C45.6855 16.0068 43.3769 17.7068 41.3817 19.7418L42.0958 20.4418ZM47.9709 15.309C48.7447 17.7534 50.3107 19.8648 52.4227 21.3064L52.9864 20.4805C51.0603 19.1657 49.6309 17.2392 48.9242 15.0072L47.9709 15.309ZM52.4224 21.3063C54.5317 22.7478 57.0633 23.4364 59.6082 23.2578L59.5382 22.2603C57.2189 22.423 54.9106 21.7955 52.9867 20.4806L52.4224 21.3063ZM59.0759 22.7075C58.7864 25.5013 58.0433 28.2268 56.8735 30.7746L57.7823 31.1918C58.998 28.5442 59.7699 25.7125 60.0706 22.8106L59.0759 22.7075ZM57.7171 30.6693C56.5564 29.2304 55.2808 27.8891 53.9 26.6607L53.2353 27.4078C54.5745 28.5993 55.8123 29.9005 56.9387 31.2971L57.7171 30.6693ZM53.9151 26.6747C53.5876 26.3583 53.1043 26.2601 52.6768 26.4357L53.0567 27.3607C53.1112 27.3383 53.1739 27.3491 53.2202 27.3938L53.9151 26.6747ZM52.6751 26.4364C52.253 26.6115 51.9721 27.0217 51.9635 27.4826L52.9633 27.5014C52.9645 27.4378 53.0033 27.3829 53.0583 27.36L52.6751 26.4364ZM51.9635 27.4834L51.7667 38.8302L52.7666 38.8476L52.9633 27.5007L51.9635 27.4834ZM51.8861 38.5147L51.7828 38.6359L52.544 39.2844L52.6473 39.1632L51.8861 38.5147ZM51.7824 38.6363C50.9492 39.6163 50.0443 40.5856 49.0698 41.5489L49.7727 42.2601C50.7656 41.2787 51.6905 40.2883 52.5443 39.284L51.7824 38.6363ZM49.7066 41.4939L34.6287 31.0158L34.058 31.837L49.1359 42.3151L49.7066 41.4939ZM35.0819 27.9203V27.9179H34.0819V27.9203H35.0819ZM34.1369 27.6899C32.668 30.5582 31.4471 33.5466 30.4917 36.6247L31.4467 36.9211C32.385 33.8984 33.584 30.9633 35.027 28.1458L34.1369 27.6899ZM31.1287 36.299C29.1085 35.619 26.9246 35.6083 24.8982 36.2757L25.2111 37.2255C27.0311 36.6261 28.9934 36.6353 30.8097 37.2468L31.1287 36.299ZM24.8982 36.2757C22.8725 36.9429 21.1142 38.2484 19.8843 39.9989L20.7026 40.5738C21.8091 38.9989 23.3904 37.8252 25.2111 37.2255L24.8982 36.2757ZM20.7934 40.2796C20.7462 36.7647 22.25 33.4119 24.895 31.1214L24.2404 30.3654C21.3718 32.8495 19.7424 36.4842 19.7935 40.293L20.7934 40.2796ZM24.8949 31.1215C27.5421 28.8309 31.0615 27.8392 34.5023 28.4111L34.6663 27.4246C30.9312 26.8038 27.112 27.8806 24.2406 30.3653L24.8949 31.1215ZM34.2223 27.5729L34.2199 27.5754L34.9439 28.2652L34.9463 28.2627L34.2223 27.5729Z" fill="#2E74CE" mask="url(#path-2-outside-1_199_189)"/>
</svg>
