<svg width="80" height="80" viewBox="0 0 80 80" fill="none" xmlns="http://www.w3.org/2000/svg">
<circle cx="40" cy="40" r="40" fill="#FCFAEE"/>
<mask id="path-2-outside-1_199_182" maskUnits="userSpaceOnUse" x="19" y="11" width="42" height="58" fill="black">
<rect fill="white" x="19" y="11" width="42" height="58"/>
<path fill-rule="evenodd" clip-rule="evenodd" d="M49.8868 54.9956H30.2609V55.9961C30.2614 56.8599 30.6082 57.6882 31.2252 58.299C31.8422 58.9099 32.6789 59.2534 33.5516 59.254H46.5948C47.4678 59.254 48.305 58.9108 48.9223 58.2999C49.5397 57.6889 49.8866 56.8602 49.8868 55.9961V54.9956ZM47.3906 60.72C47.1273 60.7607 46.8613 60.7815 46.5948 60.7822H33.5516C33.2855 60.7815 33.0199 60.7607 32.757 60.72C33.001 62.3137 33.8127 63.7685 35.0455 64.8217C36.2782 65.8749 37.8508 66.4571 39.4792 66.4631H40.6685C42.2969 66.4571 43.8694 65.8749 45.1022 64.8217C46.3349 63.7685 47.1466 62.3137 47.3906 60.72ZM40.8445 32.6516H46.2969C46.4206 32.6519 46.5425 32.6817 46.6522 32.7384C46.7619 32.7951 46.8563 32.8771 46.9274 32.9774C46.9985 33.0777 47.0442 33.1934 47.0607 33.3148C47.0772 33.4362 47.064 33.5598 47.0223 33.6751C46.9656 33.8354 46.922 34 46.8921 34.1673C46.8622 34.3349 46.8474 34.5048 46.8481 34.675C46.8814 35.4278 47.207 36.1387 47.7568 36.6597C48.3067 37.1807 49.0385 37.4715 49.7997 37.4715C50.5609 37.4715 51.2927 37.1807 51.8425 36.6597C52.3924 36.1387 52.7179 35.4278 52.7512 34.675C52.7521 34.5048 52.7376 34.3349 52.7079 34.1673C52.6821 34.0193 52.6443 33.8736 52.5947 33.7317C52.5522 33.6333 52.5298 33.5276 52.5287 33.4206C52.5289 33.2176 52.6105 33.0229 52.7556 32.8794C52.9007 32.7359 53.0974 32.6553 53.3025 32.6553H58.589C58.5997 32.3971 58.6053 32.1395 58.6053 31.8738C58.6071 27.1408 56.7599 22.5905 53.4501 19.1749C50.1403 15.7592 45.6243 13.7428 40.847 13.5475V19.3684C41.012 19.3461 41.1783 19.3357 41.3448 19.3372C41.9401 19.3303 42.5309 19.4403 43.083 19.661C43.635 19.8817 44.1373 20.2086 44.5607 20.6229C44.9842 21.0371 45.3204 21.5304 45.5499 22.0742C45.7793 22.618 45.8975 23.2015 45.8975 23.7908C45.8975 24.3801 45.7793 24.9636 45.5499 25.5074C45.3204 26.0512 44.9842 26.5445 44.5607 26.9587C44.1373 27.373 43.635 27.6999 43.083 27.9206C42.5309 28.1413 41.9401 28.2513 41.3448 28.2444C41.177 28.2444 41.0098 28.2369 40.842 28.2213V32.6516H40.8445ZM21.5612 32.6516C21.5511 32.3933 21.5448 32.1357 21.5448 31.87C21.5434 27.1381 23.3904 22.5888 26.6996 19.1739C30.0087 15.759 34.5237 13.7429 39.3 13.5475V20.3216C39.3004 20.5246 39.382 20.7193 39.527 20.8628C39.6721 21.0064 39.8687 21.0872 40.0738 21.0876C40.1819 21.0866 40.2887 21.0644 40.3881 21.0222C40.5327 20.9728 40.6814 20.9362 40.8325 20.9127C41.0019 20.8812 41.1738 20.8656 41.3461 20.866C41.7434 20.8509 42.1396 20.9152 42.5112 21.0552C42.8828 21.1952 43.2219 21.408 43.5084 21.6809C43.7949 21.9538 44.0229 22.281 44.1785 22.6432C44.3342 23.0053 44.4145 23.3948 44.4145 23.7883C44.4145 24.1819 44.3342 24.5713 44.1785 24.9335C44.0229 25.2956 43.7949 25.6229 43.5084 25.8957C43.2219 26.1686 42.8828 26.3814 42.5112 26.5214C42.1396 26.6614 41.7434 26.7258 41.3461 26.7106C41.1742 26.7098 41.0025 26.6967 40.8325 26.6714C40.6641 26.6411 40.4986 26.5968 40.3378 26.5388C40.1451 26.4707 39.9329 26.4809 39.7478 26.5673C39.5627 26.6538 39.4197 26.8093 39.3503 26.9999C39.3143 27.0946 39.2987 27.1957 39.3044 27.2967V32.6478H34.8219C34.8402 32.4844 34.8495 32.3201 34.8496 32.1556C34.8566 31.5664 34.7455 30.9816 34.5225 30.4351C34.2996 29.8887 33.9693 29.3915 33.5508 28.9723C33.1323 28.5531 32.634 28.2204 32.0846 27.9932C31.5352 27.7661 30.9458 27.6491 30.3505 27.6491C29.7551 27.6491 29.1657 27.7661 28.6163 27.9932C28.067 28.2204 27.5686 28.5531 27.1501 28.9723C26.7316 29.3915 26.4013 29.8887 26.1784 30.4351C25.9555 30.9816 25.8443 31.5664 25.8513 32.1556C25.8515 32.3201 25.8607 32.4844 25.879 32.6478L21.5612 32.6516ZM39.3032 34.1828H33.8508C33.7218 34.1826 33.5949 34.1506 33.4816 34.0895C33.3683 34.0285 33.2722 33.9405 33.202 33.8334C33.1318 33.7263 33.0896 33.6036 33.0794 33.4763C33.0692 33.349 33.0913 33.2212 33.1436 33.1045C33.193 32.9626 33.2306 32.8169 33.2561 32.669C33.2854 32.5013 33.3002 32.3314 33.3001 32.1612C33.3165 31.7674 33.2524 31.3743 33.1114 31.0056C32.9705 30.6369 32.7557 30.3003 32.48 30.0158C32.2042 29.7314 31.8733 29.5051 31.5069 29.3505C31.1406 29.1959 30.7465 29.1162 30.3483 29.1162C29.95 29.1162 29.5559 29.1959 29.1896 29.3505C28.8232 29.5051 28.4923 29.7314 28.2165 30.0158C27.9408 30.3003 27.726 30.6369 27.5851 31.0056C27.4442 31.3743 27.38 31.7674 27.3964 32.1612C27.3965 32.3314 27.411 32.5012 27.4398 32.669C27.4697 32.8362 27.5132 33.0008 27.5699 33.1612C27.6116 33.2764 27.6248 33.4 27.6083 33.5213C27.5919 33.6427 27.5462 33.7584 27.4752 33.8587C27.4042 33.9589 27.3099 34.0409 27.2003 34.0976C27.0906 34.1544 26.9688 34.1842 26.8451 34.1847H21.6907C21.9168 35.9764 22.4108 37.7249 23.1565 39.3728C24.2305 41.7345 25.7951 43.8457 27.7484 45.5689C28.5489 46.2578 29.1884 47.1108 29.6226 48.0687C30.0568 49.0267 30.2752 50.0667 30.2628 51.1166V53.4686H39.3032V47.4667C39.1378 47.4822 38.9706 47.4978 38.8003 47.4978C37.6163 47.4839 36.4855 47.0086 35.6531 46.1749C34.8208 45.3412 34.354 44.2163 34.354 43.0442C34.354 41.8721 34.8208 40.7472 35.6531 39.9135C36.4855 39.0798 37.6163 38.6045 38.8003 38.5907C38.9679 38.5907 39.1355 38.5983 39.3032 38.6137V34.1828ZM58.4576 34.1828C58.2317 35.9746 57.7377 37.7232 56.9917 39.3709C55.9187 41.7324 54.3552 43.8436 52.403 45.567C51.6027 46.2561 50.9633 47.1091 50.5291 48.067C50.095 49.025 49.8764 50.0649 49.8886 51.1148V53.4668H40.8445V46.5439C40.8507 46.4184 40.8254 46.2933 40.7708 46.1798C40.7162 46.0663 40.634 45.968 40.5316 45.8937C40.4292 45.8194 40.3098 45.7714 40.184 45.754C40.0583 45.7367 39.9301 45.7504 39.8111 45.7941C39.6502 45.8494 39.485 45.891 39.317 45.9186C39.1475 45.9506 38.9753 45.9665 38.8028 45.9659C38.4055 45.9811 38.0093 45.9167 37.6377 45.7767C37.2661 45.6367 36.9269 45.4239 36.6405 45.151C36.354 44.8782 36.126 44.5509 35.9704 44.1888C35.8147 43.8266 35.7344 43.4371 35.7344 43.0436C35.7344 42.6501 35.8147 42.2606 35.9704 41.8984C36.126 41.5363 36.354 41.209 36.6405 40.9362C36.9269 40.6633 37.2661 40.4505 37.6377 40.3105C38.0093 40.1705 38.4055 40.1061 38.8028 40.1213C38.9749 40.1221 39.1468 40.1352 39.317 40.1605C39.4852 40.1907 39.6505 40.235 39.8111 40.2931C39.8952 40.3245 39.9845 40.3404 40.0744 40.3397C40.279 40.3391 40.4748 40.2581 40.6191 40.1146C40.7633 39.9711 40.8442 39.7768 40.8438 39.5744V34.1828H45.3257C45.3074 34.3463 45.2982 34.5106 45.298 34.675C45.291 35.2642 45.4022 35.8489 45.6251 36.3953C45.848 36.9417 46.1782 37.4388 46.5967 37.8579C47.0151 38.277 47.5134 38.6098 48.0627 38.8369C48.6119 39.064 49.2013 39.1809 49.7966 39.1809C50.3918 39.1809 50.9812 39.064 51.5305 38.8369C52.0797 38.6098 52.578 38.277 52.9964 37.8579C53.4149 37.4388 53.7451 36.9417 53.968 36.3953C54.1909 35.8489 54.3021 35.2642 54.2951 34.675C54.2952 34.5106 54.2861 34.3463 54.268 34.1828H58.4576ZM40.0738 12C44.1431 11.9993 48.1165 13.2228 51.4673 15.5083C54.8181 17.7939 57.3881 21.0335 58.8364 24.7978C60.2848 28.5621 60.5432 32.6732 59.5773 36.5862C58.6115 40.4992 56.467 44.0291 53.4282 46.7082C52.7877 47.2513 52.2766 47.9281 51.9317 48.6901C51.5869 49.452 51.4168 50.28 51.4337 51.1148V55.9986C51.4339 56.6273 51.3085 57.2498 51.0649 57.8304C50.8212 58.411 50.4639 58.9381 50.0137 59.3816C49.7135 59.6846 49.3723 59.9448 48.9998 60.155C48.8885 62.2694 47.9628 64.2612 46.413 65.7205C44.8633 67.1797 42.8074 67.9955 40.6685 68H39.4792C37.3402 67.9955 35.2844 67.1797 33.7346 65.7205C32.1849 64.2612 31.2591 62.2694 31.1478 60.155C30.7772 59.9421 30.4363 59.6821 30.1339 59.3816C29.6838 58.9381 29.3267 58.4109 29.0831 57.8303C28.8395 57.2498 28.7142 56.6272 28.7145 55.9986V51.1148C28.7314 50.2801 28.5613 49.4521 28.2166 48.6903C27.8718 47.9284 27.361 47.2515 26.7207 46.7082C23.6826 44.0289 21.5388 40.4991 20.5733 36.5864C19.6079 32.6738 19.8663 28.5632 21.3144 24.7992C22.7625 21.0353 25.3318 17.7958 28.682 15.51C32.0322 13.2243 36.0049 12.0002 40.0738 12Z"/>
</mask>
<path fill-rule="evenodd" clip-rule="evenodd" d="M49.8868 54.9956H30.2609V55.9961C30.2614 56.8599 30.6082 57.6882 31.2252 58.299C31.8422 58.9099 32.6789 59.2534 33.5516 59.254H46.5948C47.4678 59.254 48.305 58.9108 48.9223 58.2999C49.5397 57.6889 49.8866 56.8602 49.8868 55.9961V54.9956ZM47.3906 60.72C47.1273 60.7607 46.8613 60.7815 46.5948 60.7822H33.5516C33.2855 60.7815 33.0199 60.7607 32.757 60.72C33.001 62.3137 33.8127 63.7685 35.0455 64.8217C36.2782 65.8749 37.8508 66.4571 39.4792 66.4631H40.6685C42.2969 66.4571 43.8694 65.8749 45.1022 64.8217C46.3349 63.7685 47.1466 62.3137 47.3906 60.72ZM40.8445 32.6516H46.2969C46.4206 32.6519 46.5425 32.6817 46.6522 32.7384C46.7619 32.7951 46.8563 32.8771 46.9274 32.9774C46.9985 33.0777 47.0442 33.1934 47.0607 33.3148C47.0772 33.4362 47.064 33.5598 47.0223 33.6751C46.9656 33.8354 46.922 34 46.8921 34.1673C46.8622 34.3349 46.8474 34.5048 46.8481 34.675C46.8814 35.4278 47.207 36.1387 47.7568 36.6597C48.3067 37.1807 49.0385 37.4715 49.7997 37.4715C50.5609 37.4715 51.2927 37.1807 51.8425 36.6597C52.3924 36.1387 52.7179 35.4278 52.7512 34.675C52.7521 34.5048 52.7376 34.3349 52.7079 34.1673C52.6821 34.0193 52.6443 33.8736 52.5947 33.7317C52.5522 33.6333 52.5298 33.5276 52.5287 33.4206C52.5289 33.2176 52.6105 33.0229 52.7556 32.8794C52.9007 32.7359 53.0974 32.6553 53.3025 32.6553H58.589C58.5997 32.3971 58.6053 32.1395 58.6053 31.8738C58.6071 27.1408 56.7599 22.5905 53.4501 19.1749C50.1403 15.7592 45.6243 13.7428 40.847 13.5475V19.3684C41.012 19.3461 41.1783 19.3357 41.3448 19.3372C41.9401 19.3303 42.5309 19.4403 43.083 19.661C43.635 19.8817 44.1373 20.2086 44.5607 20.6229C44.9842 21.0371 45.3204 21.5304 45.5499 22.0742C45.7793 22.618 45.8975 23.2015 45.8975 23.7908C45.8975 24.3801 45.7793 24.9636 45.5499 25.5074C45.3204 26.0512 44.9842 26.5445 44.5607 26.9587C44.1373 27.373 43.635 27.6999 43.083 27.9206C42.5309 28.1413 41.9401 28.2513 41.3448 28.2444C41.177 28.2444 41.0098 28.2369 40.842 28.2213V32.6516H40.8445ZM21.5612 32.6516C21.5511 32.3933 21.5448 32.1357 21.5448 31.87C21.5434 27.1381 23.3904 22.5888 26.6996 19.1739C30.0087 15.759 34.5237 13.7429 39.3 13.5475V20.3216C39.3004 20.5246 39.382 20.7193 39.527 20.8628C39.6721 21.0064 39.8687 21.0872 40.0738 21.0876C40.1819 21.0866 40.2887 21.0644 40.3881 21.0222C40.5327 20.9728 40.6814 20.9362 40.8325 20.9127C41.0019 20.8812 41.1738 20.8656 41.3461 20.866C41.7434 20.8509 42.1396 20.9152 42.5112 21.0552C42.8828 21.1952 43.2219 21.408 43.5084 21.6809C43.7949 21.9538 44.0229 22.281 44.1785 22.6432C44.3342 23.0053 44.4145 23.3948 44.4145 23.7883C44.4145 24.1819 44.3342 24.5713 44.1785 24.9335C44.0229 25.2956 43.7949 25.6229 43.5084 25.8957C43.2219 26.1686 42.8828 26.3814 42.5112 26.5214C42.1396 26.6614 41.7434 26.7258 41.3461 26.7106C41.1742 26.7098 41.0025 26.6967 40.8325 26.6714C40.6641 26.6411 40.4986 26.5968 40.3378 26.5388C40.1451 26.4707 39.9329 26.4809 39.7478 26.5673C39.5627 26.6538 39.4197 26.8093 39.3503 26.9999C39.3143 27.0946 39.2987 27.1957 39.3044 27.2967V32.6478H34.8219C34.8402 32.4844 34.8495 32.3201 34.8496 32.1556C34.8566 31.5664 34.7455 30.9816 34.5225 30.4351C34.2996 29.8887 33.9693 29.3915 33.5508 28.9723C33.1323 28.5531 32.634 28.2204 32.0846 27.9932C31.5352 27.7661 30.9458 27.6491 30.3505 27.6491C29.7551 27.6491 29.1657 27.7661 28.6163 27.9932C28.067 28.2204 27.5686 28.5531 27.1501 28.9723C26.7316 29.3915 26.4013 29.8887 26.1784 30.4351C25.9555 30.9816 25.8443 31.5664 25.8513 32.1556C25.8515 32.3201 25.8607 32.4844 25.879 32.6478L21.5612 32.6516ZM39.3032 34.1828H33.8508C33.7218 34.1826 33.5949 34.1506 33.4816 34.0895C33.3683 34.0285 33.2722 33.9405 33.202 33.8334C33.1318 33.7263 33.0896 33.6036 33.0794 33.4763C33.0692 33.349 33.0913 33.2212 33.1436 33.1045C33.193 32.9626 33.2306 32.8169 33.2561 32.669C33.2854 32.5013 33.3002 32.3314 33.3001 32.1612C33.3165 31.7674 33.2524 31.3743 33.1114 31.0056C32.9705 30.6369 32.7557 30.3003 32.48 30.0158C32.2042 29.7314 31.8733 29.5051 31.5069 29.3505C31.1406 29.1959 30.7465 29.1162 30.3483 29.1162C29.95 29.1162 29.5559 29.1959 29.1896 29.3505C28.8232 29.5051 28.4923 29.7314 28.2165 30.0158C27.9408 30.3003 27.726 30.6369 27.5851 31.0056C27.4442 31.3743 27.38 31.7674 27.3964 32.1612C27.3965 32.3314 27.411 32.5012 27.4398 32.669C27.4697 32.8362 27.5132 33.0008 27.5699 33.1612C27.6116 33.2764 27.6248 33.4 27.6083 33.5213C27.5919 33.6427 27.5462 33.7584 27.4752 33.8587C27.4042 33.9589 27.3099 34.0409 27.2003 34.0976C27.0906 34.1544 26.9688 34.1842 26.8451 34.1847H21.6907C21.9168 35.9764 22.4108 37.7249 23.1565 39.3728C24.2305 41.7345 25.7951 43.8457 27.7484 45.5689C28.5489 46.2578 29.1884 47.1108 29.6226 48.0687C30.0568 49.0267 30.2752 50.0667 30.2628 51.1166V53.4686H39.3032V47.4667C39.1378 47.4822 38.9706 47.4978 38.8003 47.4978C37.6163 47.4839 36.4855 47.0086 35.6531 46.1749C34.8208 45.3412 34.354 44.2163 34.354 43.0442C34.354 41.8721 34.8208 40.7472 35.6531 39.9135C36.4855 39.0798 37.6163 38.6045 38.8003 38.5907C38.9679 38.5907 39.1355 38.5983 39.3032 38.6137V34.1828ZM58.4576 34.1828C58.2317 35.9746 57.7377 37.7232 56.9917 39.3709C55.9187 41.7324 54.3552 43.8436 52.403 45.567C51.6027 46.2561 50.9633 47.1091 50.5291 48.067C50.095 49.025 49.8764 50.0649 49.8886 51.1148V53.4668H40.8445V46.5439C40.8507 46.4184 40.8254 46.2933 40.7708 46.1798C40.7162 46.0663 40.634 45.968 40.5316 45.8937C40.4292 45.8194 40.3098 45.7714 40.184 45.754C40.0583 45.7367 39.9301 45.7504 39.8111 45.7941C39.6502 45.8494 39.485 45.891 39.317 45.9186C39.1475 45.9506 38.9753 45.9665 38.8028 45.9659C38.4055 45.9811 38.0093 45.9167 37.6377 45.7767C37.2661 45.6367 36.9269 45.4239 36.6405 45.151C36.354 44.8782 36.126 44.5509 35.9704 44.1888C35.8147 43.8266 35.7344 43.4371 35.7344 43.0436C35.7344 42.6501 35.8147 42.2606 35.9704 41.8984C36.126 41.5363 36.354 41.209 36.6405 40.9362C36.9269 40.6633 37.2661 40.4505 37.6377 40.3105C38.0093 40.1705 38.4055 40.1061 38.8028 40.1213C38.9749 40.1221 39.1468 40.1352 39.317 40.1605C39.4852 40.1907 39.6505 40.235 39.8111 40.2931C39.8952 40.3245 39.9845 40.3404 40.0744 40.3397C40.279 40.3391 40.4748 40.2581 40.6191 40.1146C40.7633 39.9711 40.8442 39.7768 40.8438 39.5744V34.1828H45.3257C45.3074 34.3463 45.2982 34.5106 45.298 34.675C45.291 35.2642 45.4022 35.8489 45.6251 36.3953C45.848 36.9417 46.1782 37.4388 46.5967 37.8579C47.0151 38.277 47.5134 38.6098 48.0627 38.8369C48.6119 39.064 49.2013 39.1809 49.7966 39.1809C50.3918 39.1809 50.9812 39.064 51.5305 38.8369C52.0797 38.6098 52.578 38.277 52.9964 37.8579C53.4149 37.4388 53.7451 36.9417 53.968 36.3953C54.1909 35.8489 54.3021 35.2642 54.2951 34.675C54.2952 34.5106 54.2861 34.3463 54.268 34.1828H58.4576ZM40.0738 12C44.1431 11.9993 48.1165 13.2228 51.4673 15.5083C54.8181 17.7939 57.3881 21.0335 58.8364 24.7978C60.2848 28.5621 60.5432 32.6732 59.5773 36.5862C58.6115 40.4992 56.467 44.0291 53.4282 46.7082C52.7877 47.2513 52.2766 47.9281 51.9317 48.6901C51.5869 49.452 51.4168 50.28 51.4337 51.1148V55.9986C51.4339 56.6273 51.3085 57.2498 51.0649 57.8304C50.8212 58.411 50.4639 58.9381 50.0137 59.3816C49.7135 59.6846 49.3723 59.9448 48.9998 60.155C48.8885 62.2694 47.9628 64.2612 46.413 65.7205C44.8633 67.1797 42.8074 67.9955 40.6685 68H39.4792C37.3402 67.9955 35.2844 67.1797 33.7346 65.7205C32.1849 64.2612 31.2591 62.2694 31.1478 60.155C30.7772 59.9421 30.4363 59.6821 30.1339 59.3816C29.6838 58.9381 29.3267 58.4109 29.0831 57.8303C28.8395 57.2498 28.7142 56.6272 28.7145 55.9986V51.1148C28.7314 50.2801 28.5613 49.4521 28.2166 48.6903C27.8718 47.9284 27.361 47.2515 26.7207 46.7082C23.6826 44.0289 21.5388 40.4991 20.5733 36.5864C19.6079 32.6738 19.8663 28.5632 21.3144 24.7992C22.7625 21.0353 25.3318 17.7958 28.682 15.51C32.0322 13.2243 36.0049 12.0002 40.0738 12Z" fill="#2E74CE"/>
<path fill-rule="evenodd" clip-rule="evenodd" d="M49.8868 54.9956H30.2609V55.9961C30.2614 56.8599 30.6082 57.6882 31.2252 58.299C31.8422 58.9099 32.6789 59.2534 33.5516 59.254H46.5948C47.4678 59.254 48.305 58.9108 48.9223 58.2999C49.5397 57.6889 49.8866 56.8602 49.8868 55.9961V54.9956ZM47.3906 60.72C47.1273 60.7607 46.8613 60.7815 46.5948 60.7822H33.5516C33.2855 60.7815 33.0199 60.7607 32.757 60.72C33.001 62.3137 33.8127 63.7685 35.0455 64.8217C36.2782 65.8749 37.8508 66.4571 39.4792 66.4631H40.6685C42.2969 66.4571 43.8694 65.8749 45.1022 64.8217C46.3349 63.7685 47.1466 62.3137 47.3906 60.72ZM40.8445 32.6516H46.2969C46.4206 32.6519 46.5425 32.6817 46.6522 32.7384C46.7619 32.7951 46.8563 32.8771 46.9274 32.9774C46.9985 33.0777 47.0442 33.1934 47.0607 33.3148C47.0772 33.4362 47.064 33.5598 47.0223 33.6751C46.9656 33.8354 46.922 34 46.8921 34.1673C46.8622 34.3349 46.8474 34.5048 46.8481 34.675C46.8814 35.4278 47.207 36.1387 47.7568 36.6597C48.3067 37.1807 49.0385 37.4715 49.7997 37.4715C50.5609 37.4715 51.2927 37.1807 51.8425 36.6597C52.3924 36.1387 52.7179 35.4278 52.7512 34.675C52.7521 34.5048 52.7376 34.3349 52.7079 34.1673C52.6821 34.0193 52.6443 33.8736 52.5947 33.7317C52.5522 33.6333 52.5298 33.5276 52.5287 33.4206C52.5289 33.2176 52.6105 33.0229 52.7556 32.8794C52.9007 32.7359 53.0974 32.6553 53.3025 32.6553H58.589C58.5997 32.3971 58.6053 32.1395 58.6053 31.8738C58.6071 27.1408 56.7599 22.5905 53.4501 19.1749C50.1403 15.7592 45.6243 13.7428 40.847 13.5475V19.3684C41.012 19.3461 41.1783 19.3357 41.3448 19.3372C41.9401 19.3303 42.5309 19.4403 43.083 19.661C43.635 19.8817 44.1373 20.2086 44.5607 20.6229C44.9842 21.0371 45.3204 21.5304 45.5499 22.0742C45.7793 22.618 45.8975 23.2015 45.8975 23.7908C45.8975 24.3801 45.7793 24.9636 45.5499 25.5074C45.3204 26.0512 44.9842 26.5445 44.5607 26.9587C44.1373 27.373 43.635 27.6999 43.083 27.9206C42.5309 28.1413 41.9401 28.2513 41.3448 28.2444C41.177 28.2444 41.0098 28.2369 40.842 28.2213V32.6516H40.8445ZM21.5612 32.6516C21.5511 32.3933 21.5448 32.1357 21.5448 31.87C21.5434 27.1381 23.3904 22.5888 26.6996 19.1739C30.0087 15.759 34.5237 13.7429 39.3 13.5475V20.3216C39.3004 20.5246 39.382 20.7193 39.527 20.8628C39.6721 21.0064 39.8687 21.0872 40.0738 21.0876C40.1819 21.0866 40.2887 21.0644 40.3881 21.0222C40.5327 20.9728 40.6814 20.9362 40.8325 20.9127C41.0019 20.8812 41.1738 20.8656 41.3461 20.866C41.7434 20.8509 42.1396 20.9152 42.5112 21.0552C42.8828 21.1952 43.2219 21.408 43.5084 21.6809C43.7949 21.9538 44.0229 22.281 44.1785 22.6432C44.3342 23.0053 44.4145 23.3948 44.4145 23.7883C44.4145 24.1819 44.3342 24.5713 44.1785 24.9335C44.0229 25.2956 43.7949 25.6229 43.5084 25.8957C43.2219 26.1686 42.8828 26.3814 42.5112 26.5214C42.1396 26.6614 41.7434 26.7258 41.3461 26.7106C41.1742 26.7098 41.0025 26.6967 40.8325 26.6714C40.6641 26.6411 40.4986 26.5968 40.3378 26.5388C40.1451 26.4707 39.9329 26.4809 39.7478 26.5673C39.5627 26.6538 39.4197 26.8093 39.3503 26.9999C39.3143 27.0946 39.2987 27.1957 39.3044 27.2967V32.6478H34.8219C34.8402 32.4844 34.8495 32.3201 34.8496 32.1556C34.8566 31.5664 34.7455 30.9816 34.5225 30.4351C34.2996 29.8887 33.9693 29.3915 33.5508 28.9723C33.1323 28.5531 32.634 28.2204 32.0846 27.9932C31.5352 27.7661 30.9458 27.6491 30.3505 27.6491C29.7551 27.6491 29.1657 27.7661 28.6163 27.9932C28.067 28.2204 27.5686 28.5531 27.1501 28.9723C26.7316 29.3915 26.4013 29.8887 26.1784 30.4351C25.9555 30.9816 25.8443 31.5664 25.8513 32.1556C25.8515 32.3201 25.8607 32.4844 25.879 32.6478L21.5612 32.6516ZM39.3032 34.1828H33.8508C33.7218 34.1826 33.5949 34.1506 33.4816 34.0895C33.3683 34.0285 33.2722 33.9405 33.202 33.8334C33.1318 33.7263 33.0896 33.6036 33.0794 33.4763C33.0692 33.349 33.0913 33.2212 33.1436 33.1045C33.193 32.9626 33.2306 32.8169 33.2561 32.669C33.2854 32.5013 33.3002 32.3314 33.3001 32.1612C33.3165 31.7674 33.2524 31.3743 33.1114 31.0056C32.9705 30.6369 32.7557 30.3003 32.48 30.0158C32.2042 29.7314 31.8733 29.5051 31.5069 29.3505C31.1406 29.1959 30.7465 29.1162 30.3483 29.1162C29.95 29.1162 29.5559 29.1959 29.1896 29.3505C28.8232 29.5051 28.4923 29.7314 28.2165 30.0158C27.9408 30.3003 27.726 30.6369 27.5851 31.0056C27.4442 31.3743 27.38 31.7674 27.3964 32.1612C27.3965 32.3314 27.411 32.5012 27.4398 32.669C27.4697 32.8362 27.5132 33.0008 27.5699 33.1612C27.6116 33.2764 27.6248 33.4 27.6083 33.5213C27.5919 33.6427 27.5462 33.7584 27.4752 33.8587C27.4042 33.9589 27.3099 34.0409 27.2003 34.0976C27.0906 34.1544 26.9688 34.1842 26.8451 34.1847H21.6907C21.9168 35.9764 22.4108 37.7249 23.1565 39.3728C24.2305 41.7345 25.7951 43.8457 27.7484 45.5689C28.5489 46.2578 29.1884 47.1108 29.6226 48.0687C30.0568 49.0267 30.2752 50.0667 30.2628 51.1166V53.4686H39.3032V47.4667C39.1378 47.4822 38.9706 47.4978 38.8003 47.4978C37.6163 47.4839 36.4855 47.0086 35.6531 46.1749C34.8208 45.3412 34.354 44.2163 34.354 43.0442C34.354 41.8721 34.8208 40.7472 35.6531 39.9135C36.4855 39.0798 37.6163 38.6045 38.8003 38.5907C38.9679 38.5907 39.1355 38.5983 39.3032 38.6137V34.1828ZM58.4576 34.1828C58.2317 35.9746 57.7377 37.7232 56.9917 39.3709C55.9187 41.7324 54.3552 43.8436 52.403 45.567C51.6027 46.2561 50.9633 47.1091 50.5291 48.067C50.095 49.025 49.8764 50.0649 49.8886 51.1148V53.4668H40.8445V46.5439C40.8507 46.4184 40.8254 46.2933 40.7708 46.1798C40.7162 46.0663 40.634 45.968 40.5316 45.8937C40.4292 45.8194 40.3098 45.7714 40.184 45.754C40.0583 45.7367 39.9301 45.7504 39.8111 45.7941C39.6502 45.8494 39.485 45.891 39.317 45.9186C39.1475 45.9506 38.9753 45.9665 38.8028 45.9659C38.4055 45.9811 38.0093 45.9167 37.6377 45.7767C37.2661 45.6367 36.9269 45.4239 36.6405 45.151C36.354 44.8782 36.126 44.5509 35.9704 44.1888C35.8147 43.8266 35.7344 43.4371 35.7344 43.0436C35.7344 42.6501 35.8147 42.2606 35.9704 41.8984C36.126 41.5363 36.354 41.209 36.6405 40.9362C36.9269 40.6633 37.2661 40.4505 37.6377 40.3105C38.0093 40.1705 38.4055 40.1061 38.8028 40.1213C38.9749 40.1221 39.1468 40.1352 39.317 40.1605C39.4852 40.1907 39.6505 40.235 39.8111 40.2931C39.8952 40.3245 39.9845 40.3404 40.0744 40.3397C40.279 40.3391 40.4748 40.2581 40.6191 40.1146C40.7633 39.9711 40.8442 39.7768 40.8438 39.5744V34.1828H45.3257C45.3074 34.3463 45.2982 34.5106 45.298 34.675C45.291 35.2642 45.4022 35.8489 45.6251 36.3953C45.848 36.9417 46.1782 37.4388 46.5967 37.8579C47.0151 38.277 47.5134 38.6098 48.0627 38.8369C48.6119 39.064 49.2013 39.1809 49.7966 39.1809C50.3918 39.1809 50.9812 39.064 51.5305 38.8369C52.0797 38.6098 52.578 38.277 52.9964 37.8579C53.4149 37.4388 53.7451 36.9417 53.968 36.3953C54.1909 35.8489 54.3021 35.2642 54.2951 34.675C54.2952 34.5106 54.2861 34.3463 54.268 34.1828H58.4576ZM40.0738 12C44.1431 11.9993 48.1165 13.2228 51.4673 15.5083C54.8181 17.7939 57.3881 21.0335 58.8364 24.7978C60.2848 28.5621 60.5432 32.6732 59.5773 36.5862C58.6115 40.4992 56.467 44.0291 53.4282 46.7082C52.7877 47.2513 52.2766 47.9281 51.9317 48.6901C51.5869 49.452 51.4168 50.28 51.4337 51.1148V55.9986C51.4339 56.6273 51.3085 57.2498 51.0649 57.8304C50.8212 58.411 50.4639 58.9381 50.0137 59.3816C49.7135 59.6846 49.3723 59.9448 48.9998 60.155C48.8885 62.2694 47.9628 64.2612 46.413 65.7205C44.8633 67.1797 42.8074 67.9955 40.6685 68H39.4792C37.3402 67.9955 35.2844 67.1797 33.7346 65.7205C32.1849 64.2612 31.2591 62.2694 31.1478 60.155C30.7772 59.9421 30.4363 59.6821 30.1339 59.3816C29.6838 58.9381 29.3267 58.4109 29.0831 57.8303C28.8395 57.2498 28.7142 56.6272 28.7145 55.9986V51.1148C28.7314 50.2801 28.5613 49.4521 28.2166 48.6903C27.8718 47.9284 27.361 47.2515 26.7207 46.7082C23.6826 44.0289 21.5388 40.4991 20.5733 36.5864C19.6079 32.6738 19.8663 28.5632 21.3144 24.7992C22.7625 21.0353 25.3318 17.7958 28.682 15.51C32.0322 13.2243 36.0049 12.0002 40.0738 12Z" stroke="#2E74CE" mask="url(#path-2-outside-1_199_182)"/>
</svg>
