<svg width="80" height="80" viewBox="0 0 80 80" fill="none" xmlns="http://www.w3.org/2000/svg">
<circle cx="40" cy="40" r="40" fill="#FCFAEE"/>
<mask id="path-2-outside-1_199_192" maskUnits="userSpaceOnUse" x="14" y="16" width="51" height="48" fill="black">
<rect fill="white" x="14" y="16" width="51" height="48"/>
<path d="M63.9128 41.9566C63.927 41.7867 63.9411 41.6167 63.9505 41.4468C63.96 41.2936 63.9694 41.1404 63.9764 40.9872C63.9882 40.6903 63.9976 40.3935 63.9976 40.0943C63.9976 40.0632 64 40.0321 64 39.9986V39.9842V39.9627C64 34.335 61.9953 29.1787 58.676 25.1815C58.6359 25.1097 58.5818 25.0427 58.5111 24.99C54.6759 20.473 49.1447 17.4857 42.9324 17.0598C42.9018 17.0574 42.8735 17.0551 42.8429 17.0527C42.6568 17.0407 42.4683 17.0311 42.2799 17.0239C42.0349 17.0144 41.7899 17.0072 41.5448 17.0048C41.4954 17.0048 41.4483 17 41.3988 17H41.3776H41.3634H41.347H41.3281C32.7554 17 24.8822 21.9861 21.0804 29.7583C20.2489 29.3371 19.2924 28.99 18.3949 28.662C17.813 28.4514 17.2641 28.2503 16.8448 28.0612C16.4914 27.9032 16.0886 27.9367 15.7658 28.1521C15.4431 28.3676 15.2523 28.7314 15.257 29.124C15.2617 29.6314 15.2028 30.2993 15.1439 31.0054C14.9814 32.8988 14.7976 35.0436 15.5679 36.2357C16.2205 37.2435 17.2193 37.9329 18.3831 38.1771C18.5221 38.2058 18.6611 38.2273 18.8001 38.2417C18.7577 38.8138 18.7294 39.3907 18.7294 39.9652C18.7294 46.0476 21.0451 51.778 25.2523 56.1037C25.33 56.1827 25.4242 56.2282 25.5232 56.2593C26.4137 57.3053 27.1157 57.875 27.1369 57.8894C31.1464 61.1856 36.1993 63 41.3659 63C52.4311 63 61.6582 54.8903 63.6139 44.2142C63.621 44.1783 63.6257 44.1424 63.6328 44.1065C63.7576 43.4004 63.8519 42.6846 63.9131 41.9593L63.9128 41.9566ZM62.7326 39.9818C62.7326 40.0177 62.7303 40.056 62.7303 40.0919C62.7303 40.1134 62.7279 40.1326 62.7279 40.1541H59.8845C59.6913 40.1541 59.5147 40.0368 59.4369 39.8621L58.9045 37.4205C58.8975 37.3918 58.8904 37.363 58.8786 37.3367C58.6831 36.8005 58.1742 36.4415 57.6112 36.4415H55.6324C55.4651 36.4415 55.3026 36.5085 55.1848 36.6306L54.1317 37.7006C53.9739 37.8609 53.7548 37.9543 53.531 37.9543H52.0257C51.8372 37.8753 51.2012 37.466 49.9196 36.3697C49.5945 36.092 49.1799 35.9388 48.7559 35.9388H46.4307C45.5685 35.9388 44.8665 35.2255 44.8665 34.3493V33.2099C44.8665 32.0945 45.7617 31.1848 46.8594 31.1848H47.9361C48.2753 31.1848 48.5933 31.0508 48.8313 30.809L49.439 30.189C50.0869 29.5332 50.9444 29.1693 51.8584 29.1693H56.1247C56.3367 29.1693 56.5346 29.0616 56.6524 28.8844L58.1577 26.6032C61.0153 30.2919 62.7255 34.9384 62.7302 39.9866L62.7326 39.9818ZM16.6281 35.5247C16.098 34.7061 16.27 32.7145 16.4066 31.1131C16.4632 30.4644 16.515 29.8468 16.5244 29.3202C16.9484 29.4997 17.4478 29.6816 17.9685 29.8731C19.4879 30.4261 21.3772 31.113 21.9356 31.9772C22.402 32.6977 22.5646 33.5594 22.3926 34.4044C22.2983 34.8616 22.1122 35.2853 21.8484 35.6516C21.2359 34.4355 20.3902 33.222 19.2335 32.0849C18.9815 31.8384 18.581 31.8432 18.3383 32.0993C18.0956 32.3554 18.1004 32.7623 18.3524 33.0089C19.495 34.1339 20.3007 35.3404 20.8661 36.5444C20.1923 36.9394 19.4078 37.0734 18.6399 36.9131C17.8083 36.7383 17.0945 36.2452 16.6281 35.5247ZM19.9968 39.9603C19.9968 39.369 20.0274 38.7754 20.0745 38.1865C20.5174 38.1052 20.9461 37.952 21.3514 37.7341C22.1735 40.1039 22.1547 42.3444 22.0039 43.7591C21.6317 45.7578 21.7023 47.5819 22.0274 49.2072C20.6988 46.3515 19.9991 43.2085 19.9991 39.9602L19.9968 39.9603ZM41.3638 61.7071C36.4874 61.7071 31.717 59.9931 27.9242 56.8741C27.6651 56.6683 22.122 52.1705 23.1326 44.7139C23.1467 44.6756 23.1656 44.6397 23.1726 44.5966C23.2033 44.4051 23.2315 44.1849 23.2574 43.9455C23.3564 43.4356 23.4836 42.9138 23.6461 42.3776C24.195 40.5775 25.1679 38.9474 26.3717 37.4896C27.6957 38.7727 29.625 39.3471 31.6274 39.3471C33.8843 39.3471 36.2235 38.6266 37.8488 37.3962C41.1727 34.8804 42.1198 31.6537 42.9561 28.8098C43.2082 27.9528 43.4437 27.1461 43.7359 26.3921C43.9102 25.9373 43.8772 25.461 43.6393 25.054C43.3731 24.5944 42.8666 24.2737 42.2871 24.1971C37.6792 23.5771 32.4304 23.3545 28.4585 26.3778C26.2936 28.0246 24.8307 30.4974 24.6422 32.8262C24.5338 34.1714 24.8448 35.4138 25.5351 36.479C24.6187 37.5705 23.82 38.7578 23.2028 40.0408C23.0662 39.0642 22.8236 38.0205 22.4207 36.9553C23.0356 36.3353 23.4573 35.5478 23.6363 34.6693C23.8766 33.4892 23.6504 32.2828 22.9979 31.275C22.7976 30.9662 22.5196 30.6885 22.1851 30.4348C24.032 26.6215 26.9179 23.512 30.3972 21.3936C30.4019 21.3912 30.409 21.3888 30.4137 21.3864C30.6139 21.2644 30.8189 21.1447 31.0238 21.0274C31.0332 21.0226 31.0403 21.0178 31.0497 21.013C31.2146 20.9197 31.3795 20.8311 31.5468 20.7449C31.6151 20.709 31.6834 20.6707 31.7541 20.6348C31.8742 20.5726 31.9967 20.5127 32.1192 20.4529C32.23 20.3978 32.3407 20.3452 32.4514 20.2925C32.548 20.247 32.6446 20.2039 32.7388 20.1608C32.8731 20.101 33.0074 20.0412 33.144 19.9813C33.2288 19.9454 33.3136 19.9095 33.4008 19.876C33.5445 19.8161 33.6882 19.7587 33.8319 19.7036C33.919 19.6701 34.0062 19.6366 34.0934 19.6055C34.2347 19.5528 34.3761 19.5026 34.5174 19.4523C34.614 19.4188 34.7106 19.3853 34.8072 19.3541C34.9367 19.3111 35.0686 19.2704 35.1982 19.2297C35.3113 19.1938 35.4244 19.1603 35.5375 19.1267C35.6505 19.0932 35.7636 19.0621 35.8767 19.031C36.0086 18.9951 36.1429 18.9592 36.2748 18.9257C36.3667 18.9017 36.4586 18.8802 36.5528 18.8586C36.7059 18.8227 36.8614 18.7868 37.0145 18.7533C37.0852 18.739 37.1582 18.7246 37.2289 18.7102C37.4032 18.6743 37.5775 18.6408 37.7542 18.6097C37.8037 18.6001 37.8555 18.5929 37.9074 18.5834C38.1005 18.5499 38.2961 18.5187 38.4916 18.4924C38.5246 18.4876 38.5575 18.4852 38.5905 18.4804C38.8002 18.4517 39.0122 18.4254 39.2242 18.4038C39.2431 18.4014 39.2619 18.4014 39.2808 18.399C39.5046 18.3775 39.726 18.356 39.9498 18.3416C39.964 18.3416 39.9805 18.3392 39.9946 18.3392C40.2184 18.3248 40.4445 18.3129 40.6707 18.3033C40.7461 18.3009 40.8238 18.3009 40.8992 18.2985C41.057 18.2937 41.2125 18.2913 41.3704 18.2913C41.3939 18.2913 41.4175 18.2913 41.441 18.2937C41.7167 18.2937 41.9923 18.3033 42.2656 18.3153C42.3998 18.3201 42.5365 18.3272 42.6707 18.3368C42.8239 18.3464 42.9746 18.3584 43.1254 18.3727C43.4717 18.4014 43.818 18.4373 44.1596 18.4852C44.1878 18.49 44.2137 18.4924 44.242 18.4948C47.0949 18.8922 49.8464 19.8712 52.3202 21.3864C52.3603 21.4104 52.4003 21.4295 52.4427 21.4439C54.2637 22.5689 55.9034 23.9669 57.3144 25.5779L55.7903 27.8878H51.8609C50.6076 27.8878 49.4298 28.3833 48.544 29.2833L47.9362 29.9009H46.8596C45.0621 29.9009 43.5992 31.3874 43.5992 33.2137V34.3532C43.5992 35.9402 44.869 37.2304 46.4308 37.2304H48.756C48.8832 37.2304 49.0081 37.2759 49.1047 37.3597C51.3096 39.2459 51.7219 39.2459 51.9669 39.2459H53.5312C54.0895 39.2459 54.636 39.0161 55.0295 38.6164L55.8964 37.7355H57.6138C57.642 37.7355 57.6656 37.7499 57.6821 37.7714L58.2121 40.201C58.2192 40.2297 58.2263 40.2585 58.238 40.2872C58.4925 40.9837 59.1568 41.4505 59.8871 41.4505H62.6834C62.6739 41.5822 62.6645 41.7114 62.6551 41.8407C62.5962 42.5349 62.5067 43.2266 62.3842 43.9089C62.3818 43.928 62.3771 43.9472 62.3748 43.9663C62.2311 44.7443 62.0473 45.5126 61.8212 46.2691C61.8141 46.2882 61.8141 46.3098 61.8094 46.3289C59.1379 55.2242 50.9872 61.7131 41.3705 61.7131L41.3638 61.7071ZM25.9051 32.9248C26.0653 30.9499 27.3351 28.8339 29.2173 27.4001C32.8264 24.6545 37.7641 24.8819 42.1201 25.466C42.311 25.4923 42.4782 25.5833 42.5465 25.7006C42.5724 25.7461 42.5936 25.8083 42.5536 25.916C42.245 26.7203 42 27.5533 41.7408 28.4342C40.9234 31.2181 40.0777 34.0954 37.0929 36.3576C34.4757 38.3397 29.5424 38.8279 27.2176 36.5276C30.7206 32.8054 35.5991 30.3421 38.094 29.2433C38.4144 29.1021 38.5628 28.7215 38.4238 28.3959C38.2849 28.0704 37.9126 27.9196 37.5899 28.0608C34.4874 29.4277 29.8561 31.8788 26.4234 35.4787C26.0064 34.7199 25.8297 33.8653 25.9051 32.9222L25.9051 32.9248ZM55.0741 43.8497L52.3131 41.7456C51.663 41.2501 50.8573 40.9772 50.0446 40.9772H47.3614C46.6122 40.9772 45.8867 41.1998 45.2623 41.6235L43.2482 42.9879C42.6287 43.4092 42.2588 44.1106 42.2588 44.8694V46.2865C42.2588 47.3517 43.1116 48.2206 44.1622 48.2206H45.7406C46.0021 48.2206 46.2471 48.3235 46.4308 48.5102L46.6593 48.7424C46.8431 48.9291 46.9444 49.1781 46.9444 49.4438V55.9473C46.9444 56.8187 47.6416 57.5272 48.4992 57.5272H49.2412C49.8584 57.5272 50.4427 57.2543 50.8455 56.7779L55.6042 51.1503C56.1248 50.5327 56.4122 49.7475 56.4122 48.9337V46.5711C56.4122 45.5058 55.9128 44.4885 55.0741 43.8518L55.0741 43.8497ZM55.1448 48.9316C55.1448 49.4366 54.9657 49.9249 54.643 50.3079L49.8844 55.9356C49.7242 56.1271 49.4886 56.2348 49.2436 56.2348H48.5015C48.3437 56.2348 48.2141 56.1032 48.2141 55.9428V49.4392C48.2141 48.8288 47.9809 48.2567 47.5569 47.8258L47.3284 47.5936C46.9043 47.1628 46.3413 46.9258 45.7406 46.9258H44.1622C43.8112 46.9258 43.5261 46.6362 43.5261 46.2795V44.8624C43.5261 44.5369 43.6863 44.2353 43.9525 44.0534L45.9667 42.6889C46.3813 42.4088 46.8643 42.2604 47.3613 42.2604H50.0445C50.584 42.2604 51.1211 42.4424 51.5522 42.7727L54.3131 44.8768C54.8338 45.2741 55.1447 45.9061 55.1447 46.5667L55.1448 48.9316Z"/>
</mask>
<path d="M63.9128 41.9566C63.927 41.7867 63.9411 41.6167 63.9505 41.4468C63.96 41.2936 63.9694 41.1404 63.9764 40.9872C63.9882 40.6903 63.9976 40.3935 63.9976 40.0943C63.9976 40.0632 64 40.0321 64 39.9986V39.9842V39.9627C64 34.335 61.9953 29.1787 58.676 25.1815C58.6359 25.1097 58.5818 25.0427 58.5111 24.99C54.6759 20.473 49.1447 17.4857 42.9324 17.0598C42.9018 17.0574 42.8735 17.0551 42.8429 17.0527C42.6568 17.0407 42.4683 17.0311 42.2799 17.0239C42.0349 17.0144 41.7899 17.0072 41.5448 17.0048C41.4954 17.0048 41.4483 17 41.3988 17H41.3776H41.3634H41.347H41.3281C32.7554 17 24.8822 21.9861 21.0804 29.7583C20.2489 29.3371 19.2924 28.99 18.3949 28.662C17.813 28.4514 17.2641 28.2503 16.8448 28.0612C16.4914 27.9032 16.0886 27.9367 15.7658 28.1521C15.4431 28.3676 15.2523 28.7314 15.257 29.124C15.2617 29.6314 15.2028 30.2993 15.1439 31.0054C14.9814 32.8988 14.7976 35.0436 15.5679 36.2357C16.2205 37.2435 17.2193 37.9329 18.3831 38.1771C18.5221 38.2058 18.6611 38.2273 18.8001 38.2417C18.7577 38.8138 18.7294 39.3907 18.7294 39.9652C18.7294 46.0476 21.0451 51.778 25.2523 56.1037C25.33 56.1827 25.4242 56.2282 25.5232 56.2593C26.4137 57.3053 27.1157 57.875 27.1369 57.8894C31.1464 61.1856 36.1993 63 41.3659 63C52.4311 63 61.6582 54.8903 63.6139 44.2142C63.621 44.1783 63.6257 44.1424 63.6328 44.1065C63.7576 43.4004 63.8519 42.6846 63.9131 41.9593L63.9128 41.9566ZM62.7326 39.9818C62.7326 40.0177 62.7303 40.056 62.7303 40.0919C62.7303 40.1134 62.7279 40.1326 62.7279 40.1541H59.8845C59.6913 40.1541 59.5147 40.0368 59.4369 39.8621L58.9045 37.4205C58.8975 37.3918 58.8904 37.363 58.8786 37.3367C58.6831 36.8005 58.1742 36.4415 57.6112 36.4415H55.6324C55.4651 36.4415 55.3026 36.5085 55.1848 36.6306L54.1317 37.7006C53.9739 37.8609 53.7548 37.9543 53.531 37.9543H52.0257C51.8372 37.8753 51.2012 37.466 49.9196 36.3697C49.5945 36.092 49.1799 35.9388 48.7559 35.9388H46.4307C45.5685 35.9388 44.8665 35.2255 44.8665 34.3493V33.2099C44.8665 32.0945 45.7617 31.1848 46.8594 31.1848H47.9361C48.2753 31.1848 48.5933 31.0508 48.8313 30.809L49.439 30.189C50.0869 29.5332 50.9444 29.1693 51.8584 29.1693H56.1247C56.3367 29.1693 56.5346 29.0616 56.6524 28.8844L58.1577 26.6032C61.0153 30.2919 62.7255 34.9384 62.7302 39.9866L62.7326 39.9818ZM16.6281 35.5247C16.098 34.7061 16.27 32.7145 16.4066 31.1131C16.4632 30.4644 16.515 29.8468 16.5244 29.3202C16.9484 29.4997 17.4478 29.6816 17.9685 29.8731C19.4879 30.4261 21.3772 31.113 21.9356 31.9772C22.402 32.6977 22.5646 33.5594 22.3926 34.4044C22.2983 34.8616 22.1122 35.2853 21.8484 35.6516C21.2359 34.4355 20.3902 33.222 19.2335 32.0849C18.9815 31.8384 18.581 31.8432 18.3383 32.0993C18.0956 32.3554 18.1004 32.7623 18.3524 33.0089C19.495 34.1339 20.3007 35.3404 20.8661 36.5444C20.1923 36.9394 19.4078 37.0734 18.6399 36.9131C17.8083 36.7383 17.0945 36.2452 16.6281 35.5247ZM19.9968 39.9603C19.9968 39.369 20.0274 38.7754 20.0745 38.1865C20.5174 38.1052 20.9461 37.952 21.3514 37.7341C22.1735 40.1039 22.1547 42.3444 22.0039 43.7591C21.6317 45.7578 21.7023 47.5819 22.0274 49.2072C20.6988 46.3515 19.9991 43.2085 19.9991 39.9602L19.9968 39.9603ZM41.3638 61.7071C36.4874 61.7071 31.717 59.9931 27.9242 56.8741C27.6651 56.6683 22.122 52.1705 23.1326 44.7139C23.1467 44.6756 23.1656 44.6397 23.1726 44.5966C23.2033 44.4051 23.2315 44.1849 23.2574 43.9455C23.3564 43.4356 23.4836 42.9138 23.6461 42.3776C24.195 40.5775 25.1679 38.9474 26.3717 37.4896C27.6957 38.7727 29.625 39.3471 31.6274 39.3471C33.8843 39.3471 36.2235 38.6266 37.8488 37.3962C41.1727 34.8804 42.1198 31.6537 42.9561 28.8098C43.2082 27.9528 43.4437 27.1461 43.7359 26.3921C43.9102 25.9373 43.8772 25.461 43.6393 25.054C43.3731 24.5944 42.8666 24.2737 42.2871 24.1971C37.6792 23.5771 32.4304 23.3545 28.4585 26.3778C26.2936 28.0246 24.8307 30.4974 24.6422 32.8262C24.5338 34.1714 24.8448 35.4138 25.5351 36.479C24.6187 37.5705 23.82 38.7578 23.2028 40.0408C23.0662 39.0642 22.8236 38.0205 22.4207 36.9553C23.0356 36.3353 23.4573 35.5478 23.6363 34.6693C23.8766 33.4892 23.6504 32.2828 22.9979 31.275C22.7976 30.9662 22.5196 30.6885 22.1851 30.4348C24.032 26.6215 26.9179 23.512 30.3972 21.3936C30.4019 21.3912 30.409 21.3888 30.4137 21.3864C30.6139 21.2644 30.8189 21.1447 31.0238 21.0274C31.0332 21.0226 31.0403 21.0178 31.0497 21.013C31.2146 20.9197 31.3795 20.8311 31.5468 20.7449C31.6151 20.709 31.6834 20.6707 31.7541 20.6348C31.8742 20.5726 31.9967 20.5127 32.1192 20.4529C32.23 20.3978 32.3407 20.3452 32.4514 20.2925C32.548 20.247 32.6446 20.2039 32.7388 20.1608C32.8731 20.101 33.0074 20.0412 33.144 19.9813C33.2288 19.9454 33.3136 19.9095 33.4008 19.876C33.5445 19.8161 33.6882 19.7587 33.8319 19.7036C33.919 19.6701 34.0062 19.6366 34.0934 19.6055C34.2347 19.5528 34.3761 19.5026 34.5174 19.4523C34.614 19.4188 34.7106 19.3853 34.8072 19.3541C34.9367 19.3111 35.0686 19.2704 35.1982 19.2297C35.3113 19.1938 35.4244 19.1603 35.5375 19.1267C35.6505 19.0932 35.7636 19.0621 35.8767 19.031C36.0086 18.9951 36.1429 18.9592 36.2748 18.9257C36.3667 18.9017 36.4586 18.8802 36.5528 18.8586C36.7059 18.8227 36.8614 18.7868 37.0145 18.7533C37.0852 18.739 37.1582 18.7246 37.2289 18.7102C37.4032 18.6743 37.5775 18.6408 37.7542 18.6097C37.8037 18.6001 37.8555 18.5929 37.9074 18.5834C38.1005 18.5499 38.2961 18.5187 38.4916 18.4924C38.5246 18.4876 38.5575 18.4852 38.5905 18.4804C38.8002 18.4517 39.0122 18.4254 39.2242 18.4038C39.2431 18.4014 39.2619 18.4014 39.2808 18.399C39.5046 18.3775 39.726 18.356 39.9498 18.3416C39.964 18.3416 39.9805 18.3392 39.9946 18.3392C40.2184 18.3248 40.4445 18.3129 40.6707 18.3033C40.7461 18.3009 40.8238 18.3009 40.8992 18.2985C41.057 18.2937 41.2125 18.2913 41.3704 18.2913C41.3939 18.2913 41.4175 18.2913 41.441 18.2937C41.7167 18.2937 41.9923 18.3033 42.2656 18.3153C42.3998 18.3201 42.5365 18.3272 42.6707 18.3368C42.8239 18.3464 42.9746 18.3584 43.1254 18.3727C43.4717 18.4014 43.818 18.4373 44.1596 18.4852C44.1878 18.49 44.2137 18.4924 44.242 18.4948C47.0949 18.8922 49.8464 19.8712 52.3202 21.3864C52.3603 21.4104 52.4003 21.4295 52.4427 21.4439C54.2637 22.5689 55.9034 23.9669 57.3144 25.5779L55.7903 27.8878H51.8609C50.6076 27.8878 49.4298 28.3833 48.544 29.2833L47.9362 29.9009H46.8596C45.0621 29.9009 43.5992 31.3874 43.5992 33.2137V34.3532C43.5992 35.9402 44.869 37.2304 46.4308 37.2304H48.756C48.8832 37.2304 49.0081 37.2759 49.1047 37.3597C51.3096 39.2459 51.7219 39.2459 51.9669 39.2459H53.5312C54.0895 39.2459 54.636 39.0161 55.0295 38.6164L55.8964 37.7355H57.6138C57.642 37.7355 57.6656 37.7499 57.6821 37.7714L58.2121 40.201C58.2192 40.2297 58.2263 40.2585 58.238 40.2872C58.4925 40.9837 59.1568 41.4505 59.8871 41.4505H62.6834C62.6739 41.5822 62.6645 41.7114 62.6551 41.8407C62.5962 42.5349 62.5067 43.2266 62.3842 43.9089C62.3818 43.928 62.3771 43.9472 62.3748 43.9663C62.2311 44.7443 62.0473 45.5126 61.8212 46.2691C61.8141 46.2882 61.8141 46.3098 61.8094 46.3289C59.1379 55.2242 50.9872 61.7131 41.3705 61.7131L41.3638 61.7071ZM25.9051 32.9248C26.0653 30.9499 27.3351 28.8339 29.2173 27.4001C32.8264 24.6545 37.7641 24.8819 42.1201 25.466C42.311 25.4923 42.4782 25.5833 42.5465 25.7006C42.5724 25.7461 42.5936 25.8083 42.5536 25.916C42.245 26.7203 42 27.5533 41.7408 28.4342C40.9234 31.2181 40.0777 34.0954 37.0929 36.3576C34.4757 38.3397 29.5424 38.8279 27.2176 36.5276C30.7206 32.8054 35.5991 30.3421 38.094 29.2433C38.4144 29.1021 38.5628 28.7215 38.4238 28.3959C38.2849 28.0704 37.9126 27.9196 37.5899 28.0608C34.4874 29.4277 29.8561 31.8788 26.4234 35.4787C26.0064 34.7199 25.8297 33.8653 25.9051 32.9222L25.9051 32.9248ZM55.0741 43.8497L52.3131 41.7456C51.663 41.2501 50.8573 40.9772 50.0446 40.9772H47.3614C46.6122 40.9772 45.8867 41.1998 45.2623 41.6235L43.2482 42.9879C42.6287 43.4092 42.2588 44.1106 42.2588 44.8694V46.2865C42.2588 47.3517 43.1116 48.2206 44.1622 48.2206H45.7406C46.0021 48.2206 46.2471 48.3235 46.4308 48.5102L46.6593 48.7424C46.8431 48.9291 46.9444 49.1781 46.9444 49.4438V55.9473C46.9444 56.8187 47.6416 57.5272 48.4992 57.5272H49.2412C49.8584 57.5272 50.4427 57.2543 50.8455 56.7779L55.6042 51.1503C56.1248 50.5327 56.4122 49.7475 56.4122 48.9337V46.5711C56.4122 45.5058 55.9128 44.4885 55.0741 43.8518L55.0741 43.8497ZM55.1448 48.9316C55.1448 49.4366 54.9657 49.9249 54.643 50.3079L49.8844 55.9356C49.7242 56.1271 49.4886 56.2348 49.2436 56.2348H48.5015C48.3437 56.2348 48.2141 56.1032 48.2141 55.9428V49.4392C48.2141 48.8288 47.9809 48.2567 47.5569 47.8258L47.3284 47.5936C46.9043 47.1628 46.3413 46.9258 45.7406 46.9258H44.1622C43.8112 46.9258 43.5261 46.6362 43.5261 46.2795V44.8624C43.5261 44.5369 43.6863 44.2353 43.9525 44.0534L45.9667 42.6889C46.3813 42.4088 46.8643 42.2604 47.3613 42.2604H50.0445C50.584 42.2604 51.1211 42.4424 51.5522 42.7727L54.3131 44.8768C54.8338 45.2741 55.1447 45.9061 55.1447 46.5667L55.1448 48.9316Z" fill="#2E74CE"/>
<path d="M63.9128 41.9566C63.927 41.7867 63.9411 41.6167 63.9505 41.4468C63.96 41.2936 63.9694 41.1404 63.9764 40.9872C63.9882 40.6903 63.9976 40.3935 63.9976 40.0943C63.9976 40.0632 64 40.0321 64 39.9986V39.9842V39.9627C64 34.335 61.9953 29.1787 58.676 25.1815C58.6359 25.1097 58.5818 25.0427 58.5111 24.99C54.6759 20.473 49.1447 17.4857 42.9324 17.0598C42.9018 17.0574 42.8735 17.0551 42.8429 17.0527C42.6568 17.0407 42.4683 17.0311 42.2799 17.0239C42.0349 17.0144 41.7899 17.0072 41.5448 17.0048C41.4954 17.0048 41.4483 17 41.3988 17H41.3776H41.3634H41.347H41.3281C32.7554 17 24.8822 21.9861 21.0804 29.7583C20.2489 29.3371 19.2924 28.99 18.3949 28.662C17.813 28.4514 17.2641 28.2503 16.8448 28.0612C16.4914 27.9032 16.0886 27.9367 15.7658 28.1521C15.4431 28.3676 15.2523 28.7314 15.257 29.124C15.2617 29.6314 15.2028 30.2993 15.1439 31.0054C14.9814 32.8988 14.7976 35.0436 15.5679 36.2357C16.2205 37.2435 17.2193 37.9329 18.3831 38.1771C18.5221 38.2058 18.6611 38.2273 18.8001 38.2417C18.7577 38.8138 18.7294 39.3907 18.7294 39.9652C18.7294 46.0476 21.0451 51.778 25.2523 56.1037C25.33 56.1827 25.4242 56.2282 25.5232 56.2593C26.4137 57.3053 27.1157 57.875 27.1369 57.8894C31.1464 61.1856 36.1993 63 41.3659 63C52.4311 63 61.6582 54.8903 63.6139 44.2142C63.621 44.1783 63.6257 44.1424 63.6328 44.1065C63.7576 43.4004 63.8519 42.6846 63.9131 41.9593L63.9128 41.9566ZM62.7326 39.9818C62.7326 40.0177 62.7303 40.056 62.7303 40.0919C62.7303 40.1134 62.7279 40.1326 62.7279 40.1541H59.8845C59.6913 40.1541 59.5147 40.0368 59.4369 39.8621L58.9045 37.4205C58.8975 37.3918 58.8904 37.363 58.8786 37.3367C58.6831 36.8005 58.1742 36.4415 57.6112 36.4415H55.6324C55.4651 36.4415 55.3026 36.5085 55.1848 36.6306L54.1317 37.7006C53.9739 37.8609 53.7548 37.9543 53.531 37.9543H52.0257C51.8372 37.8753 51.2012 37.466 49.9196 36.3697C49.5945 36.092 49.1799 35.9388 48.7559 35.9388H46.4307C45.5685 35.9388 44.8665 35.2255 44.8665 34.3493V33.2099C44.8665 32.0945 45.7617 31.1848 46.8594 31.1848H47.9361C48.2753 31.1848 48.5933 31.0508 48.8313 30.809L49.439 30.189C50.0869 29.5332 50.9444 29.1693 51.8584 29.1693H56.1247C56.3367 29.1693 56.5346 29.0616 56.6524 28.8844L58.1577 26.6032C61.0153 30.2919 62.7255 34.9384 62.7302 39.9866L62.7326 39.9818ZM16.6281 35.5247C16.098 34.7061 16.27 32.7145 16.4066 31.1131C16.4632 30.4644 16.515 29.8468 16.5244 29.3202C16.9484 29.4997 17.4478 29.6816 17.9685 29.8731C19.4879 30.4261 21.3772 31.113 21.9356 31.9772C22.402 32.6977 22.5646 33.5594 22.3926 34.4044C22.2983 34.8616 22.1122 35.2853 21.8484 35.6516C21.2359 34.4355 20.3902 33.222 19.2335 32.0849C18.9815 31.8384 18.581 31.8432 18.3383 32.0993C18.0956 32.3554 18.1004 32.7623 18.3524 33.0089C19.495 34.1339 20.3007 35.3404 20.8661 36.5444C20.1923 36.9394 19.4078 37.0734 18.6399 36.9131C17.8083 36.7383 17.0945 36.2452 16.6281 35.5247ZM19.9968 39.9603C19.9968 39.369 20.0274 38.7754 20.0745 38.1865C20.5174 38.1052 20.9461 37.952 21.3514 37.7341C22.1735 40.1039 22.1547 42.3444 22.0039 43.7591C21.6317 45.7578 21.7023 47.5819 22.0274 49.2072C20.6988 46.3515 19.9991 43.2085 19.9991 39.9602L19.9968 39.9603ZM41.3638 61.7071C36.4874 61.7071 31.717 59.9931 27.9242 56.8741C27.6651 56.6683 22.122 52.1705 23.1326 44.7139C23.1467 44.6756 23.1656 44.6397 23.1726 44.5966C23.2033 44.4051 23.2315 44.1849 23.2574 43.9455C23.3564 43.4356 23.4836 42.9138 23.6461 42.3776C24.195 40.5775 25.1679 38.9474 26.3717 37.4896C27.6957 38.7727 29.625 39.3471 31.6274 39.3471C33.8843 39.3471 36.2235 38.6266 37.8488 37.3962C41.1727 34.8804 42.1198 31.6537 42.9561 28.8098C43.2082 27.9528 43.4437 27.1461 43.7359 26.3921C43.9102 25.9373 43.8772 25.461 43.6393 25.054C43.3731 24.5944 42.8666 24.2737 42.2871 24.1971C37.6792 23.5771 32.4304 23.3545 28.4585 26.3778C26.2936 28.0246 24.8307 30.4974 24.6422 32.8262C24.5338 34.1714 24.8448 35.4138 25.5351 36.479C24.6187 37.5705 23.82 38.7578 23.2028 40.0408C23.0662 39.0642 22.8236 38.0205 22.4207 36.9553C23.0356 36.3353 23.4573 35.5478 23.6363 34.6693C23.8766 33.4892 23.6504 32.2828 22.9979 31.275C22.7976 30.9662 22.5196 30.6885 22.1851 30.4348C24.032 26.6215 26.9179 23.512 30.3972 21.3936C30.4019 21.3912 30.409 21.3888 30.4137 21.3864C30.6139 21.2644 30.8189 21.1447 31.0238 21.0274C31.0332 21.0226 31.0403 21.0178 31.0497 21.013C31.2146 20.9197 31.3795 20.8311 31.5468 20.7449C31.6151 20.709 31.6834 20.6707 31.7541 20.6348C31.8742 20.5726 31.9967 20.5127 32.1192 20.4529C32.23 20.3978 32.3407 20.3452 32.4514 20.2925C32.548 20.247 32.6446 20.2039 32.7388 20.1608C32.8731 20.101 33.0074 20.0412 33.144 19.9813C33.2288 19.9454 33.3136 19.9095 33.4008 19.876C33.5445 19.8161 33.6882 19.7587 33.8319 19.7036C33.919 19.6701 34.0062 19.6366 34.0934 19.6055C34.2347 19.5528 34.3761 19.5026 34.5174 19.4523C34.614 19.4188 34.7106 19.3853 34.8072 19.3541C34.9367 19.3111 35.0686 19.2704 35.1982 19.2297C35.3113 19.1938 35.4244 19.1603 35.5375 19.1267C35.6505 19.0932 35.7636 19.0621 35.8767 19.031C36.0086 18.9951 36.1429 18.9592 36.2748 18.9257C36.3667 18.9017 36.4586 18.8802 36.5528 18.8586C36.7059 18.8227 36.8614 18.7868 37.0145 18.7533C37.0852 18.739 37.1582 18.7246 37.2289 18.7102C37.4032 18.6743 37.5775 18.6408 37.7542 18.6097C37.8037 18.6001 37.8555 18.5929 37.9074 18.5834C38.1005 18.5499 38.2961 18.5187 38.4916 18.4924C38.5246 18.4876 38.5575 18.4852 38.5905 18.4804C38.8002 18.4517 39.0122 18.4254 39.2242 18.4038C39.2431 18.4014 39.2619 18.4014 39.2808 18.399C39.5046 18.3775 39.726 18.356 39.9498 18.3416C39.964 18.3416 39.9805 18.3392 39.9946 18.3392C40.2184 18.3248 40.4445 18.3129 40.6707 18.3033C40.7461 18.3009 40.8238 18.3009 40.8992 18.2985C41.057 18.2937 41.2125 18.2913 41.3704 18.2913C41.3939 18.2913 41.4175 18.2913 41.441 18.2937C41.7167 18.2937 41.9923 18.3033 42.2656 18.3153C42.3998 18.3201 42.5365 18.3272 42.6707 18.3368C42.8239 18.3464 42.9746 18.3584 43.1254 18.3727C43.4717 18.4014 43.818 18.4373 44.1596 18.4852C44.1878 18.49 44.2137 18.4924 44.242 18.4948C47.0949 18.8922 49.8464 19.8712 52.3202 21.3864C52.3603 21.4104 52.4003 21.4295 52.4427 21.4439C54.2637 22.5689 55.9034 23.9669 57.3144 25.5779L55.7903 27.8878H51.8609C50.6076 27.8878 49.4298 28.3833 48.544 29.2833L47.9362 29.9009H46.8596C45.0621 29.9009 43.5992 31.3874 43.5992 33.2137V34.3532C43.5992 35.9402 44.869 37.2304 46.4308 37.2304H48.756C48.8832 37.2304 49.0081 37.2759 49.1047 37.3597C51.3096 39.2459 51.7219 39.2459 51.9669 39.2459H53.5312C54.0895 39.2459 54.636 39.0161 55.0295 38.6164L55.8964 37.7355H57.6138C57.642 37.7355 57.6656 37.7499 57.6821 37.7714L58.2121 40.201C58.2192 40.2297 58.2263 40.2585 58.238 40.2872C58.4925 40.9837 59.1568 41.4505 59.8871 41.4505H62.6834C62.6739 41.5822 62.6645 41.7114 62.6551 41.8407C62.5962 42.5349 62.5067 43.2266 62.3842 43.9089C62.3818 43.928 62.3771 43.9472 62.3748 43.9663C62.2311 44.7443 62.0473 45.5126 61.8212 46.2691C61.8141 46.2882 61.8141 46.3098 61.8094 46.3289C59.1379 55.2242 50.9872 61.7131 41.3705 61.7131L41.3638 61.7071ZM25.9051 32.9248C26.0653 30.9499 27.3351 28.8339 29.2173 27.4001C32.8264 24.6545 37.7641 24.8819 42.1201 25.466C42.311 25.4923 42.4782 25.5833 42.5465 25.7006C42.5724 25.7461 42.5936 25.8083 42.5536 25.916C42.245 26.7203 42 27.5533 41.7408 28.4342C40.9234 31.2181 40.0777 34.0954 37.0929 36.3576C34.4757 38.3397 29.5424 38.8279 27.2176 36.5276C30.7206 32.8054 35.5991 30.3421 38.094 29.2433C38.4144 29.1021 38.5628 28.7215 38.4238 28.3959C38.2849 28.0704 37.9126 27.9196 37.5899 28.0608C34.4874 29.4277 29.8561 31.8788 26.4234 35.4787C26.0064 34.7199 25.8297 33.8653 25.9051 32.9222L25.9051 32.9248ZM55.0741 43.8497L52.3131 41.7456C51.663 41.2501 50.8573 40.9772 50.0446 40.9772H47.3614C46.6122 40.9772 45.8867 41.1998 45.2623 41.6235L43.2482 42.9879C42.6287 43.4092 42.2588 44.1106 42.2588 44.8694V46.2865C42.2588 47.3517 43.1116 48.2206 44.1622 48.2206H45.7406C46.0021 48.2206 46.2471 48.3235 46.4308 48.5102L46.6593 48.7424C46.8431 48.9291 46.9444 49.1781 46.9444 49.4438V55.9473C46.9444 56.8187 47.6416 57.5272 48.4992 57.5272H49.2412C49.8584 57.5272 50.4427 57.2543 50.8455 56.7779L55.6042 51.1503C56.1248 50.5327 56.4122 49.7475 56.4122 48.9337V46.5711C56.4122 45.5058 55.9128 44.4885 55.0741 43.8518L55.0741 43.8497ZM55.1448 48.9316C55.1448 49.4366 54.9657 49.9249 54.643 50.3079L49.8844 55.9356C49.7242 56.1271 49.4886 56.2348 49.2436 56.2348H48.5015C48.3437 56.2348 48.2141 56.1032 48.2141 55.9428V49.4392C48.2141 48.8288 47.9809 48.2567 47.5569 47.8258L47.3284 47.5936C46.9043 47.1628 46.3413 46.9258 45.7406 46.9258H44.1622C43.8112 46.9258 43.5261 46.6362 43.5261 46.2795V44.8624C43.5261 44.5369 43.6863 44.2353 43.9525 44.0534L45.9667 42.6889C46.3813 42.4088 46.8643 42.2604 47.3613 42.2604H50.0445C50.584 42.2604 51.1211 42.4424 51.5522 42.7727L54.3131 44.8768C54.8338 45.2741 55.1447 45.9061 55.1447 46.5667L55.1448 48.9316Z" stroke="#2E74CE" mask="url(#path-2-outside-1_199_192)"/>
</svg>
