<svg width="80" height="80" viewBox="0 0 80 80" fill="none" xmlns="http://www.w3.org/2000/svg">
<circle cx="40" cy="40" r="40" fill="#FCFAEE"/>
<mask id="path-2-outside-1_199_185" maskUnits="userSpaceOnUse" x="12" y="11" width="55" height="57" fill="black">
<rect fill="white" x="12" y="11" width="55" height="57"/>
<path fill-rule="evenodd" clip-rule="evenodd" d="M39.4978 36.3509C42.4879 36.3509 45.1947 37.5445 47.1537 39.4781C49.1124 41.4094 50.3254 44.0782 50.3254 47.0267C50.3254 49.9749 49.1149 52.6437 47.1537 54.5752C45.195 56.5065 42.4882 57.7025 39.4978 57.7025C36.5074 57.7025 33.8009 56.5089 31.8419 54.5752C29.8832 52.644 28.6702 49.9752 28.6702 47.0267C28.6702 44.0785 29.8807 41.4096 31.8419 39.4781C33.8006 37.5469 36.5074 36.3509 39.4978 36.3509ZM35.4714 30.9702L35.0744 31.0776C34.394 31.2614 33.7282 31.4858 33.0818 31.7484H33.0794C32.4281 32.0134 31.7962 32.319 31.1885 32.6627L30.8301 32.8633L27.535 31.1922C27.2832 31.0633 26.983 31.1182 26.7917 31.3068L26.7893 31.3044L23.5522 34.4961C23.3391 34.7062 23.3077 35.0261 23.4578 35.2672L25.1332 38.4779L24.9298 38.8312C24.5836 39.4256 24.2737 40.0511 24.0025 40.698C23.7362 41.333 23.5062 41.9895 23.3221 42.6626L23.2132 43.0541L19.6832 44.1689C19.412 44.2549 19.2401 44.5008 19.2401 44.7657H19.2377V49.2799C19.2377 49.5783 19.4483 49.8289 19.7316 49.8934L23.2108 50.9939L23.3197 51.3854C23.5062 52.0562 23.7338 52.7127 24.0001 53.35C24.2713 53.9969 24.5812 54.62 24.9274 55.2168L25.1308 55.5701L23.436 58.8191C23.3052 59.0673 23.3609 59.3633 23.5522 59.5519L23.5498 59.5543L26.7869 62.746C26.9999 62.9561 27.3244 62.9871 27.5689 62.8391L30.8253 61.1872L31.1836 61.3877C31.7865 61.7291 32.4208 62.0346 33.077 62.302C33.721 62.5646 34.3868 62.7914 35.0695 62.9728L35.4666 63.0802L36.5973 66.5608C36.6844 66.8281 36.9338 66.9976 37.2025 66.9976V67H41.7809C42.0836 67 42.3378 66.7923 42.4031 66.513L43.5193 63.0826L43.9164 62.9752C44.5967 62.7914 45.2625 62.567 45.9089 62.3044C46.5651 62.037 47.1994 61.7314 47.8023 61.3901L48.1606 61.1895L51.4558 62.8606C51.7076 62.9895 52.0078 62.9346 52.199 62.746L52.2015 62.7484L55.4385 59.5567C55.6516 59.3466 55.6831 59.0267 55.533 58.7856L53.8576 55.5749L54.0609 55.2216C54.4071 54.6272 54.7171 54.0017 54.9882 53.3548C55.2546 52.7198 55.4846 52.0633 55.6686 51.3902L55.7775 50.9987L59.3076 49.8839C59.5787 49.7979 59.7506 49.552 59.7506 49.2871H59.753V44.7729C59.753 44.4745 59.5424 44.2239 59.2591 44.1594L55.7799 43.0589L55.671 42.6674C55.4846 41.9966 55.257 41.3401 54.9906 40.7028V40.7004C54.7219 40.0582 54.412 39.4352 54.0633 38.836L53.86 38.4827L55.5548 35.2337C55.6855 34.9855 55.6298 34.6895 55.4385 34.5009L55.441 34.4985L52.2039 31.3068C51.9908 31.0967 51.6664 31.0657 51.4219 31.2137L48.1654 32.8656L47.8071 32.6651C47.2042 32.3237 46.5699 32.0182 45.9138 31.7508C45.2697 31.4882 44.6039 31.2614 43.9212 31.08L43.5241 30.9725L42.3935 27.492C42.3063 27.2247 42.0569 27.0552 41.7882 27.0552V27.0528H37.2098C36.9072 27.0528 36.653 27.2605 36.5876 27.5398L35.4714 30.9702ZM37.6747 28.3108L36.5804 31.6768C36.5101 31.8964 36.3261 32.0492 36.1131 32.0969L35.4109 32.2855C34.7863 32.4526 34.1737 32.6603 33.5709 32.9062C32.9728 33.1496 32.3918 33.4337 31.8252 33.7512L31.1691 34.1212C30.9633 34.2382 30.7188 34.2286 30.5275 34.1164L27.3703 32.5146L24.7893 35.0594L26.4284 38.2033C26.5301 38.3991 26.518 38.6235 26.4163 38.8025L26.041 39.4518C25.7142 40.0152 25.4285 40.5881 25.1839 41.1706C24.9346 41.765 24.7239 42.3713 24.552 42.9873L24.3535 43.7082C24.2954 43.9207 24.1332 44.0782 23.9346 44.1403L20.5208 45.2193V48.8191L23.9346 49.8981C24.1574 49.9674 24.3123 50.1488 24.3608 50.3589L24.552 51.0511C24.7215 51.667 24.9322 52.2734 25.1839 52.8678C25.4285 53.4503 25.7142 54.0232 26.041 54.5866L26.4163 55.2359C26.5349 55.4388 26.5252 55.6799 26.4114 55.8685L24.7869 58.9815L27.3678 61.5262L30.5564 59.9101C30.755 59.8098 30.9826 59.8218 31.1641 59.922L31.8203 60.2921C32.3917 60.6143 32.9728 60.896 33.5635 61.1371C34.1664 61.383 34.7813 61.5907 35.406 61.7602L36.1372 61.9559C36.3527 62.0132 36.5125 62.1731 36.5754 62.3689L37.6698 65.7348H41.3208L42.4152 62.3689C42.4854 62.1493 42.6694 61.9965 42.8824 61.9487L43.5846 61.7602C44.2092 61.593 44.8242 61.3854 45.4271 61.1371C46.0178 60.896 46.6013 60.6143 47.1703 60.2921L47.8264 59.922C48.0322 59.8051 48.2768 59.8146 48.4681 59.9268L51.6253 61.5286L54.2062 58.9839L52.5671 55.84C52.4654 55.6442 52.4775 55.4198 52.5792 55.2408L52.9545 54.5915C53.2814 54.0281 53.5671 53.4551 53.8116 52.8727C54.061 52.2783 54.2716 51.672 54.4435 51.056L54.642 50.3351C54.7001 50.1226 54.8623 49.9651 55.0609 49.903L58.4747 48.824V45.2241L55.0609 44.1451C54.8381 44.0759 54.6832 43.8945 54.6347 43.6844L54.4435 42.9921C54.274 42.3762 54.0634 41.7723 53.814 41.1778C53.567 40.5906 53.2813 40.0153 52.9569 39.4567L52.5816 38.8074C52.463 38.6045 52.4727 38.3634 52.5865 38.1747L54.2111 35.0618L51.6301 32.5171L48.4415 34.1332C48.243 34.2334 48.0154 34.2215 47.8338 34.1212L47.1777 33.7512C46.6063 33.4289 46.0252 33.1473 45.4344 32.9062C44.8316 32.6603 44.2166 32.4526 43.5919 32.2831L42.8607 32.0874C42.6453 32.0301 42.4855 31.8701 42.4225 31.6744L41.3282 28.3085H37.6771L37.6747 28.3108ZM41.3064 42.6722C40.844 42.2162 40.2072 41.9345 39.5002 41.9345C38.7957 41.9345 38.1565 42.2162 37.694 42.6722C37.2316 43.1281 36.9459 43.7559 36.9459 44.453C36.9459 45.1477 37.2316 45.7779 37.694 46.2339C38.1565 46.6898 38.7932 46.9715 39.5002 46.9715C40.2048 46.9715 40.844 46.6898 41.3064 46.2339C41.7689 45.7779 42.0545 45.1501 42.0545 44.453C42.0545 43.7584 41.7688 43.1281 41.3064 42.6722ZM39.5002 40.6765C38.4422 40.6765 37.4858 41.099 36.791 41.7818C36.0985 42.4645 35.67 43.4098 35.67 44.453C35.67 45.4962 36.0985 46.4392 36.791 47.1243C37.4834 47.807 38.4422 48.2296 39.5002 48.2296C40.5582 48.2296 41.5146 47.807 42.2095 47.1243C42.9019 46.4415 43.3305 45.4962 43.3305 44.453C43.3305 43.4098 42.9019 42.4669 42.2095 41.7818C41.517 41.099 40.5582 40.6765 39.5002 40.6765ZM47.0563 52.7822C46.8481 52.3071 46.5237 51.8536 46.1266 51.5122C45.7344 51.1756 45.2768 50.9584 44.7974 50.9584H34.2049C33.7376 50.9584 33.2921 51.178 32.9071 51.5122C32.51 51.8583 32.1832 52.3238 31.9677 52.8108C32.2098 53.1188 32.4713 53.41 32.7497 53.6845C34.4784 55.389 36.8657 56.4417 39.5026 56.4417C42.1392 56.4417 44.5265 55.389 46.2554 53.6845C46.5435 53.4005 46.8099 53.1021 47.0593 52.7845L47.0563 52.7822ZM31.1662 51.6244C31.4156 51.2329 31.7183 50.8724 32.0621 50.5716C32.6673 50.0417 33.4034 49.6979 34.2023 49.6979H44.7949C45.6084 49.6979 46.3517 50.0393 46.9618 50.5621C47.3032 50.8557 47.6035 51.209 47.8504 51.591C48.6131 50.2375 49.0464 48.681 49.0464 47.0243C49.0464 44.4246 47.9787 42.0708 46.25 40.3661C44.5213 38.6616 42.1341 37.6089 39.4972 37.6089C36.8603 37.6089 34.4733 38.6617 32.7443 40.3661C31.0156 42.0706 29.9479 44.4243 29.9479 47.0243C29.9479 48.6953 30.3886 50.2637 31.1633 51.6219L31.1662 51.6244ZM40.7758 16.7783L39.4999 14.1023L38.2481 16.7306C38.1682 16.9455 37.9721 17.1078 37.7252 17.1364L34.7544 17.5041L36.9213 19.5093C37.0884 19.6525 37.1731 19.8745 37.1296 20.1013L36.5654 23.0041L39.1851 21.5814C39.3716 21.4787 39.604 21.4692 39.8049 21.579L42.4319 23.0041L41.8678 20.1013C41.829 19.896 41.892 19.6787 42.0566 19.526L44.2429 17.504L41.2721 17.1364V17.134C41.0615 17.1077 40.8702 16.9788 40.7734 16.7759L40.7758 16.7783ZM40.0761 12.362L41.7757 15.9308L45.7464 16.4226C46.0974 16.4656 46.3468 16.7783 46.3032 17.1244C46.2839 17.2915 46.1967 17.4347 46.0756 17.5326L43.1848 20.2063L43.9377 24.0831C44.0031 24.4245 43.7779 24.7539 43.4317 24.8183C43.2792 24.847 43.1315 24.8207 43.0056 24.7515L39.4973 22.8489L35.9891 24.7515C35.6816 24.9186 35.2942 24.8064 35.1223 24.5032C35.0473 24.3695 35.0279 24.2215 35.0545 24.0831L35.8075 20.2063L32.8876 17.5063C32.631 17.2676 32.6189 16.8713 32.861 16.6183C32.9675 16.5061 33.1055 16.4417 33.2484 16.4249V16.4226L37.219 15.9308L38.9186 12.362C39.0663 12.0469 39.4465 11.9132 39.7636 12.0588C39.9041 12.1233 40.0106 12.2331 40.0711 12.362L40.0761 12.362ZM18.7093 24.7494C18.9224 24.8234 19.1476 24.7805 19.3146 24.6539L19.317 24.6563L21.6849 22.8445L21.5881 25.7998C21.5808 26.0337 21.7043 26.2414 21.8907 26.3536L24.3481 27.9984L21.467 28.822C21.2467 28.8841 21.0893 29.0535 21.0312 29.2565L20.1983 32.0924L18.5131 29.6456C18.3872 29.4617 18.1766 29.3639 17.966 29.371L14.9686 29.4641L16.8087 27.1295C16.9588 26.9385 16.9806 26.6855 16.8838 26.4802L15.8838 23.7468L18.7069 24.7518L18.7093 24.7494ZM15.0437 22.1116L18.8086 23.4508L21.9706 21.0278C22.249 20.8154 22.651 20.8631 22.8664 21.1376C22.9729 21.2713 23.0141 21.4336 22.9971 21.5912L22.8712 25.4919L26.1834 27.7095C26.4739 27.9029 26.5514 28.2944 26.3529 28.5809C26.2657 28.7074 26.1398 28.7933 26.0042 28.8315L22.1595 29.932L21.0457 33.7229C20.9489 34.0571 20.5954 34.2481 20.2565 34.1502C20.0991 34.1048 19.9756 34.007 19.8933 33.8804L17.6586 30.6339L13.6564 30.7604C13.3054 30.7723 13.0124 30.5002 13.0003 30.154C12.9955 30.0013 13.0463 29.8604 13.1335 29.7506L13.1311 29.7482L15.5885 26.6305L14.2302 22.9185C14.1116 22.5914 14.2835 22.2333 14.6152 22.1164C14.7605 22.0662 14.9106 22.0686 15.0437 22.1164L15.0437 22.1116ZM62.0911 26.5279C62.0161 26.738 62.0596 26.96 62.188 27.1247L62.1855 27.1271L64.0256 29.4617L61.0283 29.3663C60.791 29.3591 60.5804 29.4808 60.4666 29.6647L58.7984 32.0876L57.9631 29.2469C57.9002 29.0297 57.7282 28.8745 57.5225 28.8172L54.6462 27.996L57.1278 26.3345C57.3142 26.2103 57.4135 26.0026 57.4062 25.795L57.3094 22.8396L59.6773 24.6515C59.871 24.7995 60.1276 24.821 60.3358 24.7255L63.1081 23.7396L62.0888 26.523L62.0911 26.5279ZM64.7665 22.9137L63.4082 26.6257L65.8656 29.7434C66.0811 30.018 66.0327 30.4143 65.7543 30.6267C65.6187 30.7317 65.454 30.7723 65.2942 30.7556L61.3381 30.6315L59.0889 33.8972C58.8928 34.1836 58.4957 34.26 58.2052 34.0643C58.0768 33.9783 57.9897 33.8542 57.9509 33.7205L56.8372 29.9297L52.9924 28.8316C52.6535 28.7361 52.4598 28.3875 52.5591 28.0534C52.6051 27.8982 52.7043 27.7764 52.8326 27.6953L56.1254 25.4919L55.9971 21.5459C55.985 21.1997 56.261 20.9109 56.612 20.8989C56.767 20.8942 56.9098 20.9443 57.0212 21.0302L57.0236 21.0279L60.1857 23.4508L63.9505 22.1116C64.2822 21.9946 64.6454 22.1641 64.764 22.4912C64.8173 22.6344 64.8125 22.7824 64.764 22.9137L64.7665 22.9137Z"/>
</mask>
<path fill-rule="evenodd" clip-rule="evenodd" d="M39.4978 36.3509C42.4879 36.3509 45.1947 37.5445 47.1537 39.4781C49.1124 41.4094 50.3254 44.0782 50.3254 47.0267C50.3254 49.9749 49.1149 52.6437 47.1537 54.5752C45.195 56.5065 42.4882 57.7025 39.4978 57.7025C36.5074 57.7025 33.8009 56.5089 31.8419 54.5752C29.8832 52.644 28.6702 49.9752 28.6702 47.0267C28.6702 44.0785 29.8807 41.4096 31.8419 39.4781C33.8006 37.5469 36.5074 36.3509 39.4978 36.3509ZM35.4714 30.9702L35.0744 31.0776C34.394 31.2614 33.7282 31.4858 33.0818 31.7484H33.0794C32.4281 32.0134 31.7962 32.319 31.1885 32.6627L30.8301 32.8633L27.535 31.1922C27.2832 31.0633 26.983 31.1182 26.7917 31.3068L26.7893 31.3044L23.5522 34.4961C23.3391 34.7062 23.3077 35.0261 23.4578 35.2672L25.1332 38.4779L24.9298 38.8312C24.5836 39.4256 24.2737 40.0511 24.0025 40.698C23.7362 41.333 23.5062 41.9895 23.3221 42.6626L23.2132 43.0541L19.6832 44.1689C19.412 44.2549 19.2401 44.5008 19.2401 44.7657H19.2377V49.2799C19.2377 49.5783 19.4483 49.8289 19.7316 49.8934L23.2108 50.9939L23.3197 51.3854C23.5062 52.0562 23.7338 52.7127 24.0001 53.35C24.2713 53.9969 24.5812 54.62 24.9274 55.2168L25.1308 55.5701L23.436 58.8191C23.3052 59.0673 23.3609 59.3633 23.5522 59.5519L23.5498 59.5543L26.7869 62.746C26.9999 62.9561 27.3244 62.9871 27.5689 62.8391L30.8253 61.1872L31.1836 61.3877C31.7865 61.7291 32.4208 62.0346 33.077 62.302C33.721 62.5646 34.3868 62.7914 35.0695 62.9728L35.4666 63.0802L36.5973 66.5608C36.6844 66.8281 36.9338 66.9976 37.2025 66.9976V67H41.7809C42.0836 67 42.3378 66.7923 42.4031 66.513L43.5193 63.0826L43.9164 62.9752C44.5967 62.7914 45.2625 62.567 45.9089 62.3044C46.5651 62.037 47.1994 61.7314 47.8023 61.3901L48.1606 61.1895L51.4558 62.8606C51.7076 62.9895 52.0078 62.9346 52.199 62.746L52.2015 62.7484L55.4385 59.5567C55.6516 59.3466 55.6831 59.0267 55.533 58.7856L53.8576 55.5749L54.0609 55.2216C54.4071 54.6272 54.7171 54.0017 54.9882 53.3548C55.2546 52.7198 55.4846 52.0633 55.6686 51.3902L55.7775 50.9987L59.3076 49.8839C59.5787 49.7979 59.7506 49.552 59.7506 49.2871H59.753V44.7729C59.753 44.4745 59.5424 44.2239 59.2591 44.1594L55.7799 43.0589L55.671 42.6674C55.4846 41.9966 55.257 41.3401 54.9906 40.7028V40.7004C54.7219 40.0582 54.412 39.4352 54.0633 38.836L53.86 38.4827L55.5548 35.2337C55.6855 34.9855 55.6298 34.6895 55.4385 34.5009L55.441 34.4985L52.2039 31.3068C51.9908 31.0967 51.6664 31.0657 51.4219 31.2137L48.1654 32.8656L47.8071 32.6651C47.2042 32.3237 46.5699 32.0182 45.9138 31.7508C45.2697 31.4882 44.6039 31.2614 43.9212 31.08L43.5241 30.9725L42.3935 27.492C42.3063 27.2247 42.0569 27.0552 41.7882 27.0552V27.0528H37.2098C36.9072 27.0528 36.653 27.2605 36.5876 27.5398L35.4714 30.9702ZM37.6747 28.3108L36.5804 31.6768C36.5101 31.8964 36.3261 32.0492 36.1131 32.0969L35.4109 32.2855C34.7863 32.4526 34.1737 32.6603 33.5709 32.9062C32.9728 33.1496 32.3918 33.4337 31.8252 33.7512L31.1691 34.1212C30.9633 34.2382 30.7188 34.2286 30.5275 34.1164L27.3703 32.5146L24.7893 35.0594L26.4284 38.2033C26.5301 38.3991 26.518 38.6235 26.4163 38.8025L26.041 39.4518C25.7142 40.0152 25.4285 40.5881 25.1839 41.1706C24.9346 41.765 24.7239 42.3713 24.552 42.9873L24.3535 43.7082C24.2954 43.9207 24.1332 44.0782 23.9346 44.1403L20.5208 45.2193V48.8191L23.9346 49.8981C24.1574 49.9674 24.3123 50.1488 24.3608 50.3589L24.552 51.0511C24.7215 51.667 24.9322 52.2734 25.1839 52.8678C25.4285 53.4503 25.7142 54.0232 26.041 54.5866L26.4163 55.2359C26.5349 55.4388 26.5252 55.6799 26.4114 55.8685L24.7869 58.9815L27.3678 61.5262L30.5564 59.9101C30.755 59.8098 30.9826 59.8218 31.1641 59.922L31.8203 60.2921C32.3917 60.6143 32.9728 60.896 33.5635 61.1371C34.1664 61.383 34.7813 61.5907 35.406 61.7602L36.1372 61.9559C36.3527 62.0132 36.5125 62.1731 36.5754 62.3689L37.6698 65.7348H41.3208L42.4152 62.3689C42.4854 62.1493 42.6694 61.9965 42.8824 61.9487L43.5846 61.7602C44.2092 61.593 44.8242 61.3854 45.4271 61.1371C46.0178 60.896 46.6013 60.6143 47.1703 60.2921L47.8264 59.922C48.0322 59.8051 48.2768 59.8146 48.4681 59.9268L51.6253 61.5286L54.2062 58.9839L52.5671 55.84C52.4654 55.6442 52.4775 55.4198 52.5792 55.2408L52.9545 54.5915C53.2814 54.0281 53.5671 53.4551 53.8116 52.8727C54.061 52.2783 54.2716 51.672 54.4435 51.056L54.642 50.3351C54.7001 50.1226 54.8623 49.9651 55.0609 49.903L58.4747 48.824V45.2241L55.0609 44.1451C54.8381 44.0759 54.6832 43.8945 54.6347 43.6844L54.4435 42.9921C54.274 42.3762 54.0634 41.7723 53.814 41.1778C53.567 40.5906 53.2813 40.0153 52.9569 39.4567L52.5816 38.8074C52.463 38.6045 52.4727 38.3634 52.5865 38.1747L54.2111 35.0618L51.6301 32.5171L48.4415 34.1332C48.243 34.2334 48.0154 34.2215 47.8338 34.1212L47.1777 33.7512C46.6063 33.4289 46.0252 33.1473 45.4344 32.9062C44.8316 32.6603 44.2166 32.4526 43.5919 32.2831L42.8607 32.0874C42.6453 32.0301 42.4855 31.8701 42.4225 31.6744L41.3282 28.3085H37.6771L37.6747 28.3108ZM41.3064 42.6722C40.844 42.2162 40.2072 41.9345 39.5002 41.9345C38.7957 41.9345 38.1565 42.2162 37.694 42.6722C37.2316 43.1281 36.9459 43.7559 36.9459 44.453C36.9459 45.1477 37.2316 45.7779 37.694 46.2339C38.1565 46.6898 38.7932 46.9715 39.5002 46.9715C40.2048 46.9715 40.844 46.6898 41.3064 46.2339C41.7689 45.7779 42.0545 45.1501 42.0545 44.453C42.0545 43.7584 41.7688 43.1281 41.3064 42.6722ZM39.5002 40.6765C38.4422 40.6765 37.4858 41.099 36.791 41.7818C36.0985 42.4645 35.67 43.4098 35.67 44.453C35.67 45.4962 36.0985 46.4392 36.791 47.1243C37.4834 47.807 38.4422 48.2296 39.5002 48.2296C40.5582 48.2296 41.5146 47.807 42.2095 47.1243C42.9019 46.4415 43.3305 45.4962 43.3305 44.453C43.3305 43.4098 42.9019 42.4669 42.2095 41.7818C41.517 41.099 40.5582 40.6765 39.5002 40.6765ZM47.0563 52.7822C46.8481 52.3071 46.5237 51.8536 46.1266 51.5122C45.7344 51.1756 45.2768 50.9584 44.7974 50.9584H34.2049C33.7376 50.9584 33.2921 51.178 32.9071 51.5122C32.51 51.8583 32.1832 52.3238 31.9677 52.8108C32.2098 53.1188 32.4713 53.41 32.7497 53.6845C34.4784 55.389 36.8657 56.4417 39.5026 56.4417C42.1392 56.4417 44.5265 55.389 46.2554 53.6845C46.5435 53.4005 46.8099 53.1021 47.0593 52.7845L47.0563 52.7822ZM31.1662 51.6244C31.4156 51.2329 31.7183 50.8724 32.0621 50.5716C32.6673 50.0417 33.4034 49.6979 34.2023 49.6979H44.7949C45.6084 49.6979 46.3517 50.0393 46.9618 50.5621C47.3032 50.8557 47.6035 51.209 47.8504 51.591C48.6131 50.2375 49.0464 48.681 49.0464 47.0243C49.0464 44.4246 47.9787 42.0708 46.25 40.3661C44.5213 38.6616 42.1341 37.6089 39.4972 37.6089C36.8603 37.6089 34.4733 38.6617 32.7443 40.3661C31.0156 42.0706 29.9479 44.4243 29.9479 47.0243C29.9479 48.6953 30.3886 50.2637 31.1633 51.6219L31.1662 51.6244ZM40.7758 16.7783L39.4999 14.1023L38.2481 16.7306C38.1682 16.9455 37.9721 17.1078 37.7252 17.1364L34.7544 17.5041L36.9213 19.5093C37.0884 19.6525 37.1731 19.8745 37.1296 20.1013L36.5654 23.0041L39.1851 21.5814C39.3716 21.4787 39.604 21.4692 39.8049 21.579L42.4319 23.0041L41.8678 20.1013C41.829 19.896 41.892 19.6787 42.0566 19.526L44.2429 17.504L41.2721 17.1364V17.134C41.0615 17.1077 40.8702 16.9788 40.7734 16.7759L40.7758 16.7783ZM40.0761 12.362L41.7757 15.9308L45.7464 16.4226C46.0974 16.4656 46.3468 16.7783 46.3032 17.1244C46.2839 17.2915 46.1967 17.4347 46.0756 17.5326L43.1848 20.2063L43.9377 24.0831C44.0031 24.4245 43.7779 24.7539 43.4317 24.8183C43.2792 24.847 43.1315 24.8207 43.0056 24.7515L39.4973 22.8489L35.9891 24.7515C35.6816 24.9186 35.2942 24.8064 35.1223 24.5032C35.0473 24.3695 35.0279 24.2215 35.0545 24.0831L35.8075 20.2063L32.8876 17.5063C32.631 17.2676 32.6189 16.8713 32.861 16.6183C32.9675 16.5061 33.1055 16.4417 33.2484 16.4249V16.4226L37.219 15.9308L38.9186 12.362C39.0663 12.0469 39.4465 11.9132 39.7636 12.0588C39.9041 12.1233 40.0106 12.2331 40.0711 12.362L40.0761 12.362ZM18.7093 24.7494C18.9224 24.8234 19.1476 24.7805 19.3146 24.6539L19.317 24.6563L21.6849 22.8445L21.5881 25.7998C21.5808 26.0337 21.7043 26.2414 21.8907 26.3536L24.3481 27.9984L21.467 28.822C21.2467 28.8841 21.0893 29.0535 21.0312 29.2565L20.1983 32.0924L18.5131 29.6456C18.3872 29.4617 18.1766 29.3639 17.966 29.371L14.9686 29.4641L16.8087 27.1295C16.9588 26.9385 16.9806 26.6855 16.8838 26.4802L15.8838 23.7468L18.7069 24.7518L18.7093 24.7494ZM15.0437 22.1116L18.8086 23.4508L21.9706 21.0278C22.249 20.8154 22.651 20.8631 22.8664 21.1376C22.9729 21.2713 23.0141 21.4336 22.9971 21.5912L22.8712 25.4919L26.1834 27.7095C26.4739 27.9029 26.5514 28.2944 26.3529 28.5809C26.2657 28.7074 26.1398 28.7933 26.0042 28.8315L22.1595 29.932L21.0457 33.7229C20.9489 34.0571 20.5954 34.2481 20.2565 34.1502C20.0991 34.1048 19.9756 34.007 19.8933 33.8804L17.6586 30.6339L13.6564 30.7604C13.3054 30.7723 13.0124 30.5002 13.0003 30.154C12.9955 30.0013 13.0463 29.8604 13.1335 29.7506L13.1311 29.7482L15.5885 26.6305L14.2302 22.9185C14.1116 22.5914 14.2835 22.2333 14.6152 22.1164C14.7605 22.0662 14.9106 22.0686 15.0437 22.1164L15.0437 22.1116ZM62.0911 26.5279C62.0161 26.738 62.0596 26.96 62.188 27.1247L62.1855 27.1271L64.0256 29.4617L61.0283 29.3663C60.791 29.3591 60.5804 29.4808 60.4666 29.6647L58.7984 32.0876L57.9631 29.2469C57.9002 29.0297 57.7282 28.8745 57.5225 28.8172L54.6462 27.996L57.1278 26.3345C57.3142 26.2103 57.4135 26.0026 57.4062 25.795L57.3094 22.8396L59.6773 24.6515C59.871 24.7995 60.1276 24.821 60.3358 24.7255L63.1081 23.7396L62.0888 26.523L62.0911 26.5279ZM64.7665 22.9137L63.4082 26.6257L65.8656 29.7434C66.0811 30.018 66.0327 30.4143 65.7543 30.6267C65.6187 30.7317 65.454 30.7723 65.2942 30.7556L61.3381 30.6315L59.0889 33.8972C58.8928 34.1836 58.4957 34.26 58.2052 34.0643C58.0768 33.9783 57.9897 33.8542 57.9509 33.7205L56.8372 29.9297L52.9924 28.8316C52.6535 28.7361 52.4598 28.3875 52.5591 28.0534C52.6051 27.8982 52.7043 27.7764 52.8326 27.6953L56.1254 25.4919L55.9971 21.5459C55.985 21.1997 56.261 20.9109 56.612 20.8989C56.767 20.8942 56.9098 20.9443 57.0212 21.0302L57.0236 21.0279L60.1857 23.4508L63.9505 22.1116C64.2822 21.9946 64.6454 22.1641 64.764 22.4912C64.8173 22.6344 64.8125 22.7824 64.764 22.9137L64.7665 22.9137Z" fill="#2E74CE"/>
<path fill-rule="evenodd" clip-rule="evenodd" d="M39.4978 36.3509C42.4879 36.3509 45.1947 37.5445 47.1537 39.4781C49.1124 41.4094 50.3254 44.0782 50.3254 47.0267C50.3254 49.9749 49.1149 52.6437 47.1537 54.5752C45.195 56.5065 42.4882 57.7025 39.4978 57.7025C36.5074 57.7025 33.8009 56.5089 31.8419 54.5752C29.8832 52.644 28.6702 49.9752 28.6702 47.0267C28.6702 44.0785 29.8807 41.4096 31.8419 39.4781C33.8006 37.5469 36.5074 36.3509 39.4978 36.3509ZM35.4714 30.9702L35.0744 31.0776C34.394 31.2614 33.7282 31.4858 33.0818 31.7484H33.0794C32.4281 32.0134 31.7962 32.319 31.1885 32.6627L30.8301 32.8633L27.535 31.1922C27.2832 31.0633 26.983 31.1182 26.7917 31.3068L26.7893 31.3044L23.5522 34.4961C23.3391 34.7062 23.3077 35.0261 23.4578 35.2672L25.1332 38.4779L24.9298 38.8312C24.5836 39.4256 24.2737 40.0511 24.0025 40.698C23.7362 41.333 23.5062 41.9895 23.3221 42.6626L23.2132 43.0541L19.6832 44.1689C19.412 44.2549 19.2401 44.5008 19.2401 44.7657H19.2377V49.2799C19.2377 49.5783 19.4483 49.8289 19.7316 49.8934L23.2108 50.9939L23.3197 51.3854C23.5062 52.0562 23.7338 52.7127 24.0001 53.35C24.2713 53.9969 24.5812 54.62 24.9274 55.2168L25.1308 55.5701L23.436 58.8191C23.3052 59.0673 23.3609 59.3633 23.5522 59.5519L23.5498 59.5543L26.7869 62.746C26.9999 62.9561 27.3244 62.9871 27.5689 62.8391L30.8253 61.1872L31.1836 61.3877C31.7865 61.7291 32.4208 62.0346 33.077 62.302C33.721 62.5646 34.3868 62.7914 35.0695 62.9728L35.4666 63.0802L36.5973 66.5608C36.6844 66.8281 36.9338 66.9976 37.2025 66.9976V67H41.7809C42.0836 67 42.3378 66.7923 42.4031 66.513L43.5193 63.0826L43.9164 62.9752C44.5967 62.7914 45.2625 62.567 45.9089 62.3044C46.5651 62.037 47.1994 61.7314 47.8023 61.3901L48.1606 61.1895L51.4558 62.8606C51.7076 62.9895 52.0078 62.9346 52.199 62.746L52.2015 62.7484L55.4385 59.5567C55.6516 59.3466 55.6831 59.0267 55.533 58.7856L53.8576 55.5749L54.0609 55.2216C54.4071 54.6272 54.7171 54.0017 54.9882 53.3548C55.2546 52.7198 55.4846 52.0633 55.6686 51.3902L55.7775 50.9987L59.3076 49.8839C59.5787 49.7979 59.7506 49.552 59.7506 49.2871H59.753V44.7729C59.753 44.4745 59.5424 44.2239 59.2591 44.1594L55.7799 43.0589L55.671 42.6674C55.4846 41.9966 55.257 41.3401 54.9906 40.7028V40.7004C54.7219 40.0582 54.412 39.4352 54.0633 38.836L53.86 38.4827L55.5548 35.2337C55.6855 34.9855 55.6298 34.6895 55.4385 34.5009L55.441 34.4985L52.2039 31.3068C51.9908 31.0967 51.6664 31.0657 51.4219 31.2137L48.1654 32.8656L47.8071 32.6651C47.2042 32.3237 46.5699 32.0182 45.9138 31.7508C45.2697 31.4882 44.6039 31.2614 43.9212 31.08L43.5241 30.9725L42.3935 27.492C42.3063 27.2247 42.0569 27.0552 41.7882 27.0552V27.0528H37.2098C36.9072 27.0528 36.653 27.2605 36.5876 27.5398L35.4714 30.9702ZM37.6747 28.3108L36.5804 31.6768C36.5101 31.8964 36.3261 32.0492 36.1131 32.0969L35.4109 32.2855C34.7863 32.4526 34.1737 32.6603 33.5709 32.9062C32.9728 33.1496 32.3918 33.4337 31.8252 33.7512L31.1691 34.1212C30.9633 34.2382 30.7188 34.2286 30.5275 34.1164L27.3703 32.5146L24.7893 35.0594L26.4284 38.2033C26.5301 38.3991 26.518 38.6235 26.4163 38.8025L26.041 39.4518C25.7142 40.0152 25.4285 40.5881 25.1839 41.1706C24.9346 41.765 24.7239 42.3713 24.552 42.9873L24.3535 43.7082C24.2954 43.9207 24.1332 44.0782 23.9346 44.1403L20.5208 45.2193V48.8191L23.9346 49.8981C24.1574 49.9674 24.3123 50.1488 24.3608 50.3589L24.552 51.0511C24.7215 51.667 24.9322 52.2734 25.1839 52.8678C25.4285 53.4503 25.7142 54.0232 26.041 54.5866L26.4163 55.2359C26.5349 55.4388 26.5252 55.6799 26.4114 55.8685L24.7869 58.9815L27.3678 61.5262L30.5564 59.9101C30.755 59.8098 30.9826 59.8218 31.1641 59.922L31.8203 60.2921C32.3917 60.6143 32.9728 60.896 33.5635 61.1371C34.1664 61.383 34.7813 61.5907 35.406 61.7602L36.1372 61.9559C36.3527 62.0132 36.5125 62.1731 36.5754 62.3689L37.6698 65.7348H41.3208L42.4152 62.3689C42.4854 62.1493 42.6694 61.9965 42.8824 61.9487L43.5846 61.7602C44.2092 61.593 44.8242 61.3854 45.4271 61.1371C46.0178 60.896 46.6013 60.6143 47.1703 60.2921L47.8264 59.922C48.0322 59.8051 48.2768 59.8146 48.4681 59.9268L51.6253 61.5286L54.2062 58.9839L52.5671 55.84C52.4654 55.6442 52.4775 55.4198 52.5792 55.2408L52.9545 54.5915C53.2814 54.0281 53.5671 53.4551 53.8116 52.8727C54.061 52.2783 54.2716 51.672 54.4435 51.056L54.642 50.3351C54.7001 50.1226 54.8623 49.9651 55.0609 49.903L58.4747 48.824V45.2241L55.0609 44.1451C54.8381 44.0759 54.6832 43.8945 54.6347 43.6844L54.4435 42.9921C54.274 42.3762 54.0634 41.7723 53.814 41.1778C53.567 40.5906 53.2813 40.0153 52.9569 39.4567L52.5816 38.8074C52.463 38.6045 52.4727 38.3634 52.5865 38.1747L54.2111 35.0618L51.6301 32.5171L48.4415 34.1332C48.243 34.2334 48.0154 34.2215 47.8338 34.1212L47.1777 33.7512C46.6063 33.4289 46.0252 33.1473 45.4344 32.9062C44.8316 32.6603 44.2166 32.4526 43.5919 32.2831L42.8607 32.0874C42.6453 32.0301 42.4855 31.8701 42.4225 31.6744L41.3282 28.3085H37.6771L37.6747 28.3108ZM41.3064 42.6722C40.844 42.2162 40.2072 41.9345 39.5002 41.9345C38.7957 41.9345 38.1565 42.2162 37.694 42.6722C37.2316 43.1281 36.9459 43.7559 36.9459 44.453C36.9459 45.1477 37.2316 45.7779 37.694 46.2339C38.1565 46.6898 38.7932 46.9715 39.5002 46.9715C40.2048 46.9715 40.844 46.6898 41.3064 46.2339C41.7689 45.7779 42.0545 45.1501 42.0545 44.453C42.0545 43.7584 41.7688 43.1281 41.3064 42.6722ZM39.5002 40.6765C38.4422 40.6765 37.4858 41.099 36.791 41.7818C36.0985 42.4645 35.67 43.4098 35.67 44.453C35.67 45.4962 36.0985 46.4392 36.791 47.1243C37.4834 47.807 38.4422 48.2296 39.5002 48.2296C40.5582 48.2296 41.5146 47.807 42.2095 47.1243C42.9019 46.4415 43.3305 45.4962 43.3305 44.453C43.3305 43.4098 42.9019 42.4669 42.2095 41.7818C41.517 41.099 40.5582 40.6765 39.5002 40.6765ZM47.0563 52.7822C46.8481 52.3071 46.5237 51.8536 46.1266 51.5122C45.7344 51.1756 45.2768 50.9584 44.7974 50.9584H34.2049C33.7376 50.9584 33.2921 51.178 32.9071 51.5122C32.51 51.8583 32.1832 52.3238 31.9677 52.8108C32.2098 53.1188 32.4713 53.41 32.7497 53.6845C34.4784 55.389 36.8657 56.4417 39.5026 56.4417C42.1392 56.4417 44.5265 55.389 46.2554 53.6845C46.5435 53.4005 46.8099 53.1021 47.0593 52.7845L47.0563 52.7822ZM31.1662 51.6244C31.4156 51.2329 31.7183 50.8724 32.0621 50.5716C32.6673 50.0417 33.4034 49.6979 34.2023 49.6979H44.7949C45.6084 49.6979 46.3517 50.0393 46.9618 50.5621C47.3032 50.8557 47.6035 51.209 47.8504 51.591C48.6131 50.2375 49.0464 48.681 49.0464 47.0243C49.0464 44.4246 47.9787 42.0708 46.25 40.3661C44.5213 38.6616 42.1341 37.6089 39.4972 37.6089C36.8603 37.6089 34.4733 38.6617 32.7443 40.3661C31.0156 42.0706 29.9479 44.4243 29.9479 47.0243C29.9479 48.6953 30.3886 50.2637 31.1633 51.6219L31.1662 51.6244ZM40.7758 16.7783L39.4999 14.1023L38.2481 16.7306C38.1682 16.9455 37.9721 17.1078 37.7252 17.1364L34.7544 17.5041L36.9213 19.5093C37.0884 19.6525 37.1731 19.8745 37.1296 20.1013L36.5654 23.0041L39.1851 21.5814C39.3716 21.4787 39.604 21.4692 39.8049 21.579L42.4319 23.0041L41.8678 20.1013C41.829 19.896 41.892 19.6787 42.0566 19.526L44.2429 17.504L41.2721 17.1364V17.134C41.0615 17.1077 40.8702 16.9788 40.7734 16.7759L40.7758 16.7783ZM40.0761 12.362L41.7757 15.9308L45.7464 16.4226C46.0974 16.4656 46.3468 16.7783 46.3032 17.1244C46.2839 17.2915 46.1967 17.4347 46.0756 17.5326L43.1848 20.2063L43.9377 24.0831C44.0031 24.4245 43.7779 24.7539 43.4317 24.8183C43.2792 24.847 43.1315 24.8207 43.0056 24.7515L39.4973 22.8489L35.9891 24.7515C35.6816 24.9186 35.2942 24.8064 35.1223 24.5032C35.0473 24.3695 35.0279 24.2215 35.0545 24.0831L35.8075 20.2063L32.8876 17.5063C32.631 17.2676 32.6189 16.8713 32.861 16.6183C32.9675 16.5061 33.1055 16.4417 33.2484 16.4249V16.4226L37.219 15.9308L38.9186 12.362C39.0663 12.0469 39.4465 11.9132 39.7636 12.0588C39.9041 12.1233 40.0106 12.2331 40.0711 12.362L40.0761 12.362ZM18.7093 24.7494C18.9224 24.8234 19.1476 24.7805 19.3146 24.6539L19.317 24.6563L21.6849 22.8445L21.5881 25.7998C21.5808 26.0337 21.7043 26.2414 21.8907 26.3536L24.3481 27.9984L21.467 28.822C21.2467 28.8841 21.0893 29.0535 21.0312 29.2565L20.1983 32.0924L18.5131 29.6456C18.3872 29.4617 18.1766 29.3639 17.966 29.371L14.9686 29.4641L16.8087 27.1295C16.9588 26.9385 16.9806 26.6855 16.8838 26.4802L15.8838 23.7468L18.7069 24.7518L18.7093 24.7494ZM15.0437 22.1116L18.8086 23.4508L21.9706 21.0278C22.249 20.8154 22.651 20.8631 22.8664 21.1376C22.9729 21.2713 23.0141 21.4336 22.9971 21.5912L22.8712 25.4919L26.1834 27.7095C26.4739 27.9029 26.5514 28.2944 26.3529 28.5809C26.2657 28.7074 26.1398 28.7933 26.0042 28.8315L22.1595 29.932L21.0457 33.7229C20.9489 34.0571 20.5954 34.2481 20.2565 34.1502C20.0991 34.1048 19.9756 34.007 19.8933 33.8804L17.6586 30.6339L13.6564 30.7604C13.3054 30.7723 13.0124 30.5002 13.0003 30.154C12.9955 30.0013 13.0463 29.8604 13.1335 29.7506L13.1311 29.7482L15.5885 26.6305L14.2302 22.9185C14.1116 22.5914 14.2835 22.2333 14.6152 22.1164C14.7605 22.0662 14.9106 22.0686 15.0437 22.1164L15.0437 22.1116ZM62.0911 26.5279C62.0161 26.738 62.0596 26.96 62.188 27.1247L62.1855 27.1271L64.0256 29.4617L61.0283 29.3663C60.791 29.3591 60.5804 29.4808 60.4666 29.6647L58.7984 32.0876L57.9631 29.2469C57.9002 29.0297 57.7282 28.8745 57.5225 28.8172L54.6462 27.996L57.1278 26.3345C57.3142 26.2103 57.4135 26.0026 57.4062 25.795L57.3094 22.8396L59.6773 24.6515C59.871 24.7995 60.1276 24.821 60.3358 24.7255L63.1081 23.7396L62.0888 26.523L62.0911 26.5279ZM64.7665 22.9137L63.4082 26.6257L65.8656 29.7434C66.0811 30.018 66.0327 30.4143 65.7543 30.6267C65.6187 30.7317 65.454 30.7723 65.2942 30.7556L61.3381 30.6315L59.0889 33.8972C58.8928 34.1836 58.4957 34.26 58.2052 34.0643C58.0768 33.9783 57.9897 33.8542 57.9509 33.7205L56.8372 29.9297L52.9924 28.8316C52.6535 28.7361 52.4598 28.3875 52.5591 28.0534C52.6051 27.8982 52.7043 27.7764 52.8326 27.6953L56.1254 25.4919L55.9971 21.5459C55.985 21.1997 56.261 20.9109 56.612 20.8989C56.767 20.8942 56.9098 20.9443 57.0212 21.0302L57.0236 21.0279L60.1857 23.4508L63.9505 22.1116C64.2822 21.9946 64.6454 22.1641 64.764 22.4912C64.8173 22.6344 64.8125 22.7824 64.764 22.9137L64.7665 22.9137Z" stroke="#2E74CE" stroke-width="0.8" mask="url(#path-2-outside-1_199_185)"/>
</svg>
