<svg width="92" height="92" viewBox="0 0 92 92" fill="none" xmlns="http://www.w3.org/2000/svg">
<mask id="path-1-outside-1_199_155" maskUnits="userSpaceOnUse" x="0" y="0" width="92" height="92" fill="black">
<rect fill="white" width="92" height="92"/>
<path d="M82.0051 46.9191C82.4369 48.9825 84.2634 50.5377 86.4567 50.5377C88.9596 50.5377 90.9962 48.5049 90.9962 45.9982C90.9962 43.4953 88.9634 41.4587 86.4567 41.4587C84.2672 41.4587 82.4368 43.0139 82.0051 45.0773H68.0656V35.8721H82.4364C82.9447 35.8721 83.3573 35.4594 83.3573 34.9512V14.1065C85.4208 13.6748 86.9759 11.8482 86.9759 9.6549C86.9759 7.15205 84.9431 5.11542 82.4365 5.11542C79.9336 5.11542 77.897 7.14824 77.897 9.6549C77.897 11.8444 79.4521 13.6748 81.5156 14.1065V34.0337H68.0652V28.516C68.0652 25.9826 66.0017 23.9268 63.476 23.9268H57.9583L57.9621 17.8244H66.8654C67.2972 19.8879 69.1237 21.443 71.317 21.443C73.8199 21.443 75.8565 19.4102 75.8565 16.9035C75.8565 14.4007 73.8237 12.3641 71.317 12.3641C69.1275 12.3641 67.2972 13.9192 66.8654 15.9827L57.0412 15.9865C56.533 15.9865 56.1203 16.3992 56.1203 16.9074V23.9306H46.9152L46.919 9.99113C48.9824 9.55934 50.5376 7.73283 50.5376 5.53949C50.5376 3.03282 48.5009 1 45.9981 1C43.4952 1 41.4586 3.03282 41.4586 5.53949C41.4586 7.72902 43.0138 9.55935 45.0772 9.99113V23.9306H35.8721V9.55974C35.8721 9.05153 35.4594 8.63884 34.9512 8.63884H14.1065C13.6747 6.5754 11.8482 5.02024 9.65481 5.02024C7.15196 5.02024 5.11532 7.05306 5.11532 9.55973C5.11532 12.0626 7.14815 14.0992 9.65481 14.0992C11.8443 14.0992 13.6747 12.5441 14.1065 10.4806H34.0336V23.931H28.5159C25.9825 23.931 23.9267 25.9945 23.9267 28.5202V34.0379L17.8243 34.0341V25.1308C19.8878 24.699 21.4429 22.8725 21.4429 20.6791C21.4429 18.1763 19.4101 16.1397 16.9035 16.1397C14.4006 16.1397 12.364 18.1725 12.364 20.6791C12.364 22.8687 13.9191 24.699 15.9826 25.1308V34.951C15.9826 35.4593 16.3953 35.8719 16.9035 35.8719H23.9267V45.0771H9.99113C9.55934 43.0137 7.73283 41.4585 5.53949 41.4585C3.03282 41.4585 1 43.4951 1 45.998C1 48.5008 3.03282 50.5375 5.53949 50.5375C7.72902 50.5375 9.55935 48.9823 9.99113 46.9189H23.9306V56.124H9.55974C9.05153 56.124 8.63884 56.5367 8.63884 57.0449V77.8896C6.5754 78.3214 5.02024 80.1479 5.02024 82.3413C5.02024 84.8441 7.05306 86.8808 9.55973 86.8808C12.0626 86.8808 14.0992 84.8479 14.0992 82.3413C14.0992 80.1517 12.5441 78.3214 10.4806 77.8896V57.9625H23.931V63.4802C23.931 66.0136 25.9945 68.0694 28.5202 68.0694H34.0379V74.1718H25.1346C24.7028 72.1083 22.8763 70.5532 20.683 70.5532C18.1801 70.5532 16.1435 72.586 16.1435 75.0926C16.1435 77.5955 18.1763 79.6321 20.683 79.6321C22.8725 79.6321 24.7028 78.077 25.1346 76.0135H34.9549C35.4631 76.0135 35.8758 75.6008 35.8758 75.0926V68.0694H45.0809V82.0089C43.0175 82.4407 41.4623 84.2672 41.4623 86.4605C41.4623 88.9634 43.4952 91 46.0018 91C48.5047 91 50.5413 88.9672 50.5413 86.4605C50.5413 84.271 48.9861 82.4407 46.9227 82.0089L46.9189 68.0654H56.124V82.4363C56.124 82.9446 56.5367 83.3572 57.0449 83.3572H77.8896C78.3214 85.4207 80.1479 86.9758 82.3413 86.9758C84.8441 86.9758 86.8808 84.943 86.8808 82.4364C86.8808 79.9335 84.848 77.8969 82.3413 77.8969C80.1518 77.8969 78.3214 79.452 77.8896 81.5155H57.9625V68.0651H63.4802C66.0136 68.0651 68.0694 66.0016 68.0694 63.4759V57.9582H74.1718V66.8615C72.1083 67.2933 70.5532 69.1198 70.5532 71.3131C70.5532 73.816 72.586 75.8526 75.0926 75.8526C77.5955 75.8526 79.6321 73.8198 79.6321 71.3131C79.6321 69.1236 78.077 67.2933 76.0135 66.8615L76.0097 57.0412C76.0097 56.533 75.597 56.1203 75.0888 56.1203H68.0656V46.9152L82.0051 46.9191ZM86.4567 43.2967C87.9431 43.2967 89.1582 44.508 89.1582 45.9982C89.1582 47.4846 87.9469 48.6997 86.4567 48.6997C84.9703 48.6997 83.7476 47.4884 83.7476 45.9982C83.7476 44.5118 84.9589 43.2967 86.4567 43.2967ZM79.7277 9.66675C79.7277 8.18036 80.939 6.95759 82.4292 6.95759C83.9156 6.95759 85.1307 8.16891 85.1307 9.66675C85.1307 11.1646 83.9194 12.3683 82.4292 12.3683C80.939 12.3683 79.7277 11.1531 79.7277 9.66675ZM71.3135 14.2062C72.7999 14.2062 74.015 15.4176 74.015 16.9154C74.015 18.4132 72.8037 19.6169 71.3135 19.6169C69.8271 19.6169 68.612 18.4056 68.612 16.9154C68.6158 15.429 69.8195 14.2062 71.3135 14.2062ZM43.2966 5.53987C43.2966 4.05348 44.5079 2.83835 45.9981 2.83835C47.4845 2.83835 48.6996 4.04966 48.6996 5.53987C48.6996 7.02626 47.4883 8.2414 45.9981 8.2414C44.5117 8.23758 43.2966 7.03771 43.2966 5.53987ZM9.66664 12.2689C8.18025 12.2689 6.96512 11.0576 6.96512 9.56736C6.96512 8.08097 8.17644 6.85821 9.66664 6.85821C11.153 6.85821 12.3682 8.06953 12.3682 9.56736C12.3682 11.0652 11.153 12.2689 9.66664 12.2689ZM14.2061 20.6831C14.2061 19.1967 15.4174 17.9739 16.9077 17.9739C18.394 17.9739 19.6092 19.1852 19.6092 20.6831C19.6092 22.1809 18.3979 23.3846 16.9077 23.3846C15.4174 23.3808 14.2061 22.1771 14.2061 20.6831ZM5.53977 48.7C4.05338 48.7 2.83824 47.4887 2.83824 45.9985C2.83824 44.5121 4.04956 43.297 5.53977 43.297C7.02616 43.297 8.24892 44.5083 8.24892 45.9985C8.24892 47.4849 7.0376 48.7 5.53977 48.7ZM12.2688 82.3299C12.2688 83.8163 11.0575 85.0314 9.56726 85.0314C8.08087 85.0314 6.86573 83.8201 6.86573 82.3299C6.86573 80.8435 8.07705 79.6208 9.56726 79.6208C11.0575 79.6208 12.2688 80.8435 12.2688 82.3299ZM20.683 77.7904C19.1966 77.7904 17.9814 76.5791 17.9814 75.0889C17.9814 73.6025 19.1928 72.3874 20.683 72.3874C22.1694 72.3874 23.3845 73.5987 23.3845 75.0889C23.3807 76.5791 22.177 77.7904 20.683 77.7904ZM48.6999 86.4568C48.6999 87.9432 47.4886 89.1583 45.9984 89.1583C44.512 89.1583 43.2969 87.947 43.2969 86.4568C43.2969 84.9704 44.5082 83.7553 45.9984 83.7553C47.4848 83.7591 48.6999 84.959 48.6999 86.4568ZM82.3298 79.7278C83.8162 79.7278 85.0313 80.9391 85.0313 82.4369C85.0313 83.9348 83.82 85.1385 82.3298 85.1385C80.8434 85.1385 79.6283 83.9271 79.6283 82.4369C79.6283 80.9505 80.8434 79.7278 82.3298 79.7278ZM66.2275 63.4807C66.2275 64.9977 64.9933 66.2395 63.4686 66.2395H28.5172C27.0002 66.2395 25.7583 65.0053 25.7583 63.4807V28.5175C25.7583 27.0005 26.9925 25.7586 28.5172 25.7586H63.4686C64.9857 25.7586 66.2275 26.9928 66.2275 28.5175V63.4807ZM77.7899 71.314C77.7899 72.8004 76.5786 74.0155 75.0884 74.0155C73.602 74.0155 72.3793 72.8042 72.3793 71.314C72.3793 69.8276 73.5906 68.6048 75.0884 68.6048C76.5863 68.6048 77.7899 69.82 77.7899 71.314ZM62.0809 28.9985H29.9143C29.4061 28.9985 28.9934 29.4112 28.9934 29.9194V62.082C28.9934 62.5903 29.4061 63.0029 29.9143 63.0029H62.0769C62.5851 63.0029 62.9978 62.5903 62.9978 62.082V29.9155C62.9978 29.4073 62.5891 28.9985 62.0809 28.9985ZM61.16 61.1611H30.8354V30.8366H61.16V61.1611ZM33.6517 48.9452L35.0502 49.2013C35.2833 49.9922 35.5966 50.7564 35.9979 51.4786L35.1878 52.6517C34.7369 53.3089 34.8171 54.1878 35.375 54.7457L37.2551 56.6257C37.8129 57.1836 38.6919 57.2715 39.349 56.8129L40.5221 56.0028C41.2443 56.4041 42.0085 56.7174 42.7995 56.9505L43.0555 58.349C43.193 59.1324 43.877 59.6979 44.668 59.6979H47.3275C48.1185 59.6979 48.8063 59.1324 48.94 58.349L49.196 56.9505C49.987 56.7174 50.7512 56.4041 51.4734 56.0028L52.6465 56.8129C53.3037 57.2638 54.1826 57.1836 54.7404 56.6257L56.6204 54.7457C57.1783 54.1878 57.2662 53.3089 56.8077 52.6517L55.9976 51.4786C56.3988 50.7564 56.7122 49.9922 56.9453 49.2013L58.3438 48.9452C59.1271 48.8 59.6927 48.1237 59.6927 47.3328V44.6732C59.6927 43.8822 59.1271 43.1944 58.3438 43.0607L56.9453 42.8047C56.7122 42.0137 56.3988 41.2495 55.9976 40.5273L56.8077 39.3543C57.2586 38.697 57.1783 37.8182 56.6204 37.2603L54.7404 35.3803C54.1825 34.8224 53.3036 34.746 52.6465 35.193L51.4734 36.0031C50.7512 35.6019 49.987 35.2886 49.196 35.0555L48.94 33.6569C48.8025 32.8736 48.1185 32.3081 47.3275 32.3081H44.668C43.877 32.3081 43.1892 32.8736 43.0555 33.6569L42.7995 35.0555C42.0085 35.2886 41.2443 35.6019 40.5221 36.0031L39.349 35.193C38.6918 34.7421 37.8129 34.8224 37.2551 35.3803L35.375 37.2603C34.8172 37.8182 34.7407 38.6971 35.1878 39.3543L35.9979 40.5273C35.5966 41.2495 35.2833 42.0137 35.0502 42.8047L33.6517 43.0607C32.8684 43.2059 32.3028 43.8823 32.3028 44.6732V47.3328C32.3028 48.1237 32.8684 48.7963 33.6517 48.9452ZM34.1408 44.8337L35.5011 44.5892C36.1278 44.4707 36.6168 44.0237 36.7926 43.4161C36.999 42.6824 37.2932 41.9793 37.6638 41.3145C37.9772 40.7681 37.9466 40.0918 37.5874 39.5721L36.8041 38.4372L38.4472 36.7941L39.5821 37.5774C40.1018 37.9404 40.7666 37.9672 41.3245 37.6539C41.9894 37.2832 42.6924 36.989 43.4261 36.7826C44.0336 36.6145 44.4807 36.1178 44.5991 35.4911L44.8437 34.1308H47.1708L47.4153 35.4911C47.5338 36.1178 47.9732 36.6069 48.5884 36.7826C49.3221 36.989 50.0252 37.2832 50.69 37.6539C51.2364 37.9672 51.9127 37.9366 52.4324 37.5774L53.5673 36.7941L55.2104 38.4372L54.4271 39.5721C54.0641 40.0918 54.0373 40.7566 54.3506 41.3145C54.7213 41.9794 55.0155 42.6824 55.2219 43.4161C55.39 44.0237 55.8867 44.4707 56.5134 44.5892L57.8737 44.8337V47.1608L56.5134 47.4053C55.8867 47.5238 55.3976 47.9709 55.2219 48.5784C55.0155 49.3121 54.7213 50.0152 54.3506 50.68C54.0373 51.2264 54.0679 51.9028 54.4271 52.4224L55.2104 53.5573L53.5673 55.2004L52.4324 54.4171C51.9127 54.0541 51.2479 54.0273 50.69 54.3407C50.0251 54.7113 49.3221 55.0055 48.5884 55.2119C47.9808 55.38 47.5338 55.8768 47.4153 56.5034L47.1708 57.8637H44.8437L44.5991 56.5034C44.4807 55.8767 44.0413 55.3877 43.4261 55.2119C42.6924 55.0055 41.9893 54.7113 41.3245 54.3407C40.7781 54.0273 40.1017 54.0579 39.5821 54.4171L38.4472 55.2004L36.8041 53.5573L37.5874 52.4224C37.9504 51.9027 37.9772 51.2379 37.6638 50.68C37.2932 50.0151 36.999 49.3121 36.7926 48.5784C36.6245 47.9709 36.1277 47.5238 35.5011 47.4053L34.1408 47.1608V44.8337ZM45.9977 52.7206C49.7042 52.7206 52.7191 49.7095 52.7191 45.9992C52.7191 42.2926 49.708 39.2778 45.9977 39.2778C42.2911 39.2778 39.2763 42.2888 39.2763 45.9992C39.2763 49.7057 42.2911 52.7206 45.9977 52.7206ZM45.9977 41.1082C48.6992 41.1082 50.8887 43.2977 50.8887 45.9993C50.8887 48.6893 48.6992 50.8903 45.9977 50.8903C43.3076 50.8903 41.1066 48.7008 41.1066 45.9993C41.1066 43.3092 43.3076 41.1082 45.9977 41.1082Z"/>
</mask>
<path d="M82.0051 46.9191C82.4369 48.9825 84.2634 50.5377 86.4567 50.5377C88.9596 50.5377 90.9962 48.5049 90.9962 45.9982C90.9962 43.4953 88.9634 41.4587 86.4567 41.4587C84.2672 41.4587 82.4368 43.0139 82.0051 45.0773H68.0656V35.8721H82.4364C82.9447 35.8721 83.3573 35.4594 83.3573 34.9512V14.1065C85.4208 13.6748 86.9759 11.8482 86.9759 9.6549C86.9759 7.15205 84.9431 5.11542 82.4365 5.11542C79.9336 5.11542 77.897 7.14824 77.897 9.6549C77.897 11.8444 79.4521 13.6748 81.5156 14.1065V34.0337H68.0652V28.516C68.0652 25.9826 66.0017 23.9268 63.476 23.9268H57.9583L57.9621 17.8244H66.8654C67.2972 19.8879 69.1237 21.443 71.317 21.443C73.8199 21.443 75.8565 19.4102 75.8565 16.9035C75.8565 14.4007 73.8237 12.3641 71.317 12.3641C69.1275 12.3641 67.2972 13.9192 66.8654 15.9827L57.0412 15.9865C56.533 15.9865 56.1203 16.3992 56.1203 16.9074V23.9306H46.9152L46.919 9.99113C48.9824 9.55934 50.5376 7.73283 50.5376 5.53949C50.5376 3.03282 48.5009 1 45.9981 1C43.4952 1 41.4586 3.03282 41.4586 5.53949C41.4586 7.72902 43.0138 9.55935 45.0772 9.99113V23.9306H35.8721V9.55974C35.8721 9.05153 35.4594 8.63884 34.9512 8.63884H14.1065C13.6747 6.5754 11.8482 5.02024 9.65481 5.02024C7.15196 5.02024 5.11532 7.05306 5.11532 9.55973C5.11532 12.0626 7.14815 14.0992 9.65481 14.0992C11.8443 14.0992 13.6747 12.5441 14.1065 10.4806H34.0336V23.931H28.5159C25.9825 23.931 23.9267 25.9945 23.9267 28.5202V34.0379L17.8243 34.0341V25.1308C19.8878 24.699 21.4429 22.8725 21.4429 20.6791C21.4429 18.1763 19.4101 16.1397 16.9035 16.1397C14.4006 16.1397 12.364 18.1725 12.364 20.6791C12.364 22.8687 13.9191 24.699 15.9826 25.1308V34.951C15.9826 35.4593 16.3953 35.8719 16.9035 35.8719H23.9267V45.0771H9.99113C9.55934 43.0137 7.73283 41.4585 5.53949 41.4585C3.03282 41.4585 1 43.4951 1 45.998C1 48.5008 3.03282 50.5375 5.53949 50.5375C7.72902 50.5375 9.55935 48.9823 9.99113 46.9189H23.9306V56.124H9.55974C9.05153 56.124 8.63884 56.5367 8.63884 57.0449V77.8896C6.5754 78.3214 5.02024 80.1479 5.02024 82.3413C5.02024 84.8441 7.05306 86.8808 9.55973 86.8808C12.0626 86.8808 14.0992 84.8479 14.0992 82.3413C14.0992 80.1517 12.5441 78.3214 10.4806 77.8896V57.9625H23.931V63.4802C23.931 66.0136 25.9945 68.0694 28.5202 68.0694H34.0379V74.1718H25.1346C24.7028 72.1083 22.8763 70.5532 20.683 70.5532C18.1801 70.5532 16.1435 72.586 16.1435 75.0926C16.1435 77.5955 18.1763 79.6321 20.683 79.6321C22.8725 79.6321 24.7028 78.077 25.1346 76.0135H34.9549C35.4631 76.0135 35.8758 75.6008 35.8758 75.0926V68.0694H45.0809V82.0089C43.0175 82.4407 41.4623 84.2672 41.4623 86.4605C41.4623 88.9634 43.4952 91 46.0018 91C48.5047 91 50.5413 88.9672 50.5413 86.4605C50.5413 84.271 48.9861 82.4407 46.9227 82.0089L46.9189 68.0654H56.124V82.4363C56.124 82.9446 56.5367 83.3572 57.0449 83.3572H77.8896C78.3214 85.4207 80.1479 86.9758 82.3413 86.9758C84.8441 86.9758 86.8808 84.943 86.8808 82.4364C86.8808 79.9335 84.848 77.8969 82.3413 77.8969C80.1518 77.8969 78.3214 79.452 77.8896 81.5155H57.9625V68.0651H63.4802C66.0136 68.0651 68.0694 66.0016 68.0694 63.4759V57.9582H74.1718V66.8615C72.1083 67.2933 70.5532 69.1198 70.5532 71.3131C70.5532 73.816 72.586 75.8526 75.0926 75.8526C77.5955 75.8526 79.6321 73.8198 79.6321 71.3131C79.6321 69.1236 78.077 67.2933 76.0135 66.8615L76.0097 57.0412C76.0097 56.533 75.597 56.1203 75.0888 56.1203H68.0656V46.9152L82.0051 46.9191ZM86.4567 43.2967C87.9431 43.2967 89.1582 44.508 89.1582 45.9982C89.1582 47.4846 87.9469 48.6997 86.4567 48.6997C84.9703 48.6997 83.7476 47.4884 83.7476 45.9982C83.7476 44.5118 84.9589 43.2967 86.4567 43.2967ZM79.7277 9.66675C79.7277 8.18036 80.939 6.95759 82.4292 6.95759C83.9156 6.95759 85.1307 8.16891 85.1307 9.66675C85.1307 11.1646 83.9194 12.3683 82.4292 12.3683C80.939 12.3683 79.7277 11.1531 79.7277 9.66675ZM71.3135 14.2062C72.7999 14.2062 74.015 15.4176 74.015 16.9154C74.015 18.4132 72.8037 19.6169 71.3135 19.6169C69.8271 19.6169 68.612 18.4056 68.612 16.9154C68.6158 15.429 69.8195 14.2062 71.3135 14.2062ZM43.2966 5.53987C43.2966 4.05348 44.5079 2.83835 45.9981 2.83835C47.4845 2.83835 48.6996 4.04966 48.6996 5.53987C48.6996 7.02626 47.4883 8.2414 45.9981 8.2414C44.5117 8.23758 43.2966 7.03771 43.2966 5.53987ZM9.66664 12.2689C8.18025 12.2689 6.96512 11.0576 6.96512 9.56736C6.96512 8.08097 8.17644 6.85821 9.66664 6.85821C11.153 6.85821 12.3682 8.06953 12.3682 9.56736C12.3682 11.0652 11.153 12.2689 9.66664 12.2689ZM14.2061 20.6831C14.2061 19.1967 15.4174 17.9739 16.9077 17.9739C18.394 17.9739 19.6092 19.1852 19.6092 20.6831C19.6092 22.1809 18.3979 23.3846 16.9077 23.3846C15.4174 23.3808 14.2061 22.1771 14.2061 20.6831ZM5.53977 48.7C4.05338 48.7 2.83824 47.4887 2.83824 45.9985C2.83824 44.5121 4.04956 43.297 5.53977 43.297C7.02616 43.297 8.24892 44.5083 8.24892 45.9985C8.24892 47.4849 7.0376 48.7 5.53977 48.7ZM12.2688 82.3299C12.2688 83.8163 11.0575 85.0314 9.56726 85.0314C8.08087 85.0314 6.86573 83.8201 6.86573 82.3299C6.86573 80.8435 8.07705 79.6208 9.56726 79.6208C11.0575 79.6208 12.2688 80.8435 12.2688 82.3299ZM20.683 77.7904C19.1966 77.7904 17.9814 76.5791 17.9814 75.0889C17.9814 73.6025 19.1928 72.3874 20.683 72.3874C22.1694 72.3874 23.3845 73.5987 23.3845 75.0889C23.3807 76.5791 22.177 77.7904 20.683 77.7904ZM48.6999 86.4568C48.6999 87.9432 47.4886 89.1583 45.9984 89.1583C44.512 89.1583 43.2969 87.947 43.2969 86.4568C43.2969 84.9704 44.5082 83.7553 45.9984 83.7553C47.4848 83.7591 48.6999 84.959 48.6999 86.4568ZM82.3298 79.7278C83.8162 79.7278 85.0313 80.9391 85.0313 82.4369C85.0313 83.9348 83.82 85.1385 82.3298 85.1385C80.8434 85.1385 79.6283 83.9271 79.6283 82.4369C79.6283 80.9505 80.8434 79.7278 82.3298 79.7278ZM66.2275 63.4807C66.2275 64.9977 64.9933 66.2395 63.4686 66.2395H28.5172C27.0002 66.2395 25.7583 65.0053 25.7583 63.4807V28.5175C25.7583 27.0005 26.9925 25.7586 28.5172 25.7586H63.4686C64.9857 25.7586 66.2275 26.9928 66.2275 28.5175V63.4807ZM77.7899 71.314C77.7899 72.8004 76.5786 74.0155 75.0884 74.0155C73.602 74.0155 72.3793 72.8042 72.3793 71.314C72.3793 69.8276 73.5906 68.6048 75.0884 68.6048C76.5863 68.6048 77.7899 69.82 77.7899 71.314ZM62.0809 28.9985H29.9143C29.4061 28.9985 28.9934 29.4112 28.9934 29.9194V62.082C28.9934 62.5903 29.4061 63.0029 29.9143 63.0029H62.0769C62.5851 63.0029 62.9978 62.5903 62.9978 62.082V29.9155C62.9978 29.4073 62.5891 28.9985 62.0809 28.9985ZM61.16 61.1611H30.8354V30.8366H61.16V61.1611ZM33.6517 48.9452L35.0502 49.2013C35.2833 49.9922 35.5966 50.7564 35.9979 51.4786L35.1878 52.6517C34.7369 53.3089 34.8171 54.1878 35.375 54.7457L37.2551 56.6257C37.8129 57.1836 38.6919 57.2715 39.349 56.8129L40.5221 56.0028C41.2443 56.4041 42.0085 56.7174 42.7995 56.9505L43.0555 58.349C43.193 59.1324 43.877 59.6979 44.668 59.6979H47.3275C48.1185 59.6979 48.8063 59.1324 48.94 58.349L49.196 56.9505C49.987 56.7174 50.7512 56.4041 51.4734 56.0028L52.6465 56.8129C53.3037 57.2638 54.1826 57.1836 54.7404 56.6257L56.6204 54.7457C57.1783 54.1878 57.2662 53.3089 56.8077 52.6517L55.9976 51.4786C56.3988 50.7564 56.7122 49.9922 56.9453 49.2013L58.3438 48.9452C59.1271 48.8 59.6927 48.1237 59.6927 47.3328V44.6732C59.6927 43.8822 59.1271 43.1944 58.3438 43.0607L56.9453 42.8047C56.7122 42.0137 56.3988 41.2495 55.9976 40.5273L56.8077 39.3543C57.2586 38.697 57.1783 37.8182 56.6204 37.2603L54.7404 35.3803C54.1825 34.8224 53.3036 34.746 52.6465 35.193L51.4734 36.0031C50.7512 35.6019 49.987 35.2886 49.196 35.0555L48.94 33.6569C48.8025 32.8736 48.1185 32.3081 47.3275 32.3081H44.668C43.877 32.3081 43.1892 32.8736 43.0555 33.6569L42.7995 35.0555C42.0085 35.2886 41.2443 35.6019 40.5221 36.0031L39.349 35.193C38.6918 34.7421 37.8129 34.8224 37.2551 35.3803L35.375 37.2603C34.8172 37.8182 34.7407 38.6971 35.1878 39.3543L35.9979 40.5273C35.5966 41.2495 35.2833 42.0137 35.0502 42.8047L33.6517 43.0607C32.8684 43.2059 32.3028 43.8823 32.3028 44.6732V47.3328C32.3028 48.1237 32.8684 48.7963 33.6517 48.9452ZM34.1408 44.8337L35.5011 44.5892C36.1278 44.4707 36.6168 44.0237 36.7926 43.4161C36.999 42.6824 37.2932 41.9793 37.6638 41.3145C37.9772 40.7681 37.9466 40.0918 37.5874 39.5721L36.8041 38.4372L38.4472 36.7941L39.5821 37.5774C40.1018 37.9404 40.7666 37.9672 41.3245 37.6539C41.9894 37.2832 42.6924 36.989 43.4261 36.7826C44.0336 36.6145 44.4807 36.1178 44.5991 35.4911L44.8437 34.1308H47.1708L47.4153 35.4911C47.5338 36.1178 47.9732 36.6069 48.5884 36.7826C49.3221 36.989 50.0252 37.2832 50.69 37.6539C51.2364 37.9672 51.9127 37.9366 52.4324 37.5774L53.5673 36.7941L55.2104 38.4372L54.4271 39.5721C54.0641 40.0918 54.0373 40.7566 54.3506 41.3145C54.7213 41.9794 55.0155 42.6824 55.2219 43.4161C55.39 44.0237 55.8867 44.4707 56.5134 44.5892L57.8737 44.8337V47.1608L56.5134 47.4053C55.8867 47.5238 55.3976 47.9709 55.2219 48.5784C55.0155 49.3121 54.7213 50.0152 54.3506 50.68C54.0373 51.2264 54.0679 51.9028 54.4271 52.4224L55.2104 53.5573L53.5673 55.2004L52.4324 54.4171C51.9127 54.0541 51.2479 54.0273 50.69 54.3407C50.0251 54.7113 49.3221 55.0055 48.5884 55.2119C47.9808 55.38 47.5338 55.8768 47.4153 56.5034L47.1708 57.8637H44.8437L44.5991 56.5034C44.4807 55.8767 44.0413 55.3877 43.4261 55.2119C42.6924 55.0055 41.9893 54.7113 41.3245 54.3407C40.7781 54.0273 40.1017 54.0579 39.5821 54.4171L38.4472 55.2004L36.8041 53.5573L37.5874 52.4224C37.9504 51.9027 37.9772 51.2379 37.6638 50.68C37.2932 50.0151 36.999 49.3121 36.7926 48.5784C36.6245 47.9709 36.1277 47.5238 35.5011 47.4053L34.1408 47.1608V44.8337ZM45.9977 52.7206C49.7042 52.7206 52.7191 49.7095 52.7191 45.9992C52.7191 42.2926 49.708 39.2778 45.9977 39.2778C42.2911 39.2778 39.2763 42.2888 39.2763 45.9992C39.2763 49.7057 42.2911 52.7206 45.9977 52.7206ZM45.9977 41.1082C48.6992 41.1082 50.8887 43.2977 50.8887 45.9993C50.8887 48.6893 48.6992 50.8903 45.9977 50.8903C43.3076 50.8903 41.1066 48.7008 41.1066 45.9993C41.1066 43.3092 43.3076 41.1082 45.9977 41.1082Z" fill="#2E74CE"/>
<path d="M82.0051 46.9191C82.4369 48.9825 84.2634 50.5377 86.4567 50.5377C88.9596 50.5377 90.9962 48.5049 90.9962 45.9982C90.9962 43.4953 88.9634 41.4587 86.4567 41.4587C84.2672 41.4587 82.4368 43.0139 82.0051 45.0773H68.0656V35.8721H82.4364C82.9447 35.8721 83.3573 35.4594 83.3573 34.9512V14.1065C85.4208 13.6748 86.9759 11.8482 86.9759 9.6549C86.9759 7.15205 84.9431 5.11542 82.4365 5.11542C79.9336 5.11542 77.897 7.14824 77.897 9.6549C77.897 11.8444 79.4521 13.6748 81.5156 14.1065V34.0337H68.0652V28.516C68.0652 25.9826 66.0017 23.9268 63.476 23.9268H57.9583L57.9621 17.8244H66.8654C67.2972 19.8879 69.1237 21.443 71.317 21.443C73.8199 21.443 75.8565 19.4102 75.8565 16.9035C75.8565 14.4007 73.8237 12.3641 71.317 12.3641C69.1275 12.3641 67.2972 13.9192 66.8654 15.9827L57.0412 15.9865C56.533 15.9865 56.1203 16.3992 56.1203 16.9074V23.9306H46.9152L46.919 9.99113C48.9824 9.55934 50.5376 7.73283 50.5376 5.53949C50.5376 3.03282 48.5009 1 45.9981 1C43.4952 1 41.4586 3.03282 41.4586 5.53949C41.4586 7.72902 43.0138 9.55935 45.0772 9.99113V23.9306H35.8721V9.55974C35.8721 9.05153 35.4594 8.63884 34.9512 8.63884H14.1065C13.6747 6.5754 11.8482 5.02024 9.65481 5.02024C7.15196 5.02024 5.11532 7.05306 5.11532 9.55973C5.11532 12.0626 7.14815 14.0992 9.65481 14.0992C11.8443 14.0992 13.6747 12.5441 14.1065 10.4806H34.0336V23.931H28.5159C25.9825 23.931 23.9267 25.9945 23.9267 28.5202V34.0379L17.8243 34.0341V25.1308C19.8878 24.699 21.4429 22.8725 21.4429 20.6791C21.4429 18.1763 19.4101 16.1397 16.9035 16.1397C14.4006 16.1397 12.364 18.1725 12.364 20.6791C12.364 22.8687 13.9191 24.699 15.9826 25.1308V34.951C15.9826 35.4593 16.3953 35.8719 16.9035 35.8719H23.9267V45.0771H9.99113C9.55934 43.0137 7.73283 41.4585 5.53949 41.4585C3.03282 41.4585 1 43.4951 1 45.998C1 48.5008 3.03282 50.5375 5.53949 50.5375C7.72902 50.5375 9.55935 48.9823 9.99113 46.9189H23.9306V56.124H9.55974C9.05153 56.124 8.63884 56.5367 8.63884 57.0449V77.8896C6.5754 78.3214 5.02024 80.1479 5.02024 82.3413C5.02024 84.8441 7.05306 86.8808 9.55973 86.8808C12.0626 86.8808 14.0992 84.8479 14.0992 82.3413C14.0992 80.1517 12.5441 78.3214 10.4806 77.8896V57.9625H23.931V63.4802C23.931 66.0136 25.9945 68.0694 28.5202 68.0694H34.0379V74.1718H25.1346C24.7028 72.1083 22.8763 70.5532 20.683 70.5532C18.1801 70.5532 16.1435 72.586 16.1435 75.0926C16.1435 77.5955 18.1763 79.6321 20.683 79.6321C22.8725 79.6321 24.7028 78.077 25.1346 76.0135H34.9549C35.4631 76.0135 35.8758 75.6008 35.8758 75.0926V68.0694H45.0809V82.0089C43.0175 82.4407 41.4623 84.2672 41.4623 86.4605C41.4623 88.9634 43.4952 91 46.0018 91C48.5047 91 50.5413 88.9672 50.5413 86.4605C50.5413 84.271 48.9861 82.4407 46.9227 82.0089L46.9189 68.0654H56.124V82.4363C56.124 82.9446 56.5367 83.3572 57.0449 83.3572H77.8896C78.3214 85.4207 80.1479 86.9758 82.3413 86.9758C84.8441 86.9758 86.8808 84.943 86.8808 82.4364C86.8808 79.9335 84.848 77.8969 82.3413 77.8969C80.1518 77.8969 78.3214 79.452 77.8896 81.5155H57.9625V68.0651H63.4802C66.0136 68.0651 68.0694 66.0016 68.0694 63.4759V57.9582H74.1718V66.8615C72.1083 67.2933 70.5532 69.1198 70.5532 71.3131C70.5532 73.816 72.586 75.8526 75.0926 75.8526C77.5955 75.8526 79.6321 73.8198 79.6321 71.3131C79.6321 69.1236 78.077 67.2933 76.0135 66.8615L76.0097 57.0412C76.0097 56.533 75.597 56.1203 75.0888 56.1203H68.0656V46.9152L82.0051 46.9191ZM86.4567 43.2967C87.9431 43.2967 89.1582 44.508 89.1582 45.9982C89.1582 47.4846 87.9469 48.6997 86.4567 48.6997C84.9703 48.6997 83.7476 47.4884 83.7476 45.9982C83.7476 44.5118 84.9589 43.2967 86.4567 43.2967ZM79.7277 9.66675C79.7277 8.18036 80.939 6.95759 82.4292 6.95759C83.9156 6.95759 85.1307 8.16891 85.1307 9.66675C85.1307 11.1646 83.9194 12.3683 82.4292 12.3683C80.939 12.3683 79.7277 11.1531 79.7277 9.66675ZM71.3135 14.2062C72.7999 14.2062 74.015 15.4176 74.015 16.9154C74.015 18.4132 72.8037 19.6169 71.3135 19.6169C69.8271 19.6169 68.612 18.4056 68.612 16.9154C68.6158 15.429 69.8195 14.2062 71.3135 14.2062ZM43.2966 5.53987C43.2966 4.05348 44.5079 2.83835 45.9981 2.83835C47.4845 2.83835 48.6996 4.04966 48.6996 5.53987C48.6996 7.02626 47.4883 8.2414 45.9981 8.2414C44.5117 8.23758 43.2966 7.03771 43.2966 5.53987ZM9.66664 12.2689C8.18025 12.2689 6.96512 11.0576 6.96512 9.56736C6.96512 8.08097 8.17644 6.85821 9.66664 6.85821C11.153 6.85821 12.3682 8.06953 12.3682 9.56736C12.3682 11.0652 11.153 12.2689 9.66664 12.2689ZM14.2061 20.6831C14.2061 19.1967 15.4174 17.9739 16.9077 17.9739C18.394 17.9739 19.6092 19.1852 19.6092 20.6831C19.6092 22.1809 18.3979 23.3846 16.9077 23.3846C15.4174 23.3808 14.2061 22.1771 14.2061 20.6831ZM5.53977 48.7C4.05338 48.7 2.83824 47.4887 2.83824 45.9985C2.83824 44.5121 4.04956 43.297 5.53977 43.297C7.02616 43.297 8.24892 44.5083 8.24892 45.9985C8.24892 47.4849 7.0376 48.7 5.53977 48.7ZM12.2688 82.3299C12.2688 83.8163 11.0575 85.0314 9.56726 85.0314C8.08087 85.0314 6.86573 83.8201 6.86573 82.3299C6.86573 80.8435 8.07705 79.6208 9.56726 79.6208C11.0575 79.6208 12.2688 80.8435 12.2688 82.3299ZM20.683 77.7904C19.1966 77.7904 17.9814 76.5791 17.9814 75.0889C17.9814 73.6025 19.1928 72.3874 20.683 72.3874C22.1694 72.3874 23.3845 73.5987 23.3845 75.0889C23.3807 76.5791 22.177 77.7904 20.683 77.7904ZM48.6999 86.4568C48.6999 87.9432 47.4886 89.1583 45.9984 89.1583C44.512 89.1583 43.2969 87.947 43.2969 86.4568C43.2969 84.9704 44.5082 83.7553 45.9984 83.7553C47.4848 83.7591 48.6999 84.959 48.6999 86.4568ZM82.3298 79.7278C83.8162 79.7278 85.0313 80.9391 85.0313 82.4369C85.0313 83.9348 83.82 85.1385 82.3298 85.1385C80.8434 85.1385 79.6283 83.9271 79.6283 82.4369C79.6283 80.9505 80.8434 79.7278 82.3298 79.7278ZM66.2275 63.4807C66.2275 64.9977 64.9933 66.2395 63.4686 66.2395H28.5172C27.0002 66.2395 25.7583 65.0053 25.7583 63.4807V28.5175C25.7583 27.0005 26.9925 25.7586 28.5172 25.7586H63.4686C64.9857 25.7586 66.2275 26.9928 66.2275 28.5175V63.4807ZM77.7899 71.314C77.7899 72.8004 76.5786 74.0155 75.0884 74.0155C73.602 74.0155 72.3793 72.8042 72.3793 71.314C72.3793 69.8276 73.5906 68.6048 75.0884 68.6048C76.5863 68.6048 77.7899 69.82 77.7899 71.314ZM62.0809 28.9985H29.9143C29.4061 28.9985 28.9934 29.4112 28.9934 29.9194V62.082C28.9934 62.5903 29.4061 63.0029 29.9143 63.0029H62.0769C62.5851 63.0029 62.9978 62.5903 62.9978 62.082V29.9155C62.9978 29.4073 62.5891 28.9985 62.0809 28.9985ZM61.16 61.1611H30.8354V30.8366H61.16V61.1611ZM33.6517 48.9452L35.0502 49.2013C35.2833 49.9922 35.5966 50.7564 35.9979 51.4786L35.1878 52.6517C34.7369 53.3089 34.8171 54.1878 35.375 54.7457L37.2551 56.6257C37.8129 57.1836 38.6919 57.2715 39.349 56.8129L40.5221 56.0028C41.2443 56.4041 42.0085 56.7174 42.7995 56.9505L43.0555 58.349C43.193 59.1324 43.877 59.6979 44.668 59.6979H47.3275C48.1185 59.6979 48.8063 59.1324 48.94 58.349L49.196 56.9505C49.987 56.7174 50.7512 56.4041 51.4734 56.0028L52.6465 56.8129C53.3037 57.2638 54.1826 57.1836 54.7404 56.6257L56.6204 54.7457C57.1783 54.1878 57.2662 53.3089 56.8077 52.6517L55.9976 51.4786C56.3988 50.7564 56.7122 49.9922 56.9453 49.2013L58.3438 48.9452C59.1271 48.8 59.6927 48.1237 59.6927 47.3328V44.6732C59.6927 43.8822 59.1271 43.1944 58.3438 43.0607L56.9453 42.8047C56.7122 42.0137 56.3988 41.2495 55.9976 40.5273L56.8077 39.3543C57.2586 38.697 57.1783 37.8182 56.6204 37.2603L54.7404 35.3803C54.1825 34.8224 53.3036 34.746 52.6465 35.193L51.4734 36.0031C50.7512 35.6019 49.987 35.2886 49.196 35.0555L48.94 33.6569C48.8025 32.8736 48.1185 32.3081 47.3275 32.3081H44.668C43.877 32.3081 43.1892 32.8736 43.0555 33.6569L42.7995 35.0555C42.0085 35.2886 41.2443 35.6019 40.5221 36.0031L39.349 35.193C38.6918 34.7421 37.8129 34.8224 37.2551 35.3803L35.375 37.2603C34.8172 37.8182 34.7407 38.6971 35.1878 39.3543L35.9979 40.5273C35.5966 41.2495 35.2833 42.0137 35.0502 42.8047L33.6517 43.0607C32.8684 43.2059 32.3028 43.8823 32.3028 44.6732V47.3328C32.3028 48.1237 32.8684 48.7963 33.6517 48.9452ZM34.1408 44.8337L35.5011 44.5892C36.1278 44.4707 36.6168 44.0237 36.7926 43.4161C36.999 42.6824 37.2932 41.9793 37.6638 41.3145C37.9772 40.7681 37.9466 40.0918 37.5874 39.5721L36.8041 38.4372L38.4472 36.7941L39.5821 37.5774C40.1018 37.9404 40.7666 37.9672 41.3245 37.6539C41.9894 37.2832 42.6924 36.989 43.4261 36.7826C44.0336 36.6145 44.4807 36.1178 44.5991 35.4911L44.8437 34.1308H47.1708L47.4153 35.4911C47.5338 36.1178 47.9732 36.6069 48.5884 36.7826C49.3221 36.989 50.0252 37.2832 50.69 37.6539C51.2364 37.9672 51.9127 37.9366 52.4324 37.5774L53.5673 36.7941L55.2104 38.4372L54.4271 39.5721C54.0641 40.0918 54.0373 40.7566 54.3506 41.3145C54.7213 41.9794 55.0155 42.6824 55.2219 43.4161C55.39 44.0237 55.8867 44.4707 56.5134 44.5892L57.8737 44.8337V47.1608L56.5134 47.4053C55.8867 47.5238 55.3976 47.9709 55.2219 48.5784C55.0155 49.3121 54.7213 50.0152 54.3506 50.68C54.0373 51.2264 54.0679 51.9028 54.4271 52.4224L55.2104 53.5573L53.5673 55.2004L52.4324 54.4171C51.9127 54.0541 51.2479 54.0273 50.69 54.3407C50.0251 54.7113 49.3221 55.0055 48.5884 55.2119C47.9808 55.38 47.5338 55.8768 47.4153 56.5034L47.1708 57.8637H44.8437L44.5991 56.5034C44.4807 55.8767 44.0413 55.3877 43.4261 55.2119C42.6924 55.0055 41.9893 54.7113 41.3245 54.3407C40.7781 54.0273 40.1017 54.0579 39.5821 54.4171L38.4472 55.2004L36.8041 53.5573L37.5874 52.4224C37.9504 51.9027 37.9772 51.2379 37.6638 50.68C37.2932 50.0151 36.999 49.3121 36.7926 48.5784C36.6245 47.9709 36.1277 47.5238 35.5011 47.4053L34.1408 47.1608V44.8337ZM45.9977 52.7206C49.7042 52.7206 52.7191 49.7095 52.7191 45.9992C52.7191 42.2926 49.708 39.2778 45.9977 39.2778C42.2911 39.2778 39.2763 42.2888 39.2763 45.9992C39.2763 49.7057 42.2911 52.7206 45.9977 52.7206ZM45.9977 41.1082C48.6992 41.1082 50.8887 43.2977 50.8887 45.9993C50.8887 48.6893 48.6992 50.8903 45.9977 50.8903C43.3076 50.8903 41.1066 48.7008 41.1066 45.9993C41.1066 43.3092 43.3076 41.1082 45.9977 41.1082Z" stroke="#2E74CE" mask="url(#path-1-outside-1_199_155)"/>
</svg>
