<svg width="83" height="83" viewBox="0 0 83 83" fill="none" xmlns="http://www.w3.org/2000/svg">
<path d="M46.9844 26.5908C47.7657 26.9502 48.7032 26.6064 49.0625 25.8252C49.4218 25.0439 49.0625 24.1064 48.2969 23.7471C39.9844 19.9346 30.0469 21.7315 23.5469 28.2159C14.9531 36.8097 14.9531 50.8099 23.5469 59.4039C27.7188 63.5758 33.25 65.8727 39.1409 65.8727C45.0318 65.8727 50.5629 63.5758 54.7349 59.4039C61.2193 52.9195 63.0161 42.9659 59.2037 34.6539C58.8443 33.8726 57.9068 33.5289 57.1256 33.8882C56.3444 34.2476 56.0006 35.1694 56.36 35.9663C59.6412 43.0913 58.0944 51.6223 52.5162 57.2003C48.9381 60.7784 44.1881 62.7472 39.1252 62.7472C34.0623 62.7472 29.3127 60.7784 25.7342 57.2003C18.3592 49.8253 18.3592 37.8093 25.7342 30.4343C31.2967 24.8718 39.8432 23.3249 46.9682 26.5905L46.9844 26.5908Z" fill="#2E74CE"/>
<path d="M19.7183 63.2318C9.01529 52.5288 9.01529 35.1068 19.7183 24.3878C26.6089 17.4972 36.7493 14.7628 46.1873 17.2784C47.0154 17.4971 47.8748 16.9971 48.0935 16.169C48.3122 15.3408 47.8122 14.4815 46.9841 14.2628C36.4841 11.4659 25.1871 14.5128 17.5001 22.1847C5.57809 34.1067 5.57809 53.5127 17.5001 65.4507C23.4689 71.4195 31.2971 74.4038 39.1251 74.4038C46.9531 74.4038 54.7971 71.4194 60.7501 65.4507C68.4376 57.7632 71.4691 46.4667 68.672 35.9667C68.4532 35.1386 67.5939 34.6386 66.7658 34.8573C65.9377 35.076 65.4377 35.9354 65.6564 36.7635C68.172 46.1854 65.4376 56.3415 58.547 63.2325C47.844 73.9355 30.406 73.9355 19.703 63.2325L19.7183 63.2318Z" fill="#2E74CE"/>
<path d="M73.6714 28.9818C72.8589 29.2943 72.4683 30.185 72.7652 30.9975C77.812 44.2315 74.5933 59.2475 64.5777 69.2635C57.7808 76.0603 48.7337 79.8104 39.1246 79.8104C29.5156 79.8104 20.4687 76.0604 13.6716 69.2635C6.87465 62.4664 3.12465 53.4195 3.12465 43.8105C3.12465 34.2015 6.87465 25.1544 13.6716 18.3575C23.6876 8.34145 38.7027 5.12345 51.9377 10.17C52.7345 10.4668 53.6407 10.0762 53.9532 9.2637C54.2657 8.4512 53.8595 7.5606 53.047 7.2481C38.672 1.7637 22.344 5.2481 11.453 16.1387C4.0624 23.5293 0 33.3577 0 43.8107C0 54.2637 4.0781 64.0917 11.453 71.4827C18.8279 78.8737 28.672 82.9357 39.125 82.9357C49.578 82.9357 59.406 78.8732 66.797 71.4827C77.688 60.5917 81.172 44.2797 75.6876 29.8887C75.3751 29.0762 74.4682 28.685 73.6714 28.9818Z" fill="#2E74CE"/>
<path d="M82.8746 13.1069C82.6715 12.5444 82.1715 12.1381 81.5777 12.0757L71.9527 11.0132L70.8902 1.38817C70.8277 0.794417 70.4215 0.278766 69.859 0.0912661C69.2965 -0.111854 68.6559 0.0287661 68.234 0.466266L52.531 16.1693C52.2029 16.4974 52.031 16.9818 52.0779 17.4505L53.2029 27.5755L43.8591 36.9193C40.5935 34.7005 36.0935 35.0131 33.2031 37.9193C29.9375 41.1849 29.9375 46.5131 33.2031 49.7943C34.8437 51.4349 36.9843 52.2474 39.1406 52.2474C41.2969 52.2474 43.4375 51.4349 45.0781 49.7943C47.9687 46.9037 48.2969 42.4037 46.0781 39.1383L55.4219 29.7945L65.5469 30.9195H65.7188C66.125 30.9195 66.5313 30.7632 66.8282 30.4663L82.5312 14.7633C82.9531 14.3415 83.0937 13.7008 82.9062 13.1383L82.8746 13.1069ZM42.8586 47.5449C40.8117 49.5918 37.468 49.5918 35.4055 47.5449C33.343 45.498 33.3586 42.1543 35.4055 40.0918C36.4367 39.0606 37.7805 38.5449 39.1243 38.5449C39.9681 38.5449 40.7962 38.7636 41.5618 39.1699L38.0306 42.7011C37.4212 43.3104 37.4212 44.2949 38.0306 44.9042C38.3431 45.2167 38.7337 45.3573 39.14 45.3573C39.5463 45.3573 39.9369 45.201 40.2494 44.9042L43.7806 41.373C44.8118 43.3574 44.5306 45.8574 42.8587 47.5292L42.8586 47.5449ZM65.1246 27.6859L56.2496 26.7015L55.2652 17.8265L68.1242 4.96749L68.968 12.6081C69.0461 13.3268 69.6242 13.905 70.343 13.9831L77.9836 14.8268L65.1246 27.6859Z" fill="#2E74CE"/>
</svg>
