<svg width="90" height="92" viewBox="0 0 90 92" fill="none" xmlns="http://www.w3.org/2000/svg">
<mask id="path-1-outside-1_199_173" maskUnits="userSpaceOnUse" x="0" y="0" width="90" height="92" fill="black">
<rect fill="white" width="90" height="92"/>
<path fill-rule="evenodd" clip-rule="evenodd" d="M51.0347 82.551L50.6407 85.572C50.5969 85.907 50.43 86.2137 50.1726 86.4324C49.9151 86.651 49.5854 86.766 49.2477 86.755H38.4567C38.127 86.7549 37.8086 86.6349 37.5608 86.4175C37.313 86.2 37.1527 85.8999 37.1097 85.573L35.7627 75.246C32.8387 74.493 30.0357 73.3308 27.4367 71.794L19.1817 78.144C18.9201 78.3458 18.5938 78.4455 18.2641 78.4243C17.9343 78.4031 17.6235 78.2626 17.3897 78.029L9.72773 70.366C9.48096 70.1193 9.33823 69.7873 9.32892 69.4385C9.31962 69.0896 9.44446 68.7505 9.67773 68.491L15.9627 60.319C14.426 57.72 13.2638 54.917 12.5107 51.993L2.18273 50.646C1.84794 50.602 1.54149 50.435 1.32301 50.1775C1.10453 49.92 0.989658 49.5905 1.00073 49.253V38.462C1.00062 38.1322 1.1205 37.8137 1.338 37.5658C1.5555 37.318 1.85576 37.1577 2.18273 37.115L12.5087 35.768C13.2621 32.8435 14.4249 30.0401 15.9627 27.441L9.61373 19.186C9.41171 18.9243 9.31186 18.598 9.33284 18.268C9.35382 17.9381 9.49419 17.627 9.72773 17.393L17.3897 9.73C17.6366 9.48316 17.9688 9.3404 18.3178 9.3311C18.6668 9.32179 19.006 9.44667 19.2657 9.68L27.4397 15.968C30.0374 14.4301 32.8395 13.2673 35.7627 12.514L37.1097 2.188C37.1522 1.86084 37.3124 1.56035 37.5603 1.34264C37.8082 1.12494 38.1268 1.00492 38.4567 1.005V1H49.2927C49.6434 0.999883 49.9806 1.13492 50.2343 1.37703C50.4879 1.61915 50.6385 1.94971 50.6547 2.3L51.9887 12.516C54.9127 13.269 57.7157 14.4312 60.3147 15.968L68.5697 9.618C68.8313 9.41564 69.1575 9.3155 69.4875 9.3363C69.8176 9.35709 70.1287 9.49741 70.3627 9.731L78.0247 17.394C78.2715 17.6407 78.4142 17.9727 78.4235 18.3215C78.4328 18.6704 78.308 19.0095 78.0747 19.269L71.7877 27.444C73.3246 30.0429 74.4864 32.8459 75.2387 35.77L85.5627 37.114C85.8977 37.1578 86.2044 37.3247 86.4231 37.5822C86.6418 37.8397 86.7568 38.1694 86.7457 38.507V49.3C86.7451 49.6295 86.6248 49.9476 86.4072 50.195C86.1896 50.4424 85.8895 50.6023 85.5627 50.645L79.9627 51.376C82.5897 53.0948 84.8098 55.3662 86.4681 58.0317C88.1265 60.6972 89.183 63.6926 89.564 66.8086C89.945 69.9247 89.6413 73.0864 88.6741 76.0729C87.7068 79.0594 86.0994 81.7989 83.9639 84.1C81.8285 86.401 79.2166 88.2083 76.3105 89.3955C73.4044 90.5828 70.2741 91.1214 67.1383 90.9738C64.0025 90.8262 60.9367 89.9959 58.155 88.541C55.3733 87.0861 52.9426 85.0415 51.0327 82.55L51.0347 82.551ZM69.3627 55.848C69.2474 55.6304 69.0753 55.4482 68.8647 55.3206C68.6541 55.1931 68.4128 55.1251 68.1666 55.1237C67.9204 55.1224 67.6784 55.1878 67.4664 55.3131C67.2544 55.4383 67.0804 55.6187 66.9627 55.835L62.8467 63.487L54.3627 65.024C54.1135 65.0561 53.8781 65.1566 53.6825 65.3143C53.4869 65.472 53.3389 65.6809 53.2548 65.9177C53.1707 66.1544 53.1538 66.4099 53.206 66.6556C53.2583 66.9014 53.3776 67.1279 53.5507 67.31L59.5627 73.591L58.4007 82.155C58.3595 82.401 58.3867 82.6536 58.4793 82.8853C58.572 83.1169 58.7265 83.3186 58.926 83.4683C59.1255 83.6181 59.3623 83.7101 59.6106 83.7344C59.8588 83.7587 60.109 83.7143 60.3337 83.606L68.1587 79.837L75.9837 83.606C76.2049 83.7122 76.4506 83.7567 76.6949 83.7346C76.9393 83.7126 77.1731 83.6249 77.3716 83.4808C77.5702 83.3367 77.726 83.1415 77.8227 82.9161C77.9193 82.6906 77.9532 82.4432 77.9207 82.2L76.7527 73.591L82.7627 67.31C82.9308 67.132 83.0478 66.9118 83.1013 66.6729C83.1548 66.4339 83.1428 66.185 83.0666 65.9523C82.9904 65.7196 82.8529 65.5117 82.6685 65.3506C82.484 65.1895 82.2596 65.0812 82.0187 65.037L73.4767 63.488L69.3627 55.848ZM71.3847 65.348L68.1577 59.348L64.9307 65.348C64.8338 65.5283 64.6974 65.6844 64.5317 65.8046C64.366 65.9248 64.1752 66.0059 63.9737 66.042L57.2737 67.257L61.9867 72.186C62.1272 72.3332 62.2328 72.5101 62.2957 72.7036C62.3585 72.8972 62.377 73.1024 62.3497 73.304L61.4337 80.057C63.4757 79.0723 65.5187 78.0867 67.5627 77.1C67.7469 77.0106 67.949 76.9642 68.1537 76.9642C68.3585 76.9642 68.5605 77.0106 68.7447 77.1L74.8827 80.056L73.9717 73.335C73.9387 73.1288 73.9538 72.9177 74.0157 72.7182C74.0776 72.5188 74.1847 72.3363 74.3287 72.185L79.0417 67.256L72.4177 66.056C72.2007 66.0304 71.9931 65.9527 71.8126 65.8296C71.632 65.7065 71.4839 65.5416 71.3807 65.349L71.3847 65.348ZM75.6517 49.2L84.0327 48.107V39.657L74.0067 38.347C73.7222 38.3189 73.4538 38.2018 73.2397 38.0124C73.0255 37.823 72.8765 37.5709 72.8137 37.292C72.0702 34.0327 70.7818 30.9223 69.0027 28.092C68.8491 27.8557 68.7727 27.5774 68.7841 27.2958C68.7956 27.0141 68.8943 26.743 69.0667 26.52L75.2547 18.474L69.2797 12.5L61.2627 18.668C61.0425 18.8478 60.7715 18.9541 60.4878 18.9721C60.2041 18.99 59.9218 18.9187 59.6807 18.768C56.8468 16.9801 53.7298 15.6864 50.4627 14.942C50.1909 14.8808 49.9444 14.7376 49.7566 14.5318C49.5688 14.3259 49.4488 14.0673 49.4127 13.791L48.1007 3.727H39.6497L38.3417 13.749C38.3134 14.0335 38.1963 14.3018 38.0069 14.5159C37.8176 14.7301 37.5656 14.8791 37.2867 14.942C34.0272 15.6849 30.9168 16.9734 28.0867 18.753C27.8503 18.9064 27.572 18.9825 27.2904 18.9709C27.0088 18.9593 26.7377 18.8604 26.5147 18.688L18.4707 12.5L12.4957 18.475L18.6627 26.5C18.8417 26.7206 18.947 26.9918 18.9638 27.2754C18.9807 27.559 18.9083 27.8407 18.7567 28.081C16.9715 30.915 15.6795 34.0312 14.9357 37.297C14.8747 37.5687 14.7316 37.815 14.5259 38.0026C14.3202 38.1903 14.0618 38.3101 13.7857 38.346L3.71673 39.655V48.105L13.7437 49.413C14.0282 49.4411 14.2966 49.5582 14.5108 49.7476C14.725 49.937 14.874 50.1891 14.9367 50.468C15.6805 53.7272 16.9689 56.8375 18.7477 59.668C18.9014 59.9043 18.9778 60.1826 18.9663 60.4642C18.9549 60.7459 18.8561 61.017 18.6837 61.24L12.4957 69.286L18.4707 75.261L26.4897 69.093C26.7107 68.9143 26.9821 68.8092 27.2658 68.7925C27.5495 68.7758 27.8313 68.8484 28.0717 69C30.9051 70.7858 34.021 72.0778 37.2867 72.821C37.5586 72.8822 37.8051 73.0254 37.9929 73.2312C38.1807 73.4371 38.3007 73.6957 38.3367 73.972L39.6507 84.041H48.0997L48.7707 78.901C46.546 74.331 46.0001 69.124 47.2287 64.192C42.8844 64.9094 38.4246 64.2148 34.5042 62.2102C30.5838 60.2057 27.4095 56.9969 25.4476 53.055C23.4856 49.1132 22.8393 44.6461 23.6036 40.3098C24.368 35.9735 26.5027 31.9966 29.6942 28.9632C32.8857 25.9297 36.9658 23.9996 41.3353 23.4563C45.7048 22.913 50.1333 23.7852 53.9705 25.9447C57.8077 28.1042 60.8513 31.4372 62.6543 35.4543C64.4573 39.4714 64.9247 43.9607 63.9877 48.263C67.8879 47.499 71.9231 47.8225 75.6517 49.198V49.2ZM48.2077 61.213C49.5751 57.9025 51.7438 54.9837 54.5187 52.719C49.6967 48.11 40.6747 47.775 35.1057 51.267C33.1837 52.3744 31.716 54.1266 30.9627 56.213C33.1416 58.4926 35.8843 60.1556 38.9129 61.0337C41.9415 61.9118 45.1475 61.9736 48.2077 61.213ZM56.7627 51.113C58.085 50.2876 59.4933 49.6089 60.9627 49.089C61.8409 46.2072 61.9759 43.1502 61.3552 40.2022C60.7345 37.2543 59.3783 34.5112 57.4127 32.2282C55.4471 29.9452 52.9361 28.1964 50.1131 27.1445C47.2901 26.0927 44.2469 25.7719 41.2666 26.2121C38.2864 26.6522 35.4659 27.839 33.0675 29.662C30.6691 31.4851 28.7708 33.8851 27.5491 36.6388C26.3274 39.3926 25.822 42.4106 26.08 45.4121C26.3381 48.4136 27.351 51.3011 29.0247 53.806C30.8347 50.327 34.5017 47.988 38.3877 46.918C37.0488 45.793 36.0883 44.2834 35.6366 42.5939C35.1848 40.9045 35.2636 39.117 35.8623 37.4738C36.4609 35.8307 37.5505 34.4115 38.9832 33.4086C40.4159 32.4058 42.1224 31.8679 43.8712 31.8679C45.62 31.8679 47.3265 32.4058 48.7592 33.4086C50.1919 34.4115 51.2815 35.8307 51.8802 37.4738C52.4789 39.117 52.5577 40.9045 52.1059 42.5939C51.6541 44.2834 50.6936 45.793 49.3547 46.918C52.1488 47.6404 54.702 49.0894 56.7547 51.118L56.7627 51.113ZM81.4807 56.107C78.8455 53.4718 75.488 51.6771 71.8328 50.9501C68.1776 50.223 64.3889 50.5962 60.9458 52.0223C57.5027 53.4485 54.5598 55.8637 52.4893 58.9624C50.4188 62.0611 49.3137 65.7042 49.3137 69.431C49.3137 73.1578 50.4188 76.8009 52.4893 79.8996C54.5598 82.9983 57.5027 85.4135 60.9458 86.8397C64.3889 88.2658 68.1776 88.639 71.8328 87.9119C75.488 87.1849 78.8455 85.3902 81.4807 82.755C85.0142 79.2211 86.9993 74.4284 86.9993 69.431C86.9993 64.4336 85.0142 59.6409 81.4807 56.107ZM47.9737 36.292C47.1627 35.4805 46.1293 34.9278 45.0041 34.7037C43.8789 34.4796 42.7125 34.5943 41.6525 35.0332C40.5925 35.4721 39.6865 36.2155 39.049 37.1693C38.4115 38.1232 38.0713 39.2447 38.0713 40.392C38.0713 41.5393 38.4115 42.6608 39.049 43.6147C39.6865 44.5685 40.5925 45.3119 41.6525 45.7508C42.7125 46.1897 43.8789 46.3044 45.0041 46.0803C46.1293 45.8562 47.1627 45.3035 47.9737 44.492C49.0607 43.4044 49.6713 41.9297 49.6713 40.392C49.6713 38.8543 49.0607 37.3796 47.9737 36.292Z"/>
</mask>
<path fill-rule="evenodd" clip-rule="evenodd" d="M51.0347 82.551L50.6407 85.572C50.5969 85.907 50.43 86.2137 50.1726 86.4324C49.9151 86.651 49.5854 86.766 49.2477 86.755H38.4567C38.127 86.7549 37.8086 86.6349 37.5608 86.4175C37.313 86.2 37.1527 85.8999 37.1097 85.573L35.7627 75.246C32.8387 74.493 30.0357 73.3308 27.4367 71.794L19.1817 78.144C18.9201 78.3458 18.5938 78.4455 18.2641 78.4243C17.9343 78.4031 17.6235 78.2626 17.3897 78.029L9.72773 70.366C9.48096 70.1193 9.33823 69.7873 9.32892 69.4385C9.31962 69.0896 9.44446 68.7505 9.67773 68.491L15.9627 60.319C14.426 57.72 13.2638 54.917 12.5107 51.993L2.18273 50.646C1.84794 50.602 1.54149 50.435 1.32301 50.1775C1.10453 49.92 0.989658 49.5905 1.00073 49.253V38.462C1.00062 38.1322 1.1205 37.8137 1.338 37.5658C1.5555 37.318 1.85576 37.1577 2.18273 37.115L12.5087 35.768C13.2621 32.8435 14.4249 30.0401 15.9627 27.441L9.61373 19.186C9.41171 18.9243 9.31186 18.598 9.33284 18.268C9.35382 17.9381 9.49419 17.627 9.72773 17.393L17.3897 9.73C17.6366 9.48316 17.9688 9.3404 18.3178 9.3311C18.6668 9.32179 19.006 9.44667 19.2657 9.68L27.4397 15.968C30.0374 14.4301 32.8395 13.2673 35.7627 12.514L37.1097 2.188C37.1522 1.86084 37.3124 1.56035 37.5603 1.34264C37.8082 1.12494 38.1268 1.00492 38.4567 1.005V1H49.2927C49.6434 0.999883 49.9806 1.13492 50.2343 1.37703C50.4879 1.61915 50.6385 1.94971 50.6547 2.3L51.9887 12.516C54.9127 13.269 57.7157 14.4312 60.3147 15.968L68.5697 9.618C68.8313 9.41564 69.1575 9.3155 69.4875 9.3363C69.8176 9.35709 70.1287 9.49741 70.3627 9.731L78.0247 17.394C78.2715 17.6407 78.4142 17.9727 78.4235 18.3215C78.4328 18.6704 78.308 19.0095 78.0747 19.269L71.7877 27.444C73.3246 30.0429 74.4864 32.8459 75.2387 35.77L85.5627 37.114C85.8977 37.1578 86.2044 37.3247 86.4231 37.5822C86.6418 37.8397 86.7568 38.1694 86.7457 38.507V49.3C86.7451 49.6295 86.6248 49.9476 86.4072 50.195C86.1896 50.4424 85.8895 50.6023 85.5627 50.645L79.9627 51.376C82.5897 53.0948 84.8098 55.3662 86.4681 58.0317C88.1265 60.6972 89.183 63.6926 89.564 66.8086C89.945 69.9247 89.6413 73.0864 88.6741 76.0729C87.7068 79.0594 86.0994 81.7989 83.9639 84.1C81.8285 86.401 79.2166 88.2083 76.3105 89.3955C73.4044 90.5828 70.2741 91.1214 67.1383 90.9738C64.0025 90.8262 60.9367 89.9959 58.155 88.541C55.3733 87.0861 52.9426 85.0415 51.0327 82.55L51.0347 82.551ZM69.3627 55.848C69.2474 55.6304 69.0753 55.4482 68.8647 55.3206C68.6541 55.1931 68.4128 55.1251 68.1666 55.1237C67.9204 55.1224 67.6784 55.1878 67.4664 55.3131C67.2544 55.4383 67.0804 55.6187 66.9627 55.835L62.8467 63.487L54.3627 65.024C54.1135 65.0561 53.8781 65.1566 53.6825 65.3143C53.4869 65.472 53.3389 65.6809 53.2548 65.9177C53.1707 66.1544 53.1538 66.4099 53.206 66.6556C53.2583 66.9014 53.3776 67.1279 53.5507 67.31L59.5627 73.591L58.4007 82.155C58.3595 82.401 58.3867 82.6536 58.4793 82.8853C58.572 83.1169 58.7265 83.3186 58.926 83.4683C59.1255 83.6181 59.3623 83.7101 59.6106 83.7344C59.8588 83.7587 60.109 83.7143 60.3337 83.606L68.1587 79.837L75.9837 83.606C76.2049 83.7122 76.4506 83.7567 76.6949 83.7346C76.9393 83.7126 77.1731 83.6249 77.3716 83.4808C77.5702 83.3367 77.726 83.1415 77.8227 82.9161C77.9193 82.6906 77.9532 82.4432 77.9207 82.2L76.7527 73.591L82.7627 67.31C82.9308 67.132 83.0478 66.9118 83.1013 66.6729C83.1548 66.4339 83.1428 66.185 83.0666 65.9523C82.9904 65.7196 82.8529 65.5117 82.6685 65.3506C82.484 65.1895 82.2596 65.0812 82.0187 65.037L73.4767 63.488L69.3627 55.848ZM71.3847 65.348L68.1577 59.348L64.9307 65.348C64.8338 65.5283 64.6974 65.6844 64.5317 65.8046C64.366 65.9248 64.1752 66.0059 63.9737 66.042L57.2737 67.257L61.9867 72.186C62.1272 72.3332 62.2328 72.5101 62.2957 72.7036C62.3585 72.8972 62.377 73.1024 62.3497 73.304L61.4337 80.057C63.4757 79.0723 65.5187 78.0867 67.5627 77.1C67.7469 77.0106 67.949 76.9642 68.1537 76.9642C68.3585 76.9642 68.5605 77.0106 68.7447 77.1L74.8827 80.056L73.9717 73.335C73.9387 73.1288 73.9538 72.9177 74.0157 72.7182C74.0776 72.5188 74.1847 72.3363 74.3287 72.185L79.0417 67.256L72.4177 66.056C72.2007 66.0304 71.9931 65.9527 71.8126 65.8296C71.632 65.7065 71.4839 65.5416 71.3807 65.349L71.3847 65.348ZM75.6517 49.2L84.0327 48.107V39.657L74.0067 38.347C73.7222 38.3189 73.4538 38.2018 73.2397 38.0124C73.0255 37.823 72.8765 37.5709 72.8137 37.292C72.0702 34.0327 70.7818 30.9223 69.0027 28.092C68.8491 27.8557 68.7727 27.5774 68.7841 27.2958C68.7956 27.0141 68.8943 26.743 69.0667 26.52L75.2547 18.474L69.2797 12.5L61.2627 18.668C61.0425 18.8478 60.7715 18.9541 60.4878 18.9721C60.2041 18.99 59.9218 18.9187 59.6807 18.768C56.8468 16.9801 53.7298 15.6864 50.4627 14.942C50.1909 14.8808 49.9444 14.7376 49.7566 14.5318C49.5688 14.3259 49.4488 14.0673 49.4127 13.791L48.1007 3.727H39.6497L38.3417 13.749C38.3134 14.0335 38.1963 14.3018 38.0069 14.5159C37.8176 14.7301 37.5656 14.8791 37.2867 14.942C34.0272 15.6849 30.9168 16.9734 28.0867 18.753C27.8503 18.9064 27.572 18.9825 27.2904 18.9709C27.0088 18.9593 26.7377 18.8604 26.5147 18.688L18.4707 12.5L12.4957 18.475L18.6627 26.5C18.8417 26.7206 18.947 26.9918 18.9638 27.2754C18.9807 27.559 18.9083 27.8407 18.7567 28.081C16.9715 30.915 15.6795 34.0312 14.9357 37.297C14.8747 37.5687 14.7316 37.815 14.5259 38.0026C14.3202 38.1903 14.0618 38.3101 13.7857 38.346L3.71673 39.655V48.105L13.7437 49.413C14.0282 49.4411 14.2966 49.5582 14.5108 49.7476C14.725 49.937 14.874 50.1891 14.9367 50.468C15.6805 53.7272 16.9689 56.8375 18.7477 59.668C18.9014 59.9043 18.9778 60.1826 18.9663 60.4642C18.9549 60.7459 18.8561 61.017 18.6837 61.24L12.4957 69.286L18.4707 75.261L26.4897 69.093C26.7107 68.9143 26.9821 68.8092 27.2658 68.7925C27.5495 68.7758 27.8313 68.8484 28.0717 69C30.9051 70.7858 34.021 72.0778 37.2867 72.821C37.5586 72.8822 37.8051 73.0254 37.9929 73.2312C38.1807 73.4371 38.3007 73.6957 38.3367 73.972L39.6507 84.041H48.0997L48.7707 78.901C46.546 74.331 46.0001 69.124 47.2287 64.192C42.8844 64.9094 38.4246 64.2148 34.5042 62.2102C30.5838 60.2057 27.4095 56.9969 25.4476 53.055C23.4856 49.1132 22.8393 44.6461 23.6036 40.3098C24.368 35.9735 26.5027 31.9966 29.6942 28.9632C32.8857 25.9297 36.9658 23.9996 41.3353 23.4563C45.7048 22.913 50.1333 23.7852 53.9705 25.9447C57.8077 28.1042 60.8513 31.4372 62.6543 35.4543C64.4573 39.4714 64.9247 43.9607 63.9877 48.263C67.8879 47.499 71.9231 47.8225 75.6517 49.198V49.2ZM48.2077 61.213C49.5751 57.9025 51.7438 54.9837 54.5187 52.719C49.6967 48.11 40.6747 47.775 35.1057 51.267C33.1837 52.3744 31.716 54.1266 30.9627 56.213C33.1416 58.4926 35.8843 60.1556 38.9129 61.0337C41.9415 61.9118 45.1475 61.9736 48.2077 61.213ZM56.7627 51.113C58.085 50.2876 59.4933 49.6089 60.9627 49.089C61.8409 46.2072 61.9759 43.1502 61.3552 40.2022C60.7345 37.2543 59.3783 34.5112 57.4127 32.2282C55.4471 29.9452 52.9361 28.1964 50.1131 27.1445C47.2901 26.0927 44.2469 25.7719 41.2666 26.2121C38.2864 26.6522 35.4659 27.839 33.0675 29.662C30.6691 31.4851 28.7708 33.8851 27.5491 36.6388C26.3274 39.3926 25.822 42.4106 26.08 45.4121C26.3381 48.4136 27.351 51.3011 29.0247 53.806C30.8347 50.327 34.5017 47.988 38.3877 46.918C37.0488 45.793 36.0883 44.2834 35.6366 42.5939C35.1848 40.9045 35.2636 39.117 35.8623 37.4738C36.4609 35.8307 37.5505 34.4115 38.9832 33.4086C40.4159 32.4058 42.1224 31.8679 43.8712 31.8679C45.62 31.8679 47.3265 32.4058 48.7592 33.4086C50.1919 34.4115 51.2815 35.8307 51.8802 37.4738C52.4789 39.117 52.5577 40.9045 52.1059 42.5939C51.6541 44.2834 50.6936 45.793 49.3547 46.918C52.1488 47.6404 54.702 49.0894 56.7547 51.118L56.7627 51.113ZM81.4807 56.107C78.8455 53.4718 75.488 51.6771 71.8328 50.9501C68.1776 50.223 64.3889 50.5962 60.9458 52.0223C57.5027 53.4485 54.5598 55.8637 52.4893 58.9624C50.4188 62.0611 49.3137 65.7042 49.3137 69.431C49.3137 73.1578 50.4188 76.8009 52.4893 79.8996C54.5598 82.9983 57.5027 85.4135 60.9458 86.8397C64.3889 88.2658 68.1776 88.639 71.8328 87.9119C75.488 87.1849 78.8455 85.3902 81.4807 82.755C85.0142 79.2211 86.9993 74.4284 86.9993 69.431C86.9993 64.4336 85.0142 59.6409 81.4807 56.107ZM47.9737 36.292C47.1627 35.4805 46.1293 34.9278 45.0041 34.7037C43.8789 34.4796 42.7125 34.5943 41.6525 35.0332C40.5925 35.4721 39.6865 36.2155 39.049 37.1693C38.4115 38.1232 38.0713 39.2447 38.0713 40.392C38.0713 41.5393 38.4115 42.6608 39.049 43.6147C39.6865 44.5685 40.5925 45.3119 41.6525 45.7508C42.7125 46.1897 43.8789 46.3044 45.0041 46.0803C46.1293 45.8562 47.1627 45.3035 47.9737 44.492C49.0607 43.4044 49.6713 41.9297 49.6713 40.392C49.6713 38.8543 49.0607 37.3796 47.9737 36.292Z" fill="#2E74CE"/>
<path fill-rule="evenodd" clip-rule="evenodd" d="M51.0347 82.551L50.6407 85.572C50.5969 85.907 50.43 86.2137 50.1726 86.4324C49.9151 86.651 49.5854 86.766 49.2477 86.755H38.4567C38.127 86.7549 37.8086 86.6349 37.5608 86.4175C37.313 86.2 37.1527 85.8999 37.1097 85.573L35.7627 75.246C32.8387 74.493 30.0357 73.3308 27.4367 71.794L19.1817 78.144C18.9201 78.3458 18.5938 78.4455 18.2641 78.4243C17.9343 78.4031 17.6235 78.2626 17.3897 78.029L9.72773 70.366C9.48096 70.1193 9.33823 69.7873 9.32892 69.4385C9.31962 69.0896 9.44446 68.7505 9.67773 68.491L15.9627 60.319C14.426 57.72 13.2638 54.917 12.5107 51.993L2.18273 50.646C1.84794 50.602 1.54149 50.435 1.32301 50.1775C1.10453 49.92 0.989658 49.5905 1.00073 49.253V38.462C1.00062 38.1322 1.1205 37.8137 1.338 37.5658C1.5555 37.318 1.85576 37.1577 2.18273 37.115L12.5087 35.768C13.2621 32.8435 14.4249 30.0401 15.9627 27.441L9.61373 19.186C9.41171 18.9243 9.31186 18.598 9.33284 18.268C9.35382 17.9381 9.49419 17.627 9.72773 17.393L17.3897 9.73C17.6366 9.48316 17.9688 9.3404 18.3178 9.3311C18.6668 9.32179 19.006 9.44667 19.2657 9.68L27.4397 15.968C30.0374 14.4301 32.8395 13.2673 35.7627 12.514L37.1097 2.188C37.1522 1.86084 37.3124 1.56035 37.5603 1.34264C37.8082 1.12494 38.1268 1.00492 38.4567 1.005V1H49.2927C49.6434 0.999883 49.9806 1.13492 50.2343 1.37703C50.4879 1.61915 50.6385 1.94971 50.6547 2.3L51.9887 12.516C54.9127 13.269 57.7157 14.4312 60.3147 15.968L68.5697 9.618C68.8313 9.41564 69.1575 9.3155 69.4875 9.3363C69.8176 9.35709 70.1287 9.49741 70.3627 9.731L78.0247 17.394C78.2715 17.6407 78.4142 17.9727 78.4235 18.3215C78.4328 18.6704 78.308 19.0095 78.0747 19.269L71.7877 27.444C73.3246 30.0429 74.4864 32.8459 75.2387 35.77L85.5627 37.114C85.8977 37.1578 86.2044 37.3247 86.4231 37.5822C86.6418 37.8397 86.7568 38.1694 86.7457 38.507V49.3C86.7451 49.6295 86.6248 49.9476 86.4072 50.195C86.1896 50.4424 85.8895 50.6023 85.5627 50.645L79.9627 51.376C82.5897 53.0948 84.8098 55.3662 86.4681 58.0317C88.1265 60.6972 89.183 63.6926 89.564 66.8086C89.945 69.9247 89.6413 73.0864 88.6741 76.0729C87.7068 79.0594 86.0994 81.7989 83.9639 84.1C81.8285 86.401 79.2166 88.2083 76.3105 89.3955C73.4044 90.5828 70.2741 91.1214 67.1383 90.9738C64.0025 90.8262 60.9367 89.9959 58.155 88.541C55.3733 87.0861 52.9426 85.0415 51.0327 82.55L51.0347 82.551ZM69.3627 55.848C69.2474 55.6304 69.0753 55.4482 68.8647 55.3206C68.6541 55.1931 68.4128 55.1251 68.1666 55.1237C67.9204 55.1224 67.6784 55.1878 67.4664 55.3131C67.2544 55.4383 67.0804 55.6187 66.9627 55.835L62.8467 63.487L54.3627 65.024C54.1135 65.0561 53.8781 65.1566 53.6825 65.3143C53.4869 65.472 53.3389 65.6809 53.2548 65.9177C53.1707 66.1544 53.1538 66.4099 53.206 66.6556C53.2583 66.9014 53.3776 67.1279 53.5507 67.31L59.5627 73.591L58.4007 82.155C58.3595 82.401 58.3867 82.6536 58.4793 82.8853C58.572 83.1169 58.7265 83.3186 58.926 83.4683C59.1255 83.6181 59.3623 83.7101 59.6106 83.7344C59.8588 83.7587 60.109 83.7143 60.3337 83.606L68.1587 79.837L75.9837 83.606C76.2049 83.7122 76.4506 83.7567 76.6949 83.7346C76.9393 83.7126 77.1731 83.6249 77.3716 83.4808C77.5702 83.3367 77.726 83.1415 77.8227 82.9161C77.9193 82.6906 77.9532 82.4432 77.9207 82.2L76.7527 73.591L82.7627 67.31C82.9308 67.132 83.0478 66.9118 83.1013 66.6729C83.1548 66.4339 83.1428 66.185 83.0666 65.9523C82.9904 65.7196 82.8529 65.5117 82.6685 65.3506C82.484 65.1895 82.2596 65.0812 82.0187 65.037L73.4767 63.488L69.3627 55.848ZM71.3847 65.348L68.1577 59.348L64.9307 65.348C64.8338 65.5283 64.6974 65.6844 64.5317 65.8046C64.366 65.9248 64.1752 66.0059 63.9737 66.042L57.2737 67.257L61.9867 72.186C62.1272 72.3332 62.2328 72.5101 62.2957 72.7036C62.3585 72.8972 62.377 73.1024 62.3497 73.304L61.4337 80.057C63.4757 79.0723 65.5187 78.0867 67.5627 77.1C67.7469 77.0106 67.949 76.9642 68.1537 76.9642C68.3585 76.9642 68.5605 77.0106 68.7447 77.1L74.8827 80.056L73.9717 73.335C73.9387 73.1288 73.9538 72.9177 74.0157 72.7182C74.0776 72.5188 74.1847 72.3363 74.3287 72.185L79.0417 67.256L72.4177 66.056C72.2007 66.0304 71.9931 65.9527 71.8126 65.8296C71.632 65.7065 71.4839 65.5416 71.3807 65.349L71.3847 65.348ZM75.6517 49.2L84.0327 48.107V39.657L74.0067 38.347C73.7222 38.3189 73.4538 38.2018 73.2397 38.0124C73.0255 37.823 72.8765 37.5709 72.8137 37.292C72.0702 34.0327 70.7818 30.9223 69.0027 28.092C68.8491 27.8557 68.7727 27.5774 68.7841 27.2958C68.7956 27.0141 68.8943 26.743 69.0667 26.52L75.2547 18.474L69.2797 12.5L61.2627 18.668C61.0425 18.8478 60.7715 18.9541 60.4878 18.9721C60.2041 18.99 59.9218 18.9187 59.6807 18.768C56.8468 16.9801 53.7298 15.6864 50.4627 14.942C50.1909 14.8808 49.9444 14.7376 49.7566 14.5318C49.5688 14.3259 49.4488 14.0673 49.4127 13.791L48.1007 3.727H39.6497L38.3417 13.749C38.3134 14.0335 38.1963 14.3018 38.0069 14.5159C37.8176 14.7301 37.5656 14.8791 37.2867 14.942C34.0272 15.6849 30.9168 16.9734 28.0867 18.753C27.8503 18.9064 27.572 18.9825 27.2904 18.9709C27.0088 18.9593 26.7377 18.8604 26.5147 18.688L18.4707 12.5L12.4957 18.475L18.6627 26.5C18.8417 26.7206 18.947 26.9918 18.9638 27.2754C18.9807 27.559 18.9083 27.8407 18.7567 28.081C16.9715 30.915 15.6795 34.0312 14.9357 37.297C14.8747 37.5687 14.7316 37.815 14.5259 38.0026C14.3202 38.1903 14.0618 38.3101 13.7857 38.346L3.71673 39.655V48.105L13.7437 49.413C14.0282 49.4411 14.2966 49.5582 14.5108 49.7476C14.725 49.937 14.874 50.1891 14.9367 50.468C15.6805 53.7272 16.9689 56.8375 18.7477 59.668C18.9014 59.9043 18.9778 60.1826 18.9663 60.4642C18.9549 60.7459 18.8561 61.017 18.6837 61.24L12.4957 69.286L18.4707 75.261L26.4897 69.093C26.7107 68.9143 26.9821 68.8092 27.2658 68.7925C27.5495 68.7758 27.8313 68.8484 28.0717 69C30.9051 70.7858 34.021 72.0778 37.2867 72.821C37.5586 72.8822 37.8051 73.0254 37.9929 73.2312C38.1807 73.4371 38.3007 73.6957 38.3367 73.972L39.6507 84.041H48.0997L48.7707 78.901C46.546 74.331 46.0001 69.124 47.2287 64.192C42.8844 64.9094 38.4246 64.2148 34.5042 62.2102C30.5838 60.2057 27.4095 56.9969 25.4476 53.055C23.4856 49.1132 22.8393 44.6461 23.6036 40.3098C24.368 35.9735 26.5027 31.9966 29.6942 28.9632C32.8857 25.9297 36.9658 23.9996 41.3353 23.4563C45.7048 22.913 50.1333 23.7852 53.9705 25.9447C57.8077 28.1042 60.8513 31.4372 62.6543 35.4543C64.4573 39.4714 64.9247 43.9607 63.9877 48.263C67.8879 47.499 71.9231 47.8225 75.6517 49.198V49.2ZM48.2077 61.213C49.5751 57.9025 51.7438 54.9837 54.5187 52.719C49.6967 48.11 40.6747 47.775 35.1057 51.267C33.1837 52.3744 31.716 54.1266 30.9627 56.213C33.1416 58.4926 35.8843 60.1556 38.9129 61.0337C41.9415 61.9118 45.1475 61.9736 48.2077 61.213ZM56.7627 51.113C58.085 50.2876 59.4933 49.6089 60.9627 49.089C61.8409 46.2072 61.9759 43.1502 61.3552 40.2022C60.7345 37.2543 59.3783 34.5112 57.4127 32.2282C55.4471 29.9452 52.9361 28.1964 50.1131 27.1445C47.2901 26.0927 44.2469 25.7719 41.2666 26.2121C38.2864 26.6522 35.4659 27.839 33.0675 29.662C30.6691 31.4851 28.7708 33.8851 27.5491 36.6388C26.3274 39.3926 25.822 42.4106 26.08 45.4121C26.3381 48.4136 27.351 51.3011 29.0247 53.806C30.8347 50.327 34.5017 47.988 38.3877 46.918C37.0488 45.793 36.0883 44.2834 35.6366 42.5939C35.1848 40.9045 35.2636 39.117 35.8623 37.4738C36.4609 35.8307 37.5505 34.4115 38.9832 33.4086C40.4159 32.4058 42.1224 31.8679 43.8712 31.8679C45.62 31.8679 47.3265 32.4058 48.7592 33.4086C50.1919 34.4115 51.2815 35.8307 51.8802 37.4738C52.4789 39.117 52.5577 40.9045 52.1059 42.5939C51.6541 44.2834 50.6936 45.793 49.3547 46.918C52.1488 47.6404 54.702 49.0894 56.7547 51.118L56.7627 51.113ZM81.4807 56.107C78.8455 53.4718 75.488 51.6771 71.8328 50.9501C68.1776 50.223 64.3889 50.5962 60.9458 52.0223C57.5027 53.4485 54.5598 55.8637 52.4893 58.9624C50.4188 62.0611 49.3137 65.7042 49.3137 69.431C49.3137 73.1578 50.4188 76.8009 52.4893 79.8996C54.5598 82.9983 57.5027 85.4135 60.9458 86.8397C64.3889 88.2658 68.1776 88.639 71.8328 87.9119C75.488 87.1849 78.8455 85.3902 81.4807 82.755C85.0142 79.2211 86.9993 74.4284 86.9993 69.431C86.9993 64.4336 85.0142 59.6409 81.4807 56.107ZM47.9737 36.292C47.1627 35.4805 46.1293 34.9278 45.0041 34.7037C43.8789 34.4796 42.7125 34.5943 41.6525 35.0332C40.5925 35.4721 39.6865 36.2155 39.049 37.1693C38.4115 38.1232 38.0713 39.2447 38.0713 40.392C38.0713 41.5393 38.4115 42.6608 39.049 43.6147C39.6865 44.5685 40.5925 45.3119 41.6525 45.7508C42.7125 46.1897 43.8789 46.3044 45.0041 46.0803C46.1293 45.8562 47.1627 45.3035 47.9737 44.492C49.0607 43.4044 49.6713 41.9297 49.6713 40.392C49.6713 38.8543 49.0607 37.3796 47.9737 36.292Z" stroke="#2E74CE" stroke-width="0.4" mask="url(#path-1-outside-1_199_173)"/>
</svg>
